<?xml version="1.0" encoding="UTF-8"?><svg xmlns="http://www.w3.org/2000/svg" width="1408" height="768" viewBox="0 0 1408 768">
  
  
  
  
  
  
  
  
  
<g data-color-group="#ffffff" id="white"><path id="1" d="M 0,768 C 0,512 0,256 0,0 C 469.333,0 938.667,0 1408,0 C 1408,256 1408,512 1408,768 C 938.667,768 469.333,768 0,768 ZM 412,139 C 409.333,143.667 406.667,148.333 404,153 C 402.717,156.083 401.435,159.167 400.152,162.250 C 395.669,173.027 391.755,186.600 389.265,200 C 387.623,208.838 387.500,221.199 387.500,377.500 C 387.500,510.935 387.769,547.249 388.809,554 C 400.403,629.295 457.511,689.667 532.849,706.276 C 542.430,708.388 543.640,708.406 699.936,708.726 C 855.612,709.044 857.509,709.025 869.707,706.965 C 907.944,700.508 944.015,681.022 971.084,652.200 C 975.578,647.415 980.323,641.812 984,636 C 984.250,636.003 984.500,636.005 984.750,636.008 C 986.330,636.025 998.199,616.874 1003.382,605.943 C 1010.199,591.567 1015.368,575.104 1018.121,559 C 1020.251,546.541 1020.257,545.948 1020.060,380 C 1019.848,202.008 1019.934,205.218 1014.912,185.549 C 1009.699,165.131 999.677,143.843 987.637,127.615 C 963.463,95.034 928.704,72.275 889.923,63.633 C 869.063,58.985 862.909,58.847 693.500,59.227 C 547.490,59.555 533.789,59.726 525.790,61.319 C 505.396,65.381 483.510,73.639 467.716,83.232 C 444.648,97.243 421.751,120.161 412,139 Z" fill="#FFFFFF" stroke="none" style="display:none"/></g><g data-color-group="#f1c59b" id="light-orange"><path id="8" d="M 404,153 C 406.667,148.333 409.333,143.667 412,139 C 418.975,131.725 421.009,129.138 421.020,128.557 C 421.031,127.976 428.118,120.505 436.770,111.955 C 453.705,95.220 468.995,83.595 471.188,85.788 C 472.074,86.674 471.956,87.392 470.692,88.788 C 469.306,90.320 469.217,91.191 470.154,94.061 C 472.542,101.373 472.843,101.854 474.727,101.361 C 476.005,101.027 477.571,102.128 479.847,104.960 C 481.650,107.204 483.576,108.763 484.124,108.424 C 484.672,108.085 486.526,108.389 488.242,109.100 C 491.112,110.289 491.269,110.591 490.197,112.863 C 488.792,115.839 490.154,118.034 492.951,117.303 C 494.171,116.984 495.223,117.548 495.954,118.915 C 496.790,120.477 497.689,120.865 499.446,120.424 C 502.597,119.633 507.249,122.642 506.504,124.989 C 505.487,128.194 518.350,139.138 521.121,137.425 C 521.604,137.126 522,136.035 522,135 C 522,133.965 522.450,132.840 523,132.500 C 523.550,132.160 524,132.822 524,133.972 C 524,135.122 524.787,136.307 525.750,136.604 C 529.182,137.664 530.518,138.722 531.845,141.427 C 532.901,143.580 533.683,144.045 535.481,143.594 C 538.322,142.881 539.537,144.331 540.432,149.500 C 541.581,156.139 543.257,159.310 545,158.142 C 545.825,157.589 547.235,157.345 548.132,157.599 C 549.029,157.853 550.027,157.371 550.350,156.530 C 551.275,154.120 553.951,154.742 555.046,157.621 C 555.954,160.008 556.599,160.271 562.271,160.553 C 569.428,160.909 573.793,159.436 574.210,156.524 C 574.564,154.054 577.556,153.793 577.361,156.250 C 577.209,158.170 580.437,158.719 581.525,156.959 C 581.879,156.387 582.918,156.134 583.834,156.398 C 584.750,156.662 585.991,156.347 586.591,155.698 C 587.411,154.812 588.075,155.262 589.257,157.508 C 590.628,160.114 591.379,160.500 595.082,160.500 C 598.943,160.500 599.406,160.771 600.135,163.456 C 600.716,165.597 600.515,166.879 599.405,168.105 C 598.016,169.640 598.086,169.947 600.150,171.393 C 602.122,172.774 602.536,172.793 603.241,171.533 C 604.128,169.949 610.792,167.754 612.156,168.597 C 612.620,168.884 613.003,170.329 613.007,171.809 C 613.011,173.289 613.855,175.776 614.883,177.336 C 616.553,179.869 616.975,180.034 618.828,178.876 C 620.325,177.941 621.681,177.852 623.701,178.558 C 627.086,179.742 627.789,183.466 625.231,186.667 C 623.558,188.761 623.584,188.866 626,189.806 C 627.888,190.540 628.928,190.401 630.249,189.235 C 631.851,187.821 632.313,187.985 635.749,191.183 C 639.010,194.218 639.271,194.774 637.750,195.444 C 635.054,196.630 635.635,198.489 640.056,202.822 C 643.921,206.611 644.097,207.049 643.806,212.149 C 643.534,216.909 643.239,217.537 641.135,217.835 C 639.287,218.097 638.959,218.534 639.635,219.835 C 640.111,220.751 641.175,221.500 642,221.500 C 643.199,221.500 643.537,223.180 643.685,229.882 C 643.841,236.958 644.109,238.173 645.403,237.676 C 646.246,237.352 647.209,237.529 647.543,238.070 C 647.877,238.611 648.904,238.929 649.825,238.777 C 651.130,238.561 651.567,239.420 651.804,242.672 C 651.971,244.967 652.746,247.374 653.526,248.021 C 654.748,249.035 654.741,249.402 653.472,250.671 C 651.209,252.934 651.568,261.131 654.082,264.615 C 657.521,269.381 657.896,269.648 657.950,267.372 C 657.977,266.202 658.697,264.666 659.550,263.958 C 660.832,262.894 661.394,262.967 662.800,264.374 C 664.051,265.627 664.539,267.979 664.646,273.288 C 664.726,277.255 665.053,280.500 665.372,280.500 C 665.691,280.500 665.928,279.037 665.899,277.248 C 665.865,275.162 666.417,273.777 667.436,273.386 C 670.482,272.217 671.690,274.644 671.468,281.489 C 671.284,287.186 671.484,288 673.070,288 C 675.419,288 676.464,289.736 675.103,291.376 C 674.330,292.308 674.436,293.195 675.485,294.582 C 676.283,295.637 676.950,297.351 676.968,298.390 C 676.986,299.429 677.787,300.876 678.750,301.605 C 680.401,302.855 680.379,303.059 678.371,305.215 C 675.050,308.779 675.392,310.336 679.332,309.597 C 681.937,309.108 683.070,309.420 684.520,311.022 C 686.225,312.906 686.246,313.210 684.772,314.786 C 683.890,315.729 683.134,317.400 683.092,318.500 C 683.022,320.318 683.261,320.387 685.708,319.250 C 687.332,318.496 688.762,318.362 689.313,318.913 C 690.610,320.210 689.234,322 686.941,322 C 685.873,322 685,322.450 685,323 C 685,323.550 685.605,324 686.345,324 C 688.396,324 691,327.371 691,330.025 C 691,331.327 692.220,334.152 693.710,336.302 C 694.613,337.605 695.516,338.909 696.419,340.212 C 697.150,339.295 697.881,338.379 698.612,337.462 C 701.465,333.884 704,334.717 704,339.231 C 704,341.669 704.585,342.799 706.250,343.576 C 707.978,344.382 708.237,344.921 707.366,345.897 C 705.709,347.754 706.913,351.016 709.637,352.052 C 710.937,352.546 712,353.636 712,354.475 C 712,355.318 712.868,356 713.941,356 C 715.009,356 716.195,356.507 716.579,357.128 C 717.056,357.899 717.565,357.741 718.188,356.628 C 719.730,353.873 722.288,354.728 727.500,359.740 C 729.167,361.343 730.833,362.945 732.500,364.548 C 731.667,365.522 730.833,366.497 730,367.471 C 729.167,368.445 728.333,369.419 727.500,370.393 C 728.171,371.077 728.842,371.763 729.513,372.447 C 731.280,374.249 731.743,374.328 733.307,373.091 C 734.602,372.067 734.918,370.905 734.465,368.840 C 734.002,366.730 734.265,365.835 735.488,365.366 C 737.980,364.410 739.728,366.606 738.297,368.897 C 737.443,370.265 737.435,371.035 738.268,371.868 C 739.101,372.701 738.906,373.349 737.516,374.365 C 735.700,375.693 735.711,375.775 737.820,376.904 C 739.019,377.546 740,379.016 740,380.171 C 740,382.254 744.216,387 746.066,387 C 746.596,387 747.830,388.317 748.809,389.927 C 750.574,392.829 750.598,392.835 751.675,390.677 C 752.037,389.951 752.399,389.226 752.761,388.500 C 753.479,389.167 754.196,389.833 754.914,390.500 C 756.098,391.600 758.289,393.740 759.783,395.254 C 761.433,396.926 763.232,397.834 764.365,397.567 C 766.233,397.126 768.989,398.290 772.227,400.885 C 773.323,401.764 775.209,402.065 777.385,401.712 C 780.203,401.255 781.393,401.673 784.062,404.056 C 785.145,405.023 786.227,405.989 787.310,406.956 C 787.762,406.085 788.214,405.214 788.666,404.343 C 789.707,402.337 789.750,401.404 788.853,400.323 C 787.959,399.246 787.973,398.632 788.910,397.708 C 789.869,396.763 790.405,396.866 791.379,398.184 C 792.063,399.110 793.833,400.171 795.312,400.542 C 797.462,401.082 798,400.867 798,399.468 C 798,398.117 798.793,398.491 801.481,401.110 C 803.766,403.335 804.774,405.101 804.414,406.250 C 803.605,408.833 807.284,408.515 808.513,405.896 C 809.372,404.065 809.858,403.932 812.250,404.871 C 813.763,405.465 815,406.599 815,407.392 C 815,409.488 817.309,409.935 818.660,408.101 C 819.701,406.688 820.042,406.728 822,408.500 C 824.166,410.460 824.190,410.460 825.615,408.512 C 826.756,406.951 827.409,406.775 828.809,407.649 C 829.791,408.262 832.782,408.535 835.573,408.267 C 839.329,407.906 840.901,408.176 841.875,409.349 C 843.580,411.403 842.722,412.606 839.021,413.346 C 835.146,414.121 835.092,416 838.944,416 C 840.909,416 843.147,414.848 845.669,412.537 C 849.435,409.087 852.434,408.661 855.592,411.129 C 856.193,411.598 856.966,411.701 857.311,411.356 C 858.392,410.275 863.192,414.058 862.622,415.542 C 861.796,417.696 863.921,418.382 865.892,416.598 C 868.301,414.418 871.079,414.588 871.698,416.954 C 872.440,419.793 877.965,418.643 878.083,415.625 C 878.173,413.327 878.677,413.674 882.476,418.642 C 883.544,420.039 884.810,420.600 886.116,420.259 C 887.568,419.879 888.273,420.325 888.679,421.879 C 889.017,423.170 890.285,424.230 891.870,424.546 C 893.317,424.834 895.948,425.527 897.717,426.087 C 899.930,426.787 901.548,426.777 902.901,426.053 C 905.447,424.690 910.694,424.696 911.539,426.063 C 911.900,426.648 911.477,427.921 910.598,428.892 C 909.719,429.863 909,431.132 909,431.712 C 909,433.408 912.820,433.923 914.086,432.397 C 915.719,430.430 917.749,430.662 918.977,432.957 C 919.556,434.039 921.562,435.202 923.464,435.559 C 929.316,436.657 931.510,443.291 927.168,446.760 C 925.739,447.902 925.753,448.182 927.320,449.749 C 928.271,450.700 929.795,451.483 930.708,451.489 C 931.754,451.496 932.697,452.769 933.260,454.935 C 933.936,457.537 934.373,458.022 935.061,456.935 C 935.560,456.146 935.977,454 935.985,452.167 C 936.004,447.968 938.453,448.358 938.606,452.584 C 938.664,454.188 939.036,456.253 939.433,457.173 C 939.936,458.340 939.485,459.205 937.938,460.033 C 935.732,461.213 935.737,461.231 938.973,463.280 C 941.637,464.966 942.573,465.123 944.136,464.147 C 945.687,463.179 946.156,463.243 946.635,464.490 C 947.305,466.236 945.383,469 943.500,469 C 942.810,469 941.667,468.304 940.961,467.453 C 938.716,464.749 937.893,468.048 940.109,470.866 C 941.637,472.808 941.933,474.259 941.455,477.450 C 940.861,481.413 940.947,481.573 944.171,482.521 C 947.154,483.398 947.511,483.893 947.603,487.282 C 947.670,489.725 948.378,491.583 949.603,492.527 C 951.428,493.934 951.379,494.101 948.280,496.954 C 946.509,498.585 945.503,500.193 946.046,500.528 C 946.589,500.863 946.755,501.587 946.416,502.136 C 946.077,502.685 946.763,503.387 947.941,503.695 C 949.198,504.024 949.972,504.925 949.816,505.877 C 949.670,506.769 949.934,508.113 950.403,508.862 C 950.924,509.694 950.795,510.509 950.070,510.957 C 948.364,512.011 949.867,517.172 952.412,519 C 955.454,521.185 963.240,522.011 964.520,520.285 C 965.381,519.124 966.116,519.150 969.238,520.455 C 971.272,521.305 973.820,522 974.900,522 C 977.488,522 981.056,527.123 981.330,531.233 C 981.603,535.324 982.660,537.067 984.451,536.380 C 986.713,535.512 991.117,538.994 990.789,541.391 C 990.581,542.910 991.109,543.587 992.677,543.810 C 993.875,543.980 995.393,544.768 996.050,545.560 C 996.707,546.352 998.104,547 999.154,547 C 1000.204,547 1001.331,547.700 1001.660,548.557 C 1001.989,549.414 1002.841,549.891 1003.554,549.618 C 1004.267,549.345 1005.569,550.218 1006.448,551.560 C 1008.425,554.578 1010.314,554.665 1012.200,551.825 C 1013.187,550.338 1014.205,549.864 1015.416,550.329 C 1016.931,550.910 1017.083,551.756 1016.474,556.185 C 1015.776,561.257 1013.745,569.959 1010.662,581.077 C 1009.134,586.587 1001.627,604.860 996.109,616.500 C 994.545,619.800 991.630,624.412 989.632,626.750 C 988.421,628.167 987.211,629.583 986,631 C 978.372,640.364 974.435,644.172 972.329,645.503 C 970.223,646.834 967.158,649.020 965.518,650.361 C 962.573,652.769 962.320,652.796 945.241,652.469 C 935.729,652.287 926.480,651.654 924.687,651.062 C 920.723,649.754 916.010,649.616 905.500,650.502 C 901.100,650.873 895.250,651.325 892.500,651.507 C 889.750,651.689 886.085,652.143 884.355,652.517 C 881.935,653.040 880.986,652.797 880.239,651.463 C 879.412,649.984 877.371,649.684 866.384,649.426 C 859.298,649.259 851.475,648.883 849,648.591 C 846.525,648.299 841.575,647.762 838,647.399 C 834.425,647.036 830.683,646.173 829.685,645.480 C 828.687,644.787 827.050,644.436 826.048,644.698 C 825.046,644.960 823.966,644.755 823.649,644.242 C 823.332,643.729 818.761,643.443 813.491,643.606 C 808.221,643.769 802.918,643.535 801.705,643.086 C 800.416,642.609 798.519,642.718 797.140,643.346 C 795.248,644.208 794.541,644.093 793.571,642.766 C 792.605,641.445 791.072,641.191 785.968,641.502 C 781.831,641.754 778.503,641.397 776.537,640.490 C 773,638.858 757.374,637.587 756.583,638.867 C 756.287,639.345 753.739,640.042 750.920,640.416 C 746.980,640.939 745.213,640.715 743.275,639.445 C 741.162,638.060 740.372,637.997 738.387,639.060 C 736.387,640.130 735.732,640.068 734.171,638.655 C 732.741,637.361 729.625,636.867 720.411,636.474 C 713.860,636.194 706.250,635.776 703.500,635.544 C 696.214,634.930 686.846,634.263 675.605,633.559 C 670.163,633.218 665.305,632.689 664.811,632.383 C 664.317,632.078 663.248,632.379 662.437,633.052 C 661.259,634.029 660.613,633.966 659.231,632.737 C 656.736,630.520 651.480,629.388 643.750,629.402 C 638.171,629.412 637,629.132 637,627.784 C 637,626.615 635.939,626.076 633.250,625.881 C 631.188,625.731 628.233,625.269 626.685,624.855 C 625.085,624.427 622.858,624.563 621.526,625.170 C 619.723,625.992 618.435,625.865 615.938,624.619 C 614.153,623.729 611.974,622.980 611.096,622.956 C 610.218,622.932 607.840,622.319 605.811,621.595 C 603.123,620.635 601.824,620.576 601.020,621.380 C 600.216,622.184 599.724,622.182 599.208,621.374 C 598.818,620.764 595.800,619.488 592.500,618.538 C 589.200,617.588 585.968,616.373 585.317,615.838 C 584.666,615.303 582.479,614.661 580.458,614.410 C 578.437,614.159 575.819,613.425 574.641,612.778 C 573.463,612.131 571.464,611.726 570.197,611.879 C 568.930,612.032 567.355,611.753 566.697,611.259 C 566.039,610.765 563.475,609.771 561,609.051 C 554.293,607.099 550.282,605.177 549.689,603.631 C 549.398,602.873 547.562,601.952 545.609,601.586 C 543.656,601.220 541.482,600.130 540.779,599.164 C 540.076,598.198 537.779,596.605 535.675,595.622 C 533.300,594.513 532.044,593.328 532.362,592.500 C 532.872,591.171 530.368,589.476 528.538,589.912 C 528.009,590.038 527.109,589.543 526.538,588.811 C 525.967,588.079 522.237,585.014 518.250,582 C 514.263,578.986 511,576.026 511,575.421 C 511,574.816 509.825,573.785 508.389,573.131 C 506.347,572.201 505.881,571.403 506.250,569.471 C 506.606,567.609 506.294,567 504.984,567 C 502.846,567 501.481,565.357 500.619,561.750 C 500.167,559.859 499.323,559 497.914,559 C 496.370,559 496.011,558.540 496.457,557.135 C 496.872,555.828 495.695,553.765 492.524,550.238 C 490.036,547.470 488,544.368 488,543.343 C 488,542.318 486.875,540.266 485.500,538.783 C 484.125,537.300 483,535.138 483,533.977 C 483,532.816 481.910,530.434 480.578,528.683 C 477.401,524.507 472.423,513.657 470.578,506.889 C 467.546,495.765 466.874,494 465.680,494 C 464.921,494 464.455,492.508 464.455,490.080 C 464.455,487.808 463.746,485.377 462.770,484.299 C 461.526,482.924 461.202,481.205 461.529,477.719 C 461.785,474.987 461.557,473 460.986,473 C 460.444,473 460,471.965 460,470.700 C 460,469.435 459.642,467.972 459.204,467.450 C 457.889,465.880 455.849,459.125 455.500,455.189 C 455.320,453.160 454.614,450.375 453.931,449 C 452.896,446.915 452.946,446.287 454.233,445.220 C 456.032,443.728 455.241,438.544 452.600,434.513 C 451.720,433.170 451,430.488 451,428.554 C 451,426.620 450.492,421.767 449.871,417.769 C 448.854,411.223 447.896,406.265 444.895,392 C 443.829,386.936 442.270,376.242 441.395,368 C 441.074,364.975 440.430,362.037 439.966,361.471 C 439.502,360.905 438.872,357.305 438.566,353.471 C 437.913,345.286 436.607,336.392 435.084,329.758 C 434.485,327.150 434.069,324.675 434.159,324.258 C 434.249,323.841 433.768,322.150 433.090,320.500 C 431.948,317.720 430.694,309.442 429.379,296 C 429.083,292.975 428.034,288.700 427.047,286.500 C 424.589,281.020 421.717,270.950 422.413,270.254 C 422.727,269.940 422.553,269.166 422.028,268.534 C 421.503,267.902 420.643,262.235 420.115,255.942 C 419.554,249.251 418.247,241.801 416.969,238 C 415.767,234.425 414.406,229.025 413.947,226 C 412.700,217.791 410.640,208.567 409.925,208 C 409.578,207.725 408.524,205.025 407.581,202 C 406.034,197.036 404.248,192.129 401.940,186.500 C 401.489,185.400 400.910,180.675 400.653,176 C 400.223,168.183 400.429,166.940 403.220,160.542 C 405.144,156.130 405.842,153.477 405.127,153.292 C 404.751,153.195 404.376,153.097 404,153 ZM 658.027,310.935 C 656.991,308.974 654.294,306.089 652.035,304.524 C 648.350,301.971 646.312,301.494 632.214,299.889 C 600.339,296.260 565.213,296.470 530.725,300.494 C 513.893,302.458 508.434,306.396 507.299,317.393 C 506.849,321.754 507.156,323.506 508.925,326.653 C 513.774,335.282 522.387,337.571 543.611,335.875 C 550.339,335.337 557.117,334.808 558.672,334.699 C 561.491,334.501 561.502,334.522 562.133,342 C 563.140,353.944 567.385,362.490 576.467,370.862 C 582.140,376.091 589.697,379.694 598.100,381.174 C 622.497,385.471 647,364.120 647,338.563 C 647,335.798 647.574,335.120 651.555,333.186 C 655.018,331.503 656.571,329.957 658.033,326.736 C 660.456,321.398 660.454,315.526 658.027,310.935 ZM 866.071,496.479 C 865.004,492.032 862.265,488.329 858.147,485.768 C 856.931,485.012 855.716,484.256 854.500,483.500 C 804.333,483.500 754.167,483.500 704,483.500 C 653.833,483.500 603.667,483.500 553.500,483.500 C 552.267,484.267 551.033,485.033 549.800,485.800 C 538.099,493.076 538.875,510.150 551.200,516.589 C 555.249,518.704 852.751,518.704 856.800,516.589 C 861.009,514.390 864.710,509.880 865.901,505.500 C 867.103,501.079 867.109,500.805 866.071,496.479 Z" fill="#F1C59B" stroke="none"/></g><g data-color-group="#f9dfc5" id="pale-orange"><path id="2" d="M 412,139 C 421.751,120.161 444.648,97.243 467.716,83.232 C 483.510,73.639 505.396,65.381 525.790,61.319 C 533.789,59.726 547.490,59.555 693.500,59.227 C 862.909,58.847 869.063,58.985 889.923,63.633 C 928.704,72.275 963.463,95.034 987.637,127.615 C 999.677,143.843 1009.699,165.131 1014.912,185.549 C 1019.934,205.218 1019.848,202.008 1020.060,380 C 1020.257,545.948 1020.251,546.541 1018.121,559 C 1015.368,575.104 1010.199,591.567 1003.382,605.943 C 998.199,616.874 986.330,636.025 984.750,636.008 C 984.500,636.005 984.250,636.003 984,636 C 984.667,634.333 985.333,632.667 986,631 C 987.211,629.583 988.421,628.167 989.632,626.750 C 991.630,624.412 994.545,619.800 996.109,616.500 C 1001.627,604.860 1009.134,586.587 1010.662,581.077 C 1013.745,569.959 1015.776,561.257 1016.474,556.185 C 1017.083,551.756 1016.931,550.910 1015.416,550.329 C 1014.205,549.864 1013.187,550.338 1012.200,551.825 C 1010.314,554.665 1008.425,554.578 1006.448,551.560 C 1005.569,550.218 1004.267,549.345 1003.554,549.618 C 1002.841,549.891 1001.989,549.414 1001.660,548.557 C 1001.331,547.700 1000.204,547 999.154,547 C 998.104,547 996.707,546.352 996.050,545.560 C 995.393,544.768 993.875,543.980 992.677,543.810 C 991.109,543.587 990.581,542.910 990.789,541.391 C 991.117,538.994 986.713,535.512 984.451,536.380 C 982.660,537.067 981.603,535.324 981.330,531.233 C 981.056,527.123 977.488,522 974.900,522 C 973.820,522 971.272,521.305 969.238,520.455 C 966.116,519.150 965.381,519.124 964.520,520.285 C 963.240,522.011 955.454,521.185 952.412,519 C 949.867,517.172 948.364,512.011 950.070,510.957 C 950.795,510.509 950.924,509.694 950.403,508.862 C 949.934,508.113 949.670,506.769 949.816,505.877 C 949.972,504.925 949.198,504.024 947.941,503.695 C 946.763,503.387 946.077,502.685 946.416,502.136 C 946.755,501.587 946.589,500.863 946.046,500.528 C 945.503,500.193 946.509,498.585 948.280,496.954 C 951.379,494.101 951.428,493.934 949.603,492.527 C 948.378,491.583 947.670,489.725 947.603,487.282 C 947.511,483.893 947.154,483.398 944.171,482.521 C 940.947,481.573 940.861,481.413 941.455,477.450 C 941.933,474.259 941.637,472.808 940.109,470.866 C 937.893,468.048 938.716,464.749 940.961,467.453 C 941.667,468.304 942.810,469 943.500,469 C 945.383,469 947.305,466.236 946.635,464.490 C 946.156,463.243 945.687,463.179 944.136,464.147 C 942.573,465.123 941.637,464.966 938.973,463.280 C 935.737,461.231 935.732,461.213 937.938,460.033 C 939.485,459.205 939.936,458.340 939.433,457.173 C 939.036,456.253 938.664,454.188 938.606,452.584 C 938.453,448.358 936.004,447.968 935.985,452.167 C 935.977,454 935.560,456.146 935.061,456.935 C 934.373,458.022 933.936,457.537 933.260,454.935 C 932.697,452.769 931.754,451.496 930.708,451.489 C 929.795,451.483 928.271,450.700 927.320,449.749 C 925.753,448.182 925.739,447.902 927.168,446.760 C 931.510,443.291 929.316,436.657 923.464,435.559 C 921.562,435.202 919.556,434.039 918.977,432.957 C 917.749,430.662 915.719,430.430 914.086,432.397 C 912.820,433.923 909,433.408 909,431.712 C 909,431.132 909.719,429.863 910.598,428.892 C 911.477,427.921 911.900,426.648 911.539,426.063 C 910.694,424.696 905.447,424.690 902.901,426.053 C 901.548,426.777 899.930,426.787 897.717,426.087 C 895.948,425.527 893.317,424.834 891.870,424.546 C 890.285,424.230 889.017,423.170 888.679,421.879 C 888.273,420.325 887.568,419.879 886.116,420.259 C 884.810,420.600 883.544,420.039 882.476,418.642 C 878.677,413.674 878.173,413.327 878.083,415.625 C 877.965,418.643 872.440,419.793 871.698,416.954 C 871.079,414.588 868.301,414.418 865.892,416.598 C 863.921,418.382 861.796,417.696 862.622,415.542 C 863.192,414.058 858.392,410.275 857.311,411.356 C 856.966,411.701 856.193,411.598 855.592,411.129 C 852.434,408.661 849.435,409.087 845.669,412.537 C 843.147,414.848 840.909,416 838.944,416 C 835.092,416 835.146,414.121 839.021,413.346 C 842.722,412.606 843.580,411.403 841.875,409.349 C 840.901,408.176 839.329,407.906 835.573,408.267 C 832.782,408.535 829.791,408.262 828.809,407.649 C 827.409,406.775 826.756,406.951 825.615,408.512 C 824.190,410.460 824.166,410.460 822,408.500 C 820.042,406.728 819.701,406.688 818.660,408.101 C 817.309,409.935 815,409.488 815,407.392 C 815,406.599 813.763,405.465 812.250,404.871 C 809.858,403.932 809.372,404.065 808.513,405.896 C 807.284,408.515 803.605,408.833 804.414,406.250 C 804.774,405.101 803.766,403.335 801.481,401.110 C 798.793,398.491 798,398.117 798,399.468 C 798,400.867 797.462,401.082 795.312,400.542 C 793.833,400.171 792.063,399.110 791.379,398.184 C 790.405,396.866 789.869,396.763 788.910,397.708 C 787.973,398.632 787.959,399.246 788.853,400.323 C 789.750,401.404 789.707,402.337 788.666,404.343 C 788.214,405.214 787.762,406.085 787.310,406.956 C 786.227,405.989 785.145,405.023 784.062,404.056 C 781.393,401.673 780.203,401.255 777.385,401.712 C 775.209,402.065 773.323,401.764 772.227,400.885 C 768.989,398.290 766.233,397.126 764.365,397.567 C 763.232,397.834 761.433,396.926 759.783,395.254 C 758.289,393.740 756.098,391.600 754.914,390.500 C 754.196,389.833 753.479,389.167 752.761,388.500 C 752.399,389.226 752.037,389.951 751.675,390.677 C 750.598,392.835 750.574,392.829 748.809,389.927 C 747.830,388.317 746.596,387 746.066,387 C 744.216,387 740,382.254 740,380.171 C 740,379.016 739.019,377.546 737.820,376.904 C 735.711,375.775 735.700,375.693 737.516,374.365 C 738.906,373.349 739.101,372.701 738.268,371.868 C 737.435,371.035 737.443,370.265 738.297,368.897 C 739.728,366.606 737.980,364.410 735.488,365.366 C 734.265,365.835 734.002,366.730 734.465,368.840 C 734.918,370.905 734.602,372.067 733.307,373.091 C 731.743,374.328 731.280,374.249 729.513,372.447 C 728.842,371.763 728.171,371.077 727.500,370.393 C 728.333,369.419 729.167,368.445 730,367.471 C 730.833,366.497 731.667,365.522 732.500,364.548 C 730.833,362.945 729.167,361.343 727.500,359.740 C 722.288,354.728 719.730,353.873 718.188,356.628 C 717.565,357.741 717.056,357.899 716.579,357.128 C 716.195,356.507 715.009,356 713.941,356 C 712.868,356 712,355.318 712,354.475 C 712,353.636 710.937,352.546 709.637,352.052 C 706.913,351.016 705.709,347.754 707.366,345.897 C 708.237,344.921 707.978,344.382 706.250,343.576 C 704.585,342.799 704,341.669 704,339.231 C 704,334.717 701.465,333.884 698.612,337.462 C 697.881,338.379 697.150,339.295 696.419,340.212 C 695.516,338.909 694.613,337.605 693.710,336.302 C 692.220,334.152 691,331.327 691,330.025 C 691,327.371 688.396,324 686.345,324 C 685.605,324 685,323.550 685,323 C 685,322.450 685.873,322 686.941,322 C 689.234,322 690.610,320.210 689.313,318.913 C 688.762,318.362 687.332,318.496 685.708,319.250 C 683.261,320.387 683.022,320.318 683.092,318.500 C 683.134,317.400 683.890,315.729 684.772,314.786 C 686.246,313.210 686.225,312.906 684.520,311.022 C 683.070,309.420 681.937,309.108 679.332,309.597 C 675.392,310.336 675.050,308.779 678.371,305.215 C 680.379,303.059 680.401,302.855 678.750,301.605 C 677.787,300.876 676.986,299.429 676.968,298.390 C 676.950,297.351 676.283,295.637 675.485,294.582 C 674.436,293.195 674.330,292.308 675.103,291.376 C 676.464,289.736 675.419,288 673.070,288 C 671.484,288 671.284,287.186 671.468,281.489 C 671.690,274.644 670.482,272.217 667.436,273.386 C 666.417,273.777 665.865,275.162 665.899,277.248 C 665.928,279.037 665.691,280.500 665.372,280.500 C 665.053,280.500 664.726,277.255 664.646,273.288 C 664.539,267.979 664.051,265.627 662.800,264.374 C 661.394,262.967 660.832,262.894 659.550,263.958 C 658.697,264.666 657.977,266.202 657.950,267.372 C 657.896,269.648 657.521,269.381 654.082,264.615 C 651.568,261.131 651.209,252.934 653.472,250.671 C 654.741,249.402 654.748,249.035 653.526,248.021 C 652.746,247.374 651.971,244.967 651.804,242.672 C 651.567,239.420 651.130,238.561 649.825,238.777 C 648.904,238.929 647.877,238.611 647.543,238.070 C 647.209,237.529 646.246,237.352 645.403,237.676 C 644.109,238.173 643.841,236.958 643.685,229.882 C 643.537,223.180 643.199,221.500 642,221.500 C 641.175,221.500 640.111,220.751 639.635,219.835 C 638.959,218.534 639.287,218.097 641.135,217.835 C 643.239,217.537 643.534,216.909 643.806,212.149 C 644.097,207.049 643.921,206.611 640.056,202.822 C 635.635,198.489 635.054,196.630 637.750,195.444 C 639.271,194.774 639.010,194.218 635.749,191.183 C 632.313,187.985 631.851,187.821 630.249,189.235 C 628.928,190.401 627.888,190.540 626,189.806 C 623.584,188.866 623.558,188.761 625.231,186.667 C 627.789,183.466 627.086,179.742 623.701,178.558 C 621.681,177.852 620.325,177.941 618.828,178.876 C 616.975,180.034 616.553,179.869 614.883,177.336 C 613.855,175.776 613.011,173.289 613.007,171.809 C 613.003,170.329 612.620,168.884 612.156,168.597 C 610.792,167.754 604.128,169.949 603.241,171.533 C 602.536,172.793 602.122,172.774 600.150,171.393 C 598.086,169.947 598.016,169.640 599.405,168.105 C 600.515,166.879 600.716,165.597 600.135,163.456 C 599.406,160.771 598.943,160.500 595.082,160.500 C 591.379,160.500 590.628,160.114 589.257,157.508 C 588.075,155.262 587.411,154.812 586.591,155.698 C 585.991,156.347 584.750,156.662 583.834,156.398 C 582.918,156.134 581.879,156.387 581.525,156.959 C 580.437,158.719 577.209,158.170 577.361,156.250 C 577.556,153.793 574.564,154.054 574.210,156.524 C 573.793,159.436 569.428,160.909 562.271,160.553 C 556.599,160.271 555.954,160.008 555.046,157.621 C 553.951,154.742 551.275,154.120 550.350,156.530 C 550.027,157.371 549.029,157.853 548.132,157.599 C 547.235,157.345 545.825,157.589 545,158.142 C 543.257,159.310 541.581,156.139 540.432,149.500 C 539.537,144.331 538.322,142.881 535.481,143.594 C 533.683,144.045 532.901,143.580 531.845,141.427 C 530.518,138.722 529.182,137.664 525.750,136.604 C 524.787,136.307 524,135.122 524,133.972 C 524,132.822 523.550,132.160 523,132.500 C 522.450,132.840 522,133.965 522,135 C 522,136.035 521.604,137.126 521.121,137.425 C 518.350,139.138 505.487,128.194 506.504,124.989 C 507.249,122.642 502.597,119.633 499.446,120.424 C 497.689,120.865 496.790,120.477 495.954,118.915 C 495.223,117.548 494.171,116.984 492.951,117.303 C 490.154,118.034 488.792,115.839 490.197,112.863 C 491.269,110.591 491.112,110.289 488.242,109.100 C 486.526,108.389 484.672,108.085 484.124,108.424 C 483.576,108.763 481.650,107.204 479.847,104.960 C 477.571,102.128 476.005,101.027 474.727,101.361 C 472.843,101.854 472.542,101.373 470.154,94.061 C 469.217,91.191 469.306,90.320 470.692,88.788 C 471.956,87.392 472.074,86.674 471.188,85.788 C 468.995,83.595 453.705,95.220 436.770,111.955 C 428.118,120.505 421.031,127.976 421.020,128.557 C 421.009,129.138 418.975,131.725 412,139 ZM 749.123,312.001 C 747.602,315.816 747.820,322.817 749.574,326.514 C 753.446,334.673 763.355,337.527 782.353,335.955 C 788.484,335.448 795.572,335.025 798.105,335.016 C 799.640,335.011 801.175,335.005 802.710,335 C 802.899,337.250 803.087,339.501 803.276,341.751 C 804.685,358.561 815.456,373.094 831,379.160 C 839.376,382.428 852.453,382.285 860.752,378.832 C 876.834,372.141 886.574,359.034 887.749,342.500 C 888.244,335.532 888.264,335.491 892.080,333.688 C 903.103,328.479 903.739,311.938 893.197,304.635 C 888.212,301.182 878.404,299.733 847.240,297.845 C 817.104,296.020 765.409,299.138 757.485,303.258 C 753.809,305.169 750.444,308.688 749.123,312.001 ZM 838.857,162.512 C 837.916,166.783 838.779,170.051 841.588,172.860 C 843.510,174.782 843.908,175.972 843.450,178.416 C 842.625,182.816 846.489,186.491 850.918,185.518 C 853.589,184.931 854,185.118 854,186.921 C 854,188.065 853.539,189 852.975,189 C 852.411,189 851.505,190.172 850.960,191.605 C 850.144,193.751 849.527,194.098 847.459,193.579 C 843.367,192.552 840.072,197.124 840.032,203.885 C 840.006,208.368 840.419,209.659 842.500,211.588 C 843.906,212.891 845,215.019 845,216.452 C 845,218.262 845.534,219 846.845,219 C 847.860,219 849.519,219.916 850.532,221.035 C 851.545,222.154 852.971,222.841 853.702,222.561 C 854.433,222.281 856.711,222.988 858.765,224.133 C 863.581,226.817 863.492,226.702 862.056,228.432 C 860.413,230.412 861.551,232 864.611,232 C 865.982,232 868.768,232.836 870.802,233.858 C 872.836,234.880 876.035,236.476 877.912,237.405 C 879.789,238.334 881.589,238.692 881.912,238.201 C 882.558,237.221 890.152,237.453 893.809,238.563 C 895.625,239.114 896.233,238.826 896.655,237.211 C 897.089,235.550 897.794,235.245 900.346,235.615 C 903.884,236.129 906.617,234.807 905.559,233.095 C 905.176,232.475 904.443,232.227 903.931,232.543 C 903.419,232.859 903.007,232.754 903.015,232.309 C 903.051,230.422 904.792,228.994 907.311,228.786 C 909.558,228.600 909.954,228.150 909.679,226.095 C 909.473,224.556 909.072,224.073 908.615,224.813 C 908.212,225.466 906.810,226 905.500,226 C 904.190,226 902.840,226.450 902.500,227 C 902.160,227.550 901.164,228 900.286,228 C 898.912,228 898.949,227.714 900.555,225.939 C 901.737,224.632 902.042,223.626 901.387,223.189 C 900.819,222.810 900.063,221.712 899.708,220.750 C 899.353,219.788 898.373,219 897.531,219 C 894.591,219 896.265,215.654 899.750,214.567 C 901.134,214.135 902,214.284 902,214.952 C 902,216.495 907.209,215.047 908.718,213.084 C 910.726,210.473 910.304,205.892 908,205.290 C 906.635,204.933 906,203.926 906,202.119 C 906,200.663 905.100,197.791 904,195.739 C 902.900,193.687 902,191.789 902,191.523 C 902,191.257 903.965,191.308 906.368,191.637 C 912.022,192.412 912.831,190.985 908.941,187.095 C 907.251,185.405 906.149,183.567 906.493,183.011 C 907.841,180.830 914.515,182.624 916.300,185.646 C 916.740,186.391 917.567,187 918.139,187 C 919.645,187 922.928,182.791 922.967,180.809 C 923.016,178.332 921.284,177.682 920.092,179.729 C 919.525,180.703 919.047,180.972 919.030,180.327 C 919.013,179.682 917.710,177.864 916.134,176.288 C 914.558,174.712 912.918,172.317 912.489,170.965 C 911.650,168.323 909.272,166.083 907.250,166.032 C 904.935,165.973 902.120,162.255 902.703,160.026 C 903.724,156.120 896.479,150.797 894.500,154 C 893.556,155.527 890.287,155.191 889.638,153.500 C 888.518,150.582 883,152.411 883,155.700 C 883,156.415 883.845,157 884.878,157 C 886.427,157 890.083,159.820 888.872,160.080 C 888.667,160.124 885.800,160.927 882.500,161.864 C 877.326,163.333 876.533,163.873 876.738,165.784 C 877.061,168.792 875.921,168.570 872.456,164.954 C 870.015,162.407 868.890,161.956 865.585,162.204 C 862.259,162.453 861.521,162.923 860.925,165.168 C 860.016,168.594 856.862,172.928 855.250,172.969 C 853.392,173.016 853.727,171.287 856.237,167.893 C 856.983,166.884 857.729,165.876 858.475,164.867 C 857.646,164.230 856.816,163.593 855.987,162.956 C 854.619,161.905 852.938,161.034 852.250,161.022 C 851.562,161.010 851.015,160.663 851.032,160.250 C 851.085,158.992 855.833,154 856.977,154 C 857.567,154 858.477,152.875 859,151.500 C 859.939,149.030 864,147.858 864,150.057 C 864,151.481 872.236,150.831 872.716,149.369 C 872.921,148.744 871.524,147.946 869.589,147.583 C 865.530,146.822 865.584,144 869.657,144 C 871,144 873.450,143.301 875.100,142.448 C 877.969,140.965 878.079,140.667 877.610,135.698 C 877.340,132.839 876.977,130.725 876.803,131 C 876.629,131.275 875.191,130.488 873.608,129.250 C 870.609,126.905 868,126.307 868,127.965 C 868,128.496 868.900,129.411 870,130 C 872.324,131.244 872.652,133 870.559,133 C 868.598,133 867.540,134.940 868.809,136.209 C 870.140,137.540 869.208,140 867.372,140 C 866.594,140 865.444,141.125 864.818,142.500 C 863.279,145.879 862,145.652 862,142 C 862,140.055 862.507,139 863.441,139 C 865.274,139 866.335,137.313 865.640,135.503 C 865.184,134.315 864.637,134.335 862.050,135.625 C 858.910,137.192 858.849,137.569 860.660,144.250 C 861.026,145.601 860.521,146 858.445,146 C 856.135,146 855.936,145.783 857.035,144.458 C 857.959,143.345 858.012,142.612 857.225,141.825 C 855.577,140.177 853,141.638 853.001,144.219 C 853.002,146.189 852.489,146.500 849.251,146.500 C 846.461,146.500 845.496,146.916 845.485,148.126 C 845.477,149.020 844.815,150.979 844.013,152.477 C 842.733,154.868 842.734,155.344 844.027,156.370 C 846.487,158.323 848.103,161.818 846.892,162.566 C 846.305,162.929 846.028,163.998 846.275,164.942 C 846.849,167.136 844.316,170.739 843.109,169.446 C 841.302,167.512 840.797,164 842.326,164 C 844.127,164 845.403,161.003 844.139,159.739 C 842.374,157.974 839.527,159.469 838.857,162.512 ZM 917.494,220.364 C 915.559,221.107 915.911,222.910 918.282,224.406 C 919.478,225.161 920.292,225.108 921.180,224.220 C 922.841,222.559 919.871,219.452 917.494,220.364 Z" fill="#F9DFC5" stroke="none"/></g><g data-color-group="#906b47" id="orange"><path id="6" d="M 984,636 C 980.323,641.812 975.578,647.415 971.084,652.200 C 944.015,681.022 907.944,700.508 869.707,706.965 C 857.509,709.025 855.612,709.044 699.936,708.726 C 543.640,708.406 542.430,708.388 532.849,706.276 C 457.511,689.667 400.403,629.295 388.809,554 C 387.769,547.249 387.500,510.935 387.500,377.500 C 387.500,221.199 387.623,208.838 389.265,200 C 391.755,186.600 395.669,173.027 400.152,162.250 C 401.435,159.167 402.717,156.083 404,153 C 404.376,153.097 404.751,153.195 405.127,153.292 C 405.842,153.477 405.144,156.130 403.220,160.542 C 400.429,166.940 400.223,168.183 400.653,176 C 400.910,180.675 401.489,185.400 401.940,186.500 C 404.248,192.129 406.034,197.036 407.581,202 C 408.524,205.025 409.578,207.725 409.925,208 C 410.640,208.567 412.700,217.791 413.947,226 C 414.406,229.025 415.767,234.425 416.969,238 C 418.247,241.801 419.554,249.251 420.115,255.942 C 420.643,262.235 421.503,267.902 422.028,268.534 C 422.553,269.166 422.727,269.940 422.413,270.254 C 421.717,270.950 424.589,281.020 427.047,286.500 C 428.034,288.700 429.083,292.975 429.379,296 C 430.694,309.442 431.948,317.720 433.090,320.500 C 433.768,322.150 434.249,323.841 434.159,324.258 C 434.069,324.675 434.485,327.150 435.084,329.758 C 436.607,336.392 437.913,345.286 438.566,353.471 C 438.872,357.305 439.502,360.905 439.966,361.471 C 440.430,362.037 441.074,364.975 441.395,368 C 442.270,376.242 443.829,386.936 444.895,392 C 447.896,406.265 448.854,411.223 449.871,417.769 C 450.492,421.767 451,426.620 451,428.554 C 451,430.488 451.720,433.170 452.600,434.513 C 455.241,438.544 456.032,443.728 454.233,445.220 C 452.946,446.287 452.896,446.915 453.931,449 C 454.614,450.375 455.320,453.160 455.500,455.189 C 455.849,459.125 457.889,465.880 459.204,467.450 C 459.642,467.972 460,469.435 460,470.700 C 460,471.965 460.444,473 460.986,473 C 461.557,473 461.785,474.987 461.529,477.719 C 461.202,481.205 461.526,482.924 462.770,484.299 C 463.746,485.377 464.455,487.808 464.455,490.080 C 464.455,492.508 464.921,494 465.680,494 C 466.874,494 467.546,495.765 470.578,506.889 C 472.423,513.657 477.401,524.507 480.578,528.683 C 481.910,530.434 483,532.816 483,533.977 C 483,535.138 484.125,537.300 485.500,538.783 C 486.875,540.266 488,542.318 488,543.343 C 488,544.368 490.036,547.470 492.524,550.238 C 495.695,553.765 496.872,555.828 496.457,557.135 C 496.011,558.540 496.370,559 497.914,559 C 499.323,559 500.167,559.859 500.619,561.750 C 501.481,565.357 502.846,567 504.984,567 C 506.294,567 506.606,567.609 506.250,569.471 C 505.881,571.403 506.347,572.201 508.389,573.131 C 509.825,573.785 511,574.816 511,575.421 C 511,576.026 514.263,578.986 518.250,582 C 522.237,585.014 525.967,588.079 526.538,588.811 C 527.109,589.543 528.009,590.038 528.538,589.912 C 530.368,589.476 532.872,591.171 532.362,592.500 C 532.044,593.328 533.300,594.513 535.675,595.622 C 537.779,596.605 540.076,598.198 540.779,599.164 C 541.482,600.130 543.656,601.220 545.609,601.586 C 547.562,601.952 549.398,602.873 549.689,603.631 C 550.282,605.177 554.293,607.099 561,609.051 C 563.475,609.771 566.039,610.765 566.697,611.259 C 567.355,611.753 568.930,612.032 570.197,611.879 C 571.464,611.726 573.463,612.131 574.641,612.778 C 575.819,613.425 578.437,614.159 580.458,614.410 C 582.479,614.661 584.666,615.303 585.317,615.838 C 585.968,616.373 589.200,617.588 592.500,618.538 C 595.800,619.488 598.818,620.764 599.208,621.374 C 599.724,622.182 600.216,622.184 601.020,621.380 C 601.824,620.576 603.123,620.635 605.811,621.595 C 607.840,622.319 610.218,622.932 611.096,622.956 C 611.974,622.980 614.153,623.729 615.938,624.619 C 618.435,625.865 619.723,625.992 621.526,625.170 C 622.858,624.563 625.085,624.427 626.685,624.855 C 628.233,625.269 631.188,625.731 633.250,625.881 C 635.939,626.076 637,626.615 637,627.784 C 637,629.132 638.171,629.412 643.750,629.402 C 651.480,629.388 656.736,630.520 659.231,632.737 C 660.613,633.966 661.259,634.029 662.437,633.052 C 663.248,632.379 664.317,632.078 664.811,632.383 C 665.305,632.689 670.163,633.218 675.605,633.559 C 686.846,634.263 696.214,634.930 703.500,635.544 C 706.250,635.776 713.860,636.194 720.411,636.474 C 729.625,636.867 732.741,637.361 734.171,638.655 C 735.732,640.068 736.387,640.130 738.387,639.060 C 740.372,637.997 741.162,638.060 743.275,639.445 C 745.213,640.715 746.980,640.939 750.920,640.416 C 753.739,640.042 756.287,639.345 756.583,638.867 C 757.374,637.587 773,638.858 776.537,640.490 C 778.503,641.397 781.831,641.754 785.968,641.502 C 791.072,641.191 792.605,641.445 793.571,642.766 C 794.541,644.093 795.248,644.208 797.140,643.346 C 798.519,642.718 800.416,642.609 801.705,643.086 C 802.918,643.535 808.221,643.769 813.491,643.606 C 818.761,643.443 823.332,643.729 823.649,644.242 C 823.966,644.755 825.046,644.960 826.048,644.698 C 827.050,644.436 828.687,644.787 829.685,645.480 C 830.683,646.173 834.425,647.036 838,647.399 C 841.575,647.762 846.525,648.299 849,648.591 C 851.475,648.883 859.298,649.259 866.384,649.426 C 877.371,649.684 879.412,649.984 880.239,651.463 C 880.986,652.797 881.935,653.040 884.355,652.517 C 886.085,652.143 889.750,651.689 892.500,651.507 C 895.250,651.325 901.100,650.873 905.500,650.502 C 916.010,649.616 920.723,649.754 924.687,651.062 C 926.480,651.654 935.729,652.287 945.241,652.469 C 962.320,652.796 962.573,652.769 965.518,650.361 C 967.158,649.020 970.223,646.834 972.329,645.503 C 974.435,644.172 978.372,640.364 986,631 C 985.333,632.667 984.667,634.333 984,636 Z" fill="#906B47" stroke="none"/></g><g data-color-group="#3a2919" id="dark-orange"><path id="5" d="M 866.071,496.479 C 867.109,500.805 867.103,501.079 865.901,505.500 C 864.710,509.880 861.009,514.390 856.800,516.589 C 852.751,518.704 555.249,518.704 551.200,516.589 C 538.875,510.150 538.099,493.076 549.800,485.800 C 551.033,485.033 552.267,484.267 553.500,483.500 C 603.667,483.500 653.833,483.500 704,483.500 C 754.167,483.500 804.333,483.500 854.500,483.500 C 855.716,484.256 856.931,485.012 858.147,485.768 C 862.265,488.329 865.004,492.032 866.071,496.479 Z" fill="#3A2919" stroke="none"/><path id="5" d="M 749.123,312.001 C 750.444,308.688 753.809,305.169 757.485,303.258 C 765.409,299.138 817.104,296.020 847.240,297.845 C 878.404,299.733 888.212,301.182 893.197,304.635 C 903.739,311.938 903.103,328.479 892.080,333.688 C 888.264,335.491 888.244,335.532 887.749,342.500 C 886.574,359.034 876.834,372.141 860.752,378.832 C 852.453,382.285 839.376,382.428 831,379.160 C 815.456,373.094 804.685,358.561 803.276,341.751 C 803.087,339.501 802.899,337.250 802.710,335 C 801.175,335.005 799.640,335.011 798.105,335.016 C 795.572,335.025 788.484,335.448 782.353,335.955 C 763.355,337.527 753.446,334.673 749.574,326.514 C 747.820,322.817 747.602,315.816 749.123,312.001 Z" fill="#3A2919" stroke="none"/><path id="5" d="M 658.027,310.935 C 660.454,315.526 660.456,321.398 658.033,326.736 C 656.571,329.957 655.018,331.503 651.555,333.186 C 647.574,335.120 647,335.798 647,338.563 C 647,364.120 622.497,385.471 598.100,381.174 C 589.697,379.694 582.140,376.091 576.467,370.862 C 567.385,362.490 563.140,353.944 562.133,342 C 561.502,334.522 561.491,334.501 558.672,334.699 C 557.117,334.808 550.339,335.337 543.611,335.875 C 522.387,337.571 513.774,335.282 508.925,326.653 C 507.156,323.506 506.849,321.754 507.299,317.393 C 508.434,306.396 513.893,302.458 530.725,300.494 C 565.213,296.470 600.339,296.260 632.214,299.889 C 646.312,301.494 648.350,301.971 652.035,304.524 C 654.294,306.089 656.991,308.974 658.027,310.935 Z" fill="#3A2919" stroke="none"/></g><g data-color-group="#f9e4cb" id="pale-orange-2"><path id="7" d="M 838.857,162.512 C 839.527,159.469 842.374,157.974 844.139,159.739 C 845.403,161.003 844.127,164 842.326,164 C 840.797,164 841.302,167.512 843.109,169.446 C 844.316,170.739 846.849,167.136 846.275,164.942 C 846.028,163.998 846.305,162.929 846.892,162.566 C 848.103,161.818 846.487,158.323 844.027,156.370 C 842.734,155.344 842.733,154.868 844.013,152.477 C 844.815,150.979 845.477,149.020 845.485,148.126 C 845.496,146.916 846.461,146.500 849.251,146.500 C 852.489,146.500 853.002,146.189 853.001,144.219 C 853,141.638 855.577,140.177 857.225,141.825 C 858.012,142.612 857.959,143.345 857.035,144.458 C 855.936,145.783 856.135,146 858.445,146 C 860.521,146 861.026,145.601 860.660,144.250 C 858.849,137.569 858.910,137.192 862.050,135.625 C 864.637,134.335 865.184,134.315 865.640,135.503 C 866.335,137.313 865.274,139 863.441,139 C 862.507,139 862,140.055 862,142 C 862,145.652 863.279,145.879 864.818,142.500 C 865.444,141.125 866.594,140 867.372,140 C 869.208,140 870.140,137.540 868.809,136.209 C 867.540,134.940 868.598,133 870.559,133 C 872.652,133 872.324,131.244 870,130 C 868.900,129.411 868,128.496 868,127.965 C 868,126.307 870.609,126.905 873.608,129.250 C 875.191,130.488 876.629,131.275 876.803,131 C 876.977,130.725 877.340,132.839 877.610,135.698 C 878.079,140.667 877.969,140.965 875.100,142.448 C 873.450,143.301 871,144 869.657,144 C 865.584,144 865.530,146.822 869.589,147.583 C 871.524,147.946 872.921,148.744 872.716,149.369 C 872.236,150.831 864,151.481 864,150.057 C 864,147.858 859.939,149.030 859,151.500 C 858.477,152.875 857.567,154 856.977,154 C 855.833,154 851.085,158.992 851.032,160.250 C 851.015,160.663 851.562,161.010 852.250,161.022 C 852.938,161.034 854.619,161.905 855.987,162.956 C 856.816,163.593 857.646,164.230 858.475,164.867 C 857.729,165.876 856.983,166.884 856.237,167.893 C 853.727,171.287 853.392,173.016 855.250,172.969 C 856.862,172.928 860.016,168.594 860.925,165.168 C 861.521,162.923 862.259,162.453 865.585,162.204 C 868.890,161.956 870.015,162.407 872.456,164.954 C 875.921,168.570 877.061,168.792 876.738,165.784 C 876.533,163.873 877.326,163.333 882.500,161.864 C 885.800,160.927 888.667,160.124 888.872,160.080 C 890.083,159.820 886.427,157 884.878,157 C 883.845,157 883,156.415 883,155.700 C 883,152.411 888.518,150.582 889.638,153.500 C 890.287,155.191 893.556,155.527 894.500,154 C 896.479,150.797 903.724,156.120 902.703,160.026 C 902.120,162.255 904.935,165.973 907.250,166.032 C 909.272,166.083 911.650,168.323 912.489,170.965 C 912.918,172.317 914.558,174.712 916.134,176.288 C 917.710,177.864 919.013,179.682 919.030,180.327 C 919.047,180.972 919.525,180.703 920.092,179.729 C 921.284,177.682 923.016,178.332 922.967,180.809 C 922.928,182.791 919.645,187 918.139,187 C 917.567,187 916.740,186.391 916.300,185.646 C 914.515,182.624 907.841,180.830 906.493,183.011 C 906.149,183.567 907.251,185.405 908.941,187.095 C 912.831,190.985 912.022,192.412 906.368,191.637 C 903.965,191.308 902,191.257 902,191.523 C 902,191.789 902.900,193.687 904,195.739 C 905.100,197.791 906,200.663 906,202.119 C 906,203.926 906.635,204.933 908,205.290 C 910.304,205.892 910.726,210.473 908.718,213.084 C 907.209,215.047 902,216.495 902,214.952 C 902,214.284 901.134,214.135 899.750,214.567 C 896.265,215.654 894.591,219 897.531,219 C 898.373,219 899.353,219.788 899.708,220.750 C 900.063,221.712 900.819,222.810 901.387,223.189 C 902.042,223.626 901.737,224.632 900.555,225.939 C 898.949,227.714 898.912,228 900.286,228 C 901.164,228 902.160,227.550 902.500,227 C 902.840,226.450 904.190,226 905.500,226 C 906.810,226 908.212,225.466 908.615,224.813 C 909.072,224.073 909.473,224.556 909.679,226.095 C 909.954,228.150 909.558,228.600 907.311,228.786 C 904.792,228.994 903.051,230.422 903.015,232.309 C 903.007,232.754 903.419,232.859 903.931,232.543 C 904.443,232.227 905.176,232.475 905.559,233.095 C 906.617,234.807 903.884,236.129 900.346,235.615 C 897.794,235.245 897.089,235.550 896.655,237.211 C 896.233,238.826 895.625,239.114 893.809,238.563 C 890.152,237.453 882.558,237.221 881.912,238.201 C 881.589,238.692 879.789,238.334 877.912,237.405 C 876.035,236.476 872.836,234.880 870.802,233.858 C 868.768,232.836 865.982,232 864.611,232 C 861.551,232 860.413,230.412 862.056,228.432 C 863.492,226.702 863.581,226.817 858.765,224.133 C 856.711,222.988 854.433,222.281 853.702,222.561 C 852.971,222.841 851.545,222.154 850.532,221.035 C 849.519,219.916 847.860,219 846.845,219 C 845.534,219 845,218.262 845,216.452 C 845,215.019 843.906,212.891 842.500,211.588 C 840.419,209.659 840.006,208.368 840.032,203.885 C 840.072,197.124 843.367,192.552 847.459,193.579 C 849.527,194.098 850.144,193.751 850.960,191.605 C 851.505,190.172 852.411,189 852.975,189 C 853.539,189 854,188.065 854,186.921 C 854,185.118 853.589,184.931 850.918,185.518 C 846.489,186.491 842.625,182.816 843.450,178.416 C 843.908,175.972 843.510,174.782 841.588,172.860 C 838.779,170.051 837.916,166.783 838.857,162.512 Z" fill="#F9E4CB" stroke="none"/><path id="7" d="M 917.494,220.364 C 919.871,219.452 922.841,222.559 921.180,224.220 C 920.292,225.108 919.478,225.161 918.282,224.406 C 915.911,222.910 915.559,221.107 917.494,220.364 Z" fill="#F9E4CB" stroke="none"/></g></svg>