<svg xmlns="http://www.w3.org/2000/svg" viewBox="0 0 1024 1024"><g id="pale-orange" data-color-group="#f3cda7"><path id="206" fill="#f3cda7" stroke="none" d="M 170,406 C 171.366,391.663 172.264,382.325 172.875,376 C 173.486,369.675 174.144,358.270 174.337,350.655 C 174.542,342.585 175.120,336.537 175.724,336.155 C 176.294,335.795 177.743,330.550 178.943,324.500 C 182.145,308.362 185.983,294.312 189.051,287.500 C 190.537,284.200 192.095,280.393 192.511,279.040 C 192.927,277.687 195.751,272.062 198.787,266.540 C 201.823,261.018 204.800,255.595 205.403,254.489 C 207.572,250.512 222.509,232.388 227.947,227.135 C 235.280,220.051 250.666,207.711 255.583,204.970 C 257.737,203.769 259.950,202.434 260.500,202.003 C 262.709,200.272 278.995,192 280.204,191.994 C 280.917,191.991 282.803,191.308 284.395,190.478 C 285.987,189.648 291.837,187.572 297.395,185.866 C 302.953,184.160 307.927,182.367 308.450,181.882 C 308.972,181.397 311.222,181 313.450,181 C 318.546,181 332.956,178.281 334.455,177.037 C 335.074,176.524 339.738,175.790 344.821,175.406 C 349.904,175.022 354.294,174.334 354.577,173.875 C 354.860,173.416 355.886,173.536 356.856,174.142 C 358.147,174.948 362.488,174.897 373.059,173.951 C 381.001,173.240 398.525,172.597 412,172.522 C 425.475,172.447 441.575,172.136 447.777,171.832 C 453.979,171.528 459.294,171.667 459.586,172.140 C 460.311,173.314 486.735,173.238 487.463,172.060 C 487.791,171.529 492.063,171.313 497.272,171.563 C 502.347,171.807 539.800,172.201 580.500,172.438 C 648.563,172.835 655.543,173.032 667.500,174.894 C 674.650,176.007 683.875,177.133 688,177.395 C 696.006,177.903 704.007,179.346 710.500,181.453 C 712.700,182.167 716.975,183.545 720,184.515 C 723.025,185.485 725.927,186.667 726.450,187.140 C 726.972,187.613 728.633,188 730.141,188 C 731.649,188 733.160,188.450 733.500,189 C 733.840,189.550 735.171,190 736.458,190 C 738.486,190 748.855,194.933 765.990,204.049 C 770.439,206.416 778.500,212.553 790.131,222.429 C 792.768,224.668 796.293,227.547 797.963,228.826 C 799.633,230.105 801,231.948 801,232.921 C 801,233.894 801.955,235.547 803.122,236.595 C 804.289,237.643 807.274,241.200 809.756,244.500 C 812.238,247.800 815.171,251.298 816.274,252.274 C 817.377,253.250 818.404,255.050 818.555,256.274 C 818.706,257.498 820.893,262.089 823.415,266.476 C 825.937,270.863 828.033,275.138 828.073,275.976 C 828.182,278.240 831.602,283.533 832.792,283.279 C 833.360,283.158 834.280,284.283 834.837,285.779 C 839.616,298.628 840.239,301.127 840.504,308.500 C 840.818,317.212 841.536,320 843.468,320 C 844.208,320 844.981,321.946 845.355,324.750 C 845.704,327.362 846.709,333.775 847.590,339 C 849.572,350.759 849.981,357 848.767,357 C 848.209,357 848.112,362.472 848.525,370.750 C 849.037,381.022 849.582,384.795 850.680,385.665 C 852.568,387.161 852.871,406.843 851.024,407.985 C 849.337,409.028 850.226,435.904 851.983,436.990 C 853.632,438.009 853.756,456.644 852.125,458.275 C 850.465,459.935 850.581,487.903 852.250,488.542 C 853.938,489.189 853.650,508.513 851.921,510.596 C 851.009,511.695 850.873,516.146 851.382,528.282 C 852.606,557.483 852.879,611.014 851.930,635.750 C 851.620,643.833 851.310,651.917 851,660 C 850.333,654.667 849.667,649.333 849,644 C 848.827,639.966 848.654,635.931 848.481,631.897 C 848.196,625.240 847.558,617.928 847.063,615.647 C 846.568,613.366 846.318,610.205 846.508,608.621 C 846.698,607.037 846.455,604.696 845.969,603.419 C 845.483,602.141 844.854,596.777 844.571,591.498 C 844.288,586.219 843.767,581.432 843.415,580.862 C 843.063,580.292 842.624,570.411 842.441,558.905 C 842.258,547.399 841.812,537.503 841.448,536.915 C 841.084,536.327 840.594,518.443 840.360,497.173 C 839.728,439.874 838.636,398.234 837.508,388.500 C 837.189,385.750 836.739,381.025 836.508,378 C 835.751,368.098 833.901,352.650 833.369,351.789 C 833.083,351.326 832.630,348.029 832.363,344.465 C 832.096,340.901 831.473,335.850 830.980,333.242 C 829.512,325.484 824.586,308.401 823.383,306.897 C 822.768,306.129 821.278,302.606 820.071,299.068 C 818.864,295.530 817.110,291.480 816.174,290.068 C 815.238,288.656 812.249,283.738 809.532,279.140 C 803.003,268.091 796.528,261.770 790.032,260.105 C 787.306,259.406 784.582,259.141 783.978,259.514 C 783.374,259.887 781.531,259.634 779.884,258.952 C 776.058,257.367 774.269,258.766 775.995,261.991 C 777.050,263.963 776.716,264.647 772.838,268.442 C 767.541,273.626 765.104,276.972 765.045,279.143 C 765.020,280.047 764.278,281.063 763.396,281.401 C 762.514,281.740 762.019,282.608 762.296,283.330 C 762.573,284.052 761.989,285.151 760.997,285.770 C 759.979,286.405 758.881,288.740 758.478,291.128 C 758.085,293.456 756.917,296.868 755.882,298.711 C 754.847,300.554 754,302.752 754,303.597 C 754,305.330 749.576,311.691 746.717,314.068 C 745.483,315.094 744.947,316.607 745.166,318.448 C 745.430,320.671 744.581,322.178 741.119,325.630 C 737.193,329.546 736.797,330.362 737.306,333.499 C 737.780,336.423 737.576,337 736.060,337 C 733.827,337 731.815,339.266 732.399,341.123 C 732.806,342.418 731.477,344.349 728,347.513 C 726.755,348.646 726.717,349.233 727.774,350.964 C 728.893,352.796 728.723,353.352 726.378,355.525 C 724.909,356.886 723.336,358 722.880,358 C 722.424,358 721.346,359.365 720.483,361.033 C 719.620,362.701 718.490,363.803 717.971,363.482 C 717.452,363.161 715.446,363.371 710,365 C 701.862,363.660 693.650,361.621 686.500,359.605 C 675.858,356.604 671.052,355.808 660,355.211 C 652.575,354.810 643.013,354.824 638.750,355.241 C 636.167,355.494 633.583,355.747 631,356 C 627.307,356.521 623.614,357.041 619.921,357.562 C 607.786,359.273 591.526,363.747 583.305,367.636 C 575.637,371.263 574,374.318 574,385 C 575.945,390.043 578.719,393.180 581.500,395.307 C 583.167,396.582 584.833,397.857 586.500,399.132 C 590.223,399.006 593.947,398.881 597.670,398.755 C 603.969,398.542 609.438,397.882 610.210,397.241 C 611.931,395.813 618.645,394.047 626.750,392.891 C 628.833,392.594 630.917,392.297 633,392 C 633.583,392.028 634.167,392.055 634.750,392.083 C 635.713,392.129 642.508,391.904 649.851,391.584 C 663.828,390.975 673.189,392.445 674.334,395.428 C 674.616,396.164 677.470,397.531 680.674,398.466 C 683.878,399.401 687.281,400.579 688.236,401.083 C 689.191,401.587 690.628,402 691.429,402 C 694.535,402 699.947,406.212 701.164,409.577 C 701.845,411.460 702.709,413 703.084,413 C 703.459,413 704.028,413.788 704.347,414.750 C 704.666,415.712 705.594,418.270 706.409,420.434 C 708.027,424.732 707.603,426.745 705.455,424.962 C 704.703,424.338 703.656,424.095 703.128,424.421 C 702.600,424.747 700.927,424.542 699.411,423.966 C 697.895,423.390 695.946,423.229 695.078,423.608 C 692.212,424.861 688.717,423.860 679.785,419.226 C 672.757,415.580 670.704,414.899 669.727,415.890 C 668.756,416.875 668.814,417.386 670,418.337 C 674.116,421.637 677.453,432.436 675.688,436.745 C 673.555,441.952 668.570,448.880 666.580,449.400 C 664.027,450.068 665.195,451.212 669.832,452.588 C 673.421,453.653 673.338,453.690 666,454.278 C 661.875,454.609 647.807,455.362 634.737,455.952 C 606.360,457.232 596.016,458.514 594,461 C 593.750,460.977 593.500,460.955 593.250,460.932 C 592.838,460.894 590.740,461.232 588.590,461.682 C 587.287,461.955 585.984,462.227 584.681,462.500 C 584.544,465.167 584.406,467.833 584.269,470.500 C 583.338,488.600 589.174,502.650 604,518 C 605.750,519.172 607.500,520.344 609.250,521.516 C 612.138,523.450 616.862,525.925 625,529 C 626.115,529.670 627.231,530.339 628.346,531.009 C 630.543,532.328 634.749,533.322 640.596,533.904 C 643.564,534.199 646.532,534.495 649.500,534.790 C 645.667,534.866 641.833,534.942 638,535.018 C 628.484,535.207 626.759,535.469 628,536.537 C 630.529,538.712 636.828,540.793 643,541.491 C 646.812,541.922 651.673,543.394 653.728,544.741 C 655.063,545.616 656.984,545.970 658.431,545.607 C 659.776,545.269 661.157,545.444 661.498,545.996 C 661.839,546.548 662.879,547.015 663.809,547.034 C 664.739,547.053 667.300,547.937 669.500,549 C 671.700,550.063 673.993,550.947 674.595,550.966 C 675.197,550.985 676.505,551.900 677.500,553 C 678.495,554.100 679.867,555 680.548,555 C 681.229,555 682.003,555.567 682.269,556.260 C 682.535,556.953 684.845,558.079 687.402,558.763 C 690.666,559.636 692.311,560.688 692.922,562.294 C 693.400,563.552 694.466,565.142 695.290,565.826 C 696.283,566.650 696.697,568.491 696.519,571.285 C 696.370,573.617 696.873,576.504 697.645,577.746 C 699.377,580.534 698.469,584.644 695.978,585.295 C 694.468,585.690 694.123,586.772 694.110,591.140 C 694.089,598.016 693.038,605.174 691.830,606.672 C 691.226,607.421 691.310,608.523 692.063,609.730 C 693.024,611.269 692.897,611.960 691.371,613.484 C 689.357,615.495 689.324,615.625 688.675,624.252 C 688.437,627.415 687.685,630.675 687.003,631.496 C 686.321,632.317 686.023,633.982 686.340,635.194 C 686.677,636.481 686.157,638.667 685.089,640.449 C 684.083,642.127 683.213,645.247 683.156,647.382 C 683.099,649.517 682.140,653.146 681.026,655.447 C 679.912,657.748 678.985,660.277 678.968,661.066 C 678.931,662.730 675.230,666.999 672.429,668.607 C 671.368,669.216 670.338,670.542 670.139,671.553 C 669.940,672.564 668.721,675.066 667.429,677.113 C 665.635,679.955 664.596,680.707 663.033,680.298 C 661.549,679.910 660.033,680.804 657.521,683.547 C 654.502,686.843 653.414,687.362 649.080,687.574 C 642.982,687.872 642.250,688.291 642.250,691.482 C 642.250,693.383 641.729,694 640.125,694 C 638.945,694 638,694.638 638,695.436 C 638,696.336 636.786,696.970 634.750,697.134 C 632.292,697.332 631.829,697.136 632.853,696.326 C 633.929,695.475 633.963,694.798 633.018,693.033 C 631.836,690.824 631.816,690.823 629.664,692.763 C 626.011,696.055 621.334,697.931 620.015,696.632 C 619.158,695.788 618.565,695.881 617.683,697 C 617.033,697.825 615.375,699.075 614,699.779 C 613.167,700.205 612.333,700.633 611.500,701.059 C 610.586,700.633 609.672,700.205 608.758,699.779 C 606.290,698.627 606.015,698.687 606.008,700.372 C 606.002,701.710 605.643,701.974 604.750,701.294 C 604.062,700.771 601.496,700.286 599.048,700.216 C 595.350,700.111 593.883,700.675 590.380,703.545 C 586.212,706.960 580.852,708.188 579.520,706.033 C 578.826,704.910 572.794,705.869 571.886,707.246 C 571.548,707.758 571.715,709.150 572.256,710.339 C 573.060,712.105 572.835,712.741 571.024,713.818 C 569.126,714.947 568.535,714.889 566.904,713.413 C 565.792,712.407 565,712.171 565,712.845 C 565,713.480 563.677,714 562.059,714 C 560.441,714 558.840,714.450 558.500,715 C 557.542,716.549 551.394,716.180 549.990,714.488 C 548.564,712.770 546,714.162 546,716.654 C 546,719.065 543.181,719.287 540.395,717.096 C 538.930,715.943 536.660,715 535.352,715 C 534.044,715 532.127,714.471 531.092,713.825 C 529.772,713.001 528.210,712.938 525.855,713.613 C 521.834,714.766 521.418,716.618 525.271,716.212 C 527.690,715.957 528,716.259 528,718.872 C 528,721.718 527.841,721.817 523.407,721.750 C 520.457,721.705 518.624,721.183 518.281,720.289 C 517.710,718.800 512.576,719.366 510.339,721.164 C 509.604,721.755 508.929,721.694 508.500,721 C 508.019,720.221 507.450,720.212 506.538,720.969 C 505.832,721.555 504.522,721.753 503.627,721.410 C 502.675,721.045 502,721.290 502,722 C 502,722.668 501.340,722.961 500.533,722.651 C 499.726,722.341 496.795,722.763 494.019,723.587 C 490.299,724.692 488.047,724.831 485.458,724.116 C 482.335,723.254 481.659,723.432 479.372,725.719 C 477.598,727.493 476.574,727.929 476.076,727.123 C 475.530,726.239 474.519,726.271 471.927,727.253 C 469.708,728.094 463.668,728.543 454.794,728.526 C 442.496,728.503 440.944,728.305 439.696,726.599 C 438.664,725.188 438.108,725.017 437.540,725.936 C 437.119,726.617 437.320,727.697 437.987,728.337 C 438.773,729.091 438.859,729.852 438.230,730.500 C 437.589,731.160 436.535,730.650 435.130,729 C 433.104,726.621 432.933,726.588 431.595,728.312 C 430.647,729.533 428.480,730.251 424.950,730.514 C 422.069,730.728 418.427,731.187 416.856,731.532 C 415.091,731.920 414,731.746 414,731.079 C 414,730.485 413.325,730 412.500,730 C 411.675,730 411,730.498 411,731.108 C 411,731.784 410.047,731.978 408.561,731.605 C 407.220,731.268 405.855,731.425 405.529,731.953 C 405.203,732.481 404.210,732.634 403.323,732.294 C 402.419,731.947 401.224,732.336 400.605,733.177 C 398.890,735.507 393.144,736.646 389.191,735.440 C 387.350,734.878 386.768,735.174 386.318,736.893 C 385.892,738.523 384.778,739.172 381.762,739.551 C 379.567,739.827 376.811,740.566 375.639,741.193 C 374.467,741.820 371.176,742.437 368.326,742.563 C 365.476,742.689 362.594,743.133 361.922,743.548 C 361.250,743.963 359.115,744.445 357.178,744.619 C 355.241,744.793 352.046,745.708 350.078,746.653 C 346.504,748.369 340.372,749.574 330,750.601 C 326.975,750.900 324.073,751.563 323.550,752.073 C 323.028,752.583 321.367,753 319.859,753 C 318.351,753 316.840,753.450 316.500,754 C 316.160,754.550 314.585,755 313,755 C 311.415,755 309.840,755.451 309.499,756.002 C 309.154,756.560 307.243,756.747 305.190,756.423 C 303.161,756.103 300.320,756.293 298.877,756.847 C 297.096,757.530 295.922,757.522 295.220,756.820 C 294.508,756.108 293.866,756.381 293.161,757.699 C 292.039,759.795 283.687,761.551 270.046,762.560 C 263.115,763.072 262.467,762.950 260.803,760.806 C 260.206,760.037 259.610,759.269 259.013,758.500 C 258.798,759.279 258.582,760.059 258.367,760.838 C 257.769,763.003 257.205,763.176 250.765,763.176 C 243.943,763.176 243.823,763.131 244.504,760.838 C 245.187,758.540 245.147,758.526 242.179,760 C 240.518,760.825 239.001,762.095 238.806,762.822 C 238.544,763.803 237.772,763.609 235.818,762.072 C 232.599,759.540 231.002,759.433 230.992,761.750 C 230.985,763.272 230.650,763.345 228.411,762.306 C 226.717,761.520 225.022,761.421 223.454,762.017 C 221.924,762.599 220.843,762.555 220.434,761.894 C 220.084,761.328 219.176,761.102 218.415,761.394 C 217.654,761.686 215.787,761.303 214.266,760.542 C 205.616,756.217 202.907,755.698 201,758 C 197.917,754.917 198.155,756.107 200.250,761.250 C 201.167,763.500 202.083,765.750 203,768 C 199.651,766.122 190.522,746.510 185.512,730.431 C 178.589,708.212 177.428,702.047 173.563,667 C 172.805,660.125 171.917,641 171.589,624.500 C 170.808,585.153 170.817,440.337 171.602,422.823 C 172.020,413.497 171.863,408.646 171.108,407.573 C 170.739,407.049 170.369,406.524 170,406 ZM 398,357 C 391.417,356.970 384.833,356.939 378.250,356.909 C 363.253,356.840 356.695,357.217 351,358.477 C 321.148,365.084 288.013,382.623 282,395 C 282.333,396.667 282.667,398.333 283,400 C 283.520,401.107 284.041,402.213 284.561,403.320 C 286.657,407.779 290.060,409.589 299,411 C 299.305,411.169 299.611,411.338 299.916,411.507 C 301.460,412.362 306.087,410.137 315.700,403.916 C 326.841,396.707 344.682,389.579 358.500,386.818 C 365.636,385.392 372.653,384.807 383,384.777 C 400.198,384.727 412.967,386.639 425,391.067 C 430.533,393.103 436.174,394.383 441.159,394.734 C 448.414,395.245 448.954,395.137 451.409,392.682 C 455.061,389.030 454.863,382.891 451,380 C 450.810,379.083 450.619,378.167 450.429,377.250 C 448.582,368.360 430.098,361.221 398,357 ZM 347,460 C 346.750,459.976 346.500,459.951 346.250,459.927 C 345.837,459.887 342.462,460.562 332,463 C 332,466.097 332,469.193 332,472.290 C 332,489.129 337.814,504.068 348.427,514.500 C 355.843,521.789 363.728,526.092 375,529 C 379,529.667 383,530.333 387,531 C 387.270,531.337 387.540,531.673 387.810,532.010 C 388.340,532.671 392.077,532.727 398.643,532.172 C 407.779,531.399 409.348,530.948 416.359,527.078 C 422.111,523.903 425.589,521.046 430.146,515.751 C 433.498,511.856 436.827,507.265 437.544,505.548 C 439.371,501.175 442.666,487.539 443.450,481.105 C 443.812,478.138 444.984,473.993 446.054,471.895 C 447.399,469.259 447.984,466.136 447.946,461.790 C 447.898,456.192 447.261,454.236 442.156,444.006 C 436.512,432.695 433.667,429.674 432.430,433.676 C 431.590,436.395 427.164,445.269 425.742,447.087 C 425.059,447.960 423.440,449.238 422.143,449.929 C 419.069,451.567 420.607,453.158 425.396,453.294 C 427.378,453.350 429,453.850 429,454.404 C 429,455.044 419.964,455.550 404.250,455.789 C 368.299,456.337 348.771,457.773 347,460 ZM 652,640 C 652.250,639.986 652.500,639.972 652.750,639.958 C 653.162,639.935 652.548,638.420 651.385,636.592 C 649.970,634.369 647.653,632.645 644.385,631.384 C 639.683,629.570 634.720,629.507 512.320,629.665 C 419.249,629.785 383.620,630.145 379.472,631.006 C 373.032,632.343 366.964,637.047 364,643 C 364,644.677 364,646.355 364,648.032 C 364,656.748 365.949,659.400 375,663 C 376.750,663.504 378.500,664.009 380.250,664.513 C 384.838,665.836 401.768,665.993 514.500,665.763 C 639.413,665.508 643.623,665.439 647.368,663.580 C 655.430,659.578 657.248,650.323 652,640 ZM 426.500,524 C 426.225,524 426,524.225 426,524.500 C 426,524.775 426.225,525 426.500,525 C 426.775,525 427,524.775 427,524.500 C 427,524.225 426.775,524 426.500,524 ZM 437.476,511.352 C 433.828,516.916 433.433,518 435.048,518 C 436.889,518 440.945,512.849 442.045,509.114 C 444.732,499.990 449,482.320 449,480.316 C 449,479.094 449.528,476.936 450.173,475.520 C 450.981,473.747 451.024,472.624 450.312,471.912 C 448.965,470.565 445.430,478.173 445.160,483 C 444.655,492.050 440.796,506.288 437.476,511.352 Z"/></g><g id="orange" data-color-group="#cd9870"><path id="22" fill="#cd9870" stroke="none" d="M 286,836 C 254.293,824.259 225.512,802.166 208.717,776.676 C 206.811,773.784 204.906,770.892 203,768 C 202.083,765.750 201.167,763.500 200.250,761.250 C 198.155,756.107 197.917,754.917 201,758 C 201,758.454 201,758.909 201,759.363 C 201,761.097 212.127,777.901 214.994,780.495 C 217.142,782.439 217.161,782.437 218.918,780.108 C 219.506,779.328 220.096,778.548 220.684,777.768 C 223.065,778.310 225.446,778.851 227.827,779.393 C 231.756,780.287 236.889,780.959 239.235,780.887 C 241.581,780.815 248.791,781.291 255.258,781.945 C 264.337,782.863 268.780,782.864 274.758,781.947 C 279.016,781.294 289.407,780.796 297.850,780.840 C 308.313,780.895 314.445,780.493 317.111,779.574 C 319.276,778.828 321.267,778.622 321.570,779.113 C 322.287,780.273 329.718,780.264 330.436,779.103 C 330.741,778.610 333.292,778.363 336.105,778.554 C 339.355,778.775 342.004,778.388 343.370,777.493 C 344.634,776.665 348.516,776.009 352.788,775.901 C 356.786,775.800 360.312,775.303 360.625,774.797 C 361.700,773.058 366.510,771.766 373.500,771.339 C 377.350,771.104 381.043,770.728 381.706,770.504 C 382.369,770.280 385.649,770.538 388.995,771.077 C 394.023,771.887 395.683,771.770 398.561,770.404 C 401.002,769.246 403.267,768.947 406.134,769.405 C 408.681,769.812 410.745,769.627 411.606,768.912 C 412.367,768.281 413.964,768.019 415.156,768.331 C 416.348,768.643 418.123,768.469 419.101,767.946 C 420.207,767.354 421.098,767.350 421.459,767.934 C 421.821,768.520 424.009,768.520 427.270,767.935 C 430.147,767.419 438.125,766.804 445,766.568 C 459.788,766.061 460.125,766.023 461.792,764.706 C 462.683,764.002 463.444,764.044 464.242,764.842 C 465.581,766.181 469.899,766.350 471.809,765.139 C 472.529,764.682 474.883,764.780 477.040,765.356 C 479.791,766.090 482.526,766.083 486.200,765.330 C 489.987,764.554 491.929,764.563 493.208,765.362 C 494.574,766.215 495.756,766.047 498.390,764.629 C 501.168,763.133 503.213,762.892 509.387,763.332 C 514.667,763.708 517.204,763.512 517.736,762.686 C 518.530,761.453 520.004,761.336 541.500,760.815 C 553.876,760.515 554.547,760.392 555.487,758.250 C 556.615,755.680 560.474,755.187 561.362,757.500 C 561.679,758.325 562.739,759.014 563.719,759.032 C 564.699,759.050 566.353,759.710 567.397,760.500 C 569.848,762.355 571.163,761.500 570.419,758.535 C 569.891,756.431 570.171,756.192 573.166,756.183 C 575,756.177 578.975,755.871 582,755.503 C 587.908,754.784 592.758,754.684 597.423,755.186 C 600.013,755.465 600.449,755.106 601.257,752.036 C 601.561,750.881 601.864,749.727 602.168,748.572 C 602.748,749.341 603.328,750.109 603.908,750.878 C 604.488,751.647 605.068,752.416 605.648,753.185 C 606.233,752.293 606.817,751.401 607.402,750.509 C 608.936,748.167 609.303,748.027 610.328,749.393 C 610.973,750.252 613.070,751.077 614.989,751.227 C 617.698,751.439 618.682,751.042 619.389,749.453 C 620.344,747.307 624.307,744.984 626.949,745.022 C 628.032,745.038 627.745,745.625 626,746.968 C 624.035,748.480 623.761,749.154 624.717,750.113 C 626.318,751.719 636.596,749.543 637.831,747.337 C 638.300,746.498 640.218,745.500 642.092,745.119 C 644.585,744.612 645.586,743.828 645.821,742.198 C 645.998,740.973 646.564,740.230 647.078,740.548 C 647.592,740.866 649.317,740.198 650.911,739.063 C 652.505,737.928 654.557,737 655.471,737 C 657.790,737 664.026,732.060 665.026,729.431 C 665.642,727.811 666.468,727.367 668.235,727.705 C 671.645,728.357 677.750,724.405 679.946,720.126 C 680.969,718.132 684.557,714.250 687.918,711.500 C 691.566,708.515 694.943,704.686 696.294,702 C 697.539,699.525 699.908,695.475 701.559,693 C 703.210,690.525 705.213,687.150 706.010,685.500 C 706.807,683.850 708.408,681.150 709.567,679.500 C 710.726,677.850 712.394,674.918 713.273,672.985 C 714.152,671.052 716.024,668.386 717.435,667.061 C 718.846,665.736 720,663.596 720,662.306 C 720,661.016 721.125,658.178 722.500,656 C 723.875,653.822 725,651.221 725,650.220 C 725,649.219 725.559,647.841 726.243,647.157 C 727.233,646.167 727.071,645.466 725.443,643.707 C 723.109,641.185 723.287,640 726,640 C 728.522,640 729.458,638.258 727.928,636.414 C 726.986,635.279 726.965,634.635 727.842,633.758 C 728.479,633.121 729,631.790 729,630.800 C 729,629.810 729.667,629 730.483,629 C 731.888,629 732.550,626.056 734.414,611.500 C 734.625,609.850 735.107,607.538 735.486,606.363 C 735.864,605.188 735.745,603.961 735.221,603.637 C 734.166,602.985 734.784,598.251 736.024,597.485 C 736.456,597.218 736.568,595.204 736.274,593.009 C 735.942,590.537 736.216,588.445 736.992,587.510 C 737.953,586.351 737.972,585.671 737.073,584.588 C 736.168,583.498 736.279,582.021 737.562,578.100 C 738.475,575.308 738.908,572.230 738.524,571.261 C 738.139,570.292 737.616,567.195 737.361,564.377 C 736.998,560.372 737.235,559.123 738.448,558.658 C 740.597,557.833 740.530,551.395 738.360,550.181 C 736.146,548.942 737.527,547 740.622,547 C 742.450,547 743.048,546.527 742.838,545.250 C 742.680,544.287 742.915,542.918 743.361,542.206 C 743.827,541.462 743.630,540.259 742.896,539.375 C 741.879,538.150 741.871,537.436 742.855,535.861 C 743.849,534.269 743.811,533.328 742.662,531.025 C 741.674,529.045 741.555,527.845 742.275,527.125 C 742.995,526.405 742.973,525.673 742.204,524.746 C 740.746,522.990 741.289,504.508 742.915,500.512 C 744.003,497.838 743.899,497.336 741.924,495.737 C 739.778,493.999 739.967,492.500 742.333,492.500 C 743,492.500 743.500,491 743.500,489 C 743.500,487.075 744.087,485.038 744.805,484.473 C 745.794,483.695 745.880,482.420 745.160,479.217 C 744.546,476.483 744.557,474.774 745.191,474.382 C 745.730,474.049 746.022,471.193 745.840,468.036 C 745.651,464.755 745.993,461.697 746.639,460.898 C 747.972,459.248 748.232,448.262 746.956,447.473 C 746.466,447.170 746.559,445.868 747.164,444.540 C 748.044,442.609 747.826,441.272 746.029,437.559 C 744.806,435.033 742.949,432.508 741.903,431.948 C 740.857,431.388 740,430.237 740,429.391 C 740,426.934 728.409,416.289 724.256,414.931 C 720.826,413.810 716.669,411.168 705.500,403.009 C 702.004,400.455 690.654,396.011 687.582,395.994 C 686.987,395.991 685.375,395.413 684,394.711 C 670.499,387.819 631.717,385.758 633,392 C 630.917,392.297 628.833,392.594 626.750,392.891 C 618.645,394.047 611.931,395.813 610.210,397.241 C 609.438,397.882 603.969,398.542 597.670,398.755 C 593.947,398.881 590.223,399.006 586.500,399.132 C 584.833,397.857 583.167,396.582 581.500,395.307 C 578.719,393.180 575.945,390.043 574,385 C 574.333,385.333 574.667,385.667 575,386 C 575.878,387.017 576.756,388.035 577.634,389.052 C 579.082,390.730 581.557,392.305 586,393 C 587.417,393.193 588.833,393.387 590.250,393.580 C 593.540,394.029 596.905,393.354 605.147,390.596 C 615.009,387.295 631.919,384 638.993,384 C 640.647,384 642,383.550 642,382 C 645.083,382.174 648.167,382.347 651.250,382.521 C 663.285,383.198 674.081,385.400 686.407,389.690 C 698.198,393.794 704.480,396.869 716.535,404.438 C 721.822,407.758 727.016,410.246 733,411 C 735.250,411.089 737.500,411.177 739.750,411.266 C 750.158,411.677 750.474,410.236 742,401 C 741.871,399.475 741.743,397.949 741.614,396.424 C 741.135,390.746 738.474,387.780 727.596,380.802 C 709.455,369.165 686.135,360.491 665.097,357.557 C 658.956,356.700 648.772,356 631,356 C 633.583,355.747 636.167,355.494 638.750,355.241 C 643.013,354.824 652.575,354.810 660,355.211 C 671.052,355.808 675.858,356.604 686.500,359.605 C 693.650,361.621 701.862,363.660 710,365 C 710.151,365.486 710.302,365.973 710.453,366.459 C 710.702,367.262 713.290,369.126 716.203,370.602 C 719.116,372.078 724.249,375.022 727.608,377.143 C 730.967,379.264 734.975,381 736.514,381 C 738.053,381 740.802,382.137 742.624,383.527 C 746.765,386.686 749.599,386.130 753.356,381.421 C 757.428,376.317 759.288,371.183 758.687,366.704 C 758.286,363.717 758.599,362.468 760.057,361.219 C 761.309,360.147 762.168,357.640 762.605,353.779 C 762.967,350.576 763.654,347.714 764.132,347.419 C 764.610,347.124 765,346.009 765,344.941 C 765,343.873 765.450,343 766,343 C 766.550,343 767,341.702 767,340.115 C 767,338.183 767.783,336.717 769.372,335.676 C 771.909,334.013 773.446,329.118 771.923,327.550 C 770.374,325.956 770.892,323.262 772.846,322.751 C 776.516,321.791 781.048,308.217 778.800,304.918 C 777.963,303.689 778.218,302.875 779.947,301.264 C 781.834,299.506 781.994,298.858 781,297 C 780.011,295.153 780.138,294.591 781.810,293.420 C 782.915,292.646 784.319,289.839 784.981,287.080 C 785.751,283.869 786.606,282.296 787.412,282.605 C 788.096,282.867 789.801,282.646 791.201,282.114 C 792.874,281.478 794.092,281.492 794.755,282.155 C 795.434,282.834 796.407,282.763 797.728,281.938 C 799.445,280.865 799.769,281.010 800.313,283.089 C 800.788,284.907 801.210,285.190 802.107,284.293 C 803.648,282.752 810.644,291.027 812.004,296 C 812.530,297.925 813.877,301.199 814.996,303.276 C 820.072,312.694 827.815,341.856 826.413,346.275 C 826.095,347.276 826.279,348.637 826.822,349.298 C 827.841,350.540 828.187,353.452 829.933,375.500 C 832.241,404.636 833.848,453.022 832.773,461 C 832.662,461.825 832.910,466.775 833.325,472 C 833.740,477.225 834.339,496.125 834.656,514 C 835.795,578.127 837.958,612.195 842.109,631.407 C 843.340,637.103 844.293,646.478 844.663,656.500 C 844.987,665.300 845.409,672.675 845.599,672.889 C 846.866,674.315 847.930,665.275 849,644 C 849.667,649.333 850.333,654.667 851,660 C 845.437,710.867 840.829,730.012 828.071,755.263 C 824.246,762.833 818.289,772.958 814.832,777.763 C 801.588,796.173 780.171,815.268 763.057,823.924 C 760.371,825.283 757.686,826.641 755,828 C 756.966,826.583 758.932,825.167 760.898,823.750 C 764.142,821.412 769.654,817.925 773.148,816 C 780.794,811.787 798.819,793.912 808.946,780.500 C 812.684,775.550 819.237,765.062 823.509,757.194 C 831.949,741.649 832.078,741.156 833.596,718.500 C 833.928,713.550 834.679,708.913 835.267,708.196 C 836.590,706.581 836.716,688.218 835.502,674 C 835.009,668.225 834.610,660.912 834.615,657.750 C 834.620,654.588 834.260,652 833.813,652 C 832.628,652 832.817,642.210 834.046,639.914 C 834.621,638.839 834.767,637.432 834.370,636.789 C 833.973,636.146 833.520,633.568 833.364,631.060 C 833.208,628.552 832.801,623.800 832.460,620.500 C 832.119,617.200 831.867,612.700 831.898,610.500 C 831.929,608.300 831.528,604.025 831.006,601 C 830.484,597.975 829.804,586.500 829.496,575.500 C 829.188,564.500 828.712,552.125 828.440,548 C 828.168,543.875 827.704,526.325 827.408,509 C 826.676,466.097 826.284,455.265 825.272,450 C 824.796,447.525 824.531,442.125 824.681,438 C 824.831,433.875 824.971,429.825 824.992,429 C 825.028,427.584 824.468,423.415 821.928,406.193 C 821.109,400.638 821.138,398.539 822.050,397.440 C 823.536,395.649 822.591,390.311 820.350,387.834 C 819.004,386.346 818.947,385.769 820.020,384.476 C 821.001,383.294 821.035,382.635 820.158,381.758 C 819.521,381.121 819.001,378.778 819.002,376.550 C 819.003,374.323 818.392,371.825 817.644,371 C 816.467,369.702 816.297,369.904 816.383,372.500 C 816.474,375.252 816.334,375.383 814.684,374.080 C 813.084,372.817 812.590,372.955 810.207,375.338 C 807.901,377.644 807.701,378.292 808.765,379.995 C 810.418,382.642 810.321,385.049 808.408,388.883 C 807.113,391.479 807.053,392.358 808.083,393.600 C 809.138,394.871 809.029,395.189 807.425,395.507 C 805.956,395.798 805.715,396.291 806.411,397.590 C 807.032,398.750 806.873,399.713 805.911,400.618 C 801.684,404.593 801.545,404.993 803.830,406.594 C 806.547,408.497 806.631,411.022 804,411.710 C 801.439,412.380 801.178,416.845 803.712,416.639 C 806.225,416.435 806.387,419.283 804.142,424.179 C 802.791,427.127 802.479,428.873 803.159,429.692 C 804.710,431.561 805.567,450 804.103,450 C 803.448,450 803.020,450.562 803.152,451.250 C 803.284,451.938 803.041,453.534 802.613,454.798 C 802.131,456.221 802.294,457.649 803.040,458.548 C 803.968,459.666 803.973,460.327 803.063,461.424 C 802.329,462.308 802.133,464.190 802.545,466.387 C 803.040,469.023 802.700,470.764 801.214,473.213 C 799.863,475.438 799.382,477.552 799.724,479.759 C 800.005,481.570 799.699,483.657 799.036,484.456 C 798.380,485.247 797.988,487 798.165,488.350 C 798.346,489.732 797.671,491.706 796.622,492.865 C 794.523,495.185 795.072,498 797.624,498 C 799.163,498 799.151,498.175 797.494,500.006 C 796.495,501.109 795.935,502.268 796.248,502.581 C 796.561,502.894 796.446,504.443 795.993,506.023 C 795.402,508.083 795.567,509.226 796.575,510.062 C 797.456,510.793 797.751,512.143 797.366,513.677 C 796.987,515.189 797.456,517.432 798.593,519.543 C 800.383,522.867 800.383,523 798.576,524.321 C 797.079,525.416 796.854,526.407 797.418,529.416 C 797.843,531.683 797.691,533.668 797.030,534.464 C 796.242,535.414 796.264,536.487 797.112,538.347 C 798.016,540.330 797.998,541.936 797.034,545.379 C 796.347,547.833 796.005,550.215 796.275,550.671 C 796.545,551.127 796.279,552.625 795.684,554 C 795.038,555.493 794.581,564.322 794.551,575.917 C 794.513,590.276 794.182,595.439 793.279,595.740 C 792.437,596.021 792.246,597.515 792.663,600.560 C 793.052,603.396 792.832,605.497 792.048,606.442 C 791.377,607.251 791.099,608.351 791.430,608.887 C 791.761,609.423 791.602,610.128 791.076,610.453 C 790.513,610.801 790.814,612.290 791.809,614.072 C 793.428,616.970 793.415,617.162 791.511,618.584 C 790.417,619.401 789.517,620.744 789.511,621.568 C 789.505,622.392 788.837,623.478 788.026,623.981 C 786.782,624.752 786.914,625.279 788.867,627.358 C 791.700,630.373 791.331,633.214 788.005,633.999 C 786.246,634.414 785.898,634.819 786.814,635.385 C 787.849,636.025 787.785,636.679 786.491,638.654 C 785.601,640.012 785.008,642.158 785.174,643.423 C 785.340,644.688 784.847,646.479 784.079,647.404 C 783.311,648.329 782.567,651.370 782.424,654.161 C 782.281,656.952 781.677,659.723 781.082,660.318 C 780.487,660.913 780,662.347 780,663.504 C 780,666.050 775.176,676 773.942,676 C 773.458,676 773.304,676.628 773.598,677.395 C 774.421,679.540 772.167,686.722 770.466,687.375 C 769.489,687.750 769.111,688.828 769.400,690.419 C 769.654,691.822 769.234,693.391 768.423,694.064 C 767.640,694.714 767,696.764 767,698.622 C 767,700.613 766.216,702.784 765.091,703.909 C 764.041,704.959 763.024,706.641 762.830,707.646 C 762.636,708.651 761.064,710.380 759.336,711.487 C 757.476,712.679 755.954,714.655 755.606,716.331 C 755.283,717.888 754.114,720.311 753.009,721.716 C 751.904,723.121 751,724.849 751,725.558 C 751,726.267 749.504,728.806 747.676,731.201 C 745.848,733.596 744.523,736.068 744.731,736.693 C 744.939,737.318 744.208,738.116 743.106,738.466 C 742.004,738.816 740.824,739.979 740.484,741.051 C 740.144,742.123 739.302,743 738.612,743 C 737.922,743 735.140,745.137 732.429,747.749 C 729.718,750.361 726.150,753.415 724.500,754.538 C 722.850,755.661 721.488,757.237 721.473,758.040 C 721.456,758.948 720.605,759.410 719.223,759.262 C 717.836,759.113 717,759.571 717,760.477 C 717,762.082 713.650,764.240 710.417,764.717 C 709.271,764.886 706.809,766.385 704.946,768.048 C 703.083,769.711 699.221,771.752 696.363,772.583 C 693.505,773.414 690.624,774.748 689.961,775.547 C 689.298,776.346 688.023,777.007 687.128,777.015 C 686.233,777.023 684.503,777.586 683.286,778.265 C 675.013,782.882 669.551,785.099 663,786.500 C 658.875,787.382 653.731,789.042 651.568,790.187 C 649.405,791.332 645.657,792.353 643.238,792.455 C 640.819,792.557 638.472,793.237 638.020,793.968 C 637.569,794.699 635.016,795.451 632.349,795.640 C 629.682,795.829 626.150,796.152 624.500,796.358 C 622.850,796.564 621.001,796.340 620.391,795.861 C 619.708,795.325 618.272,795.785 616.651,797.060 C 614.534,798.725 612.206,799.210 604.759,799.536 C 588.784,800.235 551.183,801.206 534.250,801.356 C 525.312,801.435 518,801.748 518,802.052 C 518,802.593 508.425,803.005 494.500,803.062 C 490.650,803.078 484.232,803.791 480.239,804.648 C 476.246,805.505 472.196,805.863 471.239,805.445 C 470.282,805.027 468.904,804.783 468.176,804.903 C 467.448,805.023 466.241,804.615 465.494,803.995 C 464.591,803.246 463.024,803.160 460.818,803.738 C 458.993,804.216 447.908,804.561 436.185,804.504 C 424.462,804.447 414.666,804.732 414.417,805.135 C 414.168,805.539 412.400,805.615 410.490,805.305 C 408.580,804.995 406.435,805.224 405.724,805.814 C 404.872,806.521 403.099,806.586 400.521,806.005 C 398.370,805.520 396.135,805.423 395.555,805.791 C 394.975,806.159 391.800,806.568 388.500,806.701 C 385.200,806.834 378.675,807.125 374,807.349 C 369.325,807.573 358.300,808.089 349.500,808.495 C 340.700,808.901 332.375,809.452 331,809.720 C 327.613,810.380 288.029,810.491 269.500,809.892 C 253.704,809.382 248.906,809.774 248.290,811.627 C 247.587,813.741 272.205,828.088 282.981,831.844 C 284.641,832.423 286,833.594 286,836 Z"/></g><g id="orange-2" fill="#b67f5b" stroke="none" data-color-group="#b67f5b"><path id="493" d="M 755,828 C 728.999,840.508 709.853,845.771 674.500,850.130 C 656.941,852.295 653.351,852.359 528,852.758 C 375.392,853.243 358.946,852.701 323.500,846.018 C 315.250,844.462 303.438,841.572 297.250,839.595 C 293.500,838.397 289.750,837.198 286,836 C 286,833.594 284.641,832.423 282.981,831.844 C 272.205,828.088 247.587,813.741 248.290,811.627 C 248.906,809.774 253.704,809.382 269.500,809.892 C 288.029,810.491 327.613,810.380 331,809.720 C 332.375,809.452 340.700,808.901 349.500,808.495 C 358.300,808.089 369.325,807.573 374,807.349 C 378.675,807.125 385.200,806.834 388.500,806.701 C 391.800,806.568 394.975,806.159 395.555,805.791 C 396.135,805.423 398.370,805.520 400.521,806.005 C 403.099,806.586 404.872,806.521 405.724,805.814 C 406.435,805.224 408.580,804.995 410.490,805.305 C 412.400,805.615 414.168,805.539 414.417,805.135 C 414.666,804.732 424.462,804.447 436.185,804.504 C 447.908,804.561 458.993,804.216 460.818,803.738 C 463.024,803.160 464.591,803.246 465.494,803.995 C 466.241,804.615 467.448,805.023 468.176,804.903 C 468.904,804.783 470.282,805.027 471.239,805.445 C 472.196,805.863 476.246,805.505 480.239,804.648 C 484.232,803.791 490.650,803.078 494.500,803.062 C 508.425,803.005 518,802.593 518,802.052 C 518,801.748 525.312,801.435 534.250,801.356 C 551.183,801.206 588.784,800.235 604.759,799.536 C 612.206,799.210 614.534,798.725 616.651,797.060 C 618.272,795.785 619.708,795.325 620.391,795.861 C 621.001,796.340 622.850,796.564 624.500,796.358 C 626.150,796.152 629.682,795.829 632.349,795.640 C 635.016,795.451 637.569,794.699 638.020,793.968 C 638.472,793.237 640.819,792.557 643.238,792.455 C 645.657,792.353 649.405,791.332 651.568,790.187 C 653.731,789.042 658.875,787.382 663,786.500 C 669.551,785.099 675.013,782.882 683.286,778.265 C 684.503,777.586 686.233,777.023 687.128,777.015 C 688.023,777.007 689.298,776.346 689.961,775.547 C 690.624,774.748 693.505,773.414 696.363,772.583 C 699.221,771.752 703.083,769.711 704.946,768.048 C 706.809,766.385 709.271,764.886 710.417,764.717 C 713.650,764.240 717,762.082 717,760.477 C 717,759.571 717.836,759.113 719.223,759.262 C 720.605,759.410 721.456,758.948 721.473,758.040 C 721.488,757.237 722.850,755.661 724.500,754.538 C 726.150,753.415 729.718,750.361 732.429,747.749 C 735.140,745.137 737.922,743 738.612,743 C 739.302,743 740.144,742.123 740.484,741.051 C 740.824,739.979 742.004,738.816 743.106,738.466 C 744.208,738.116 744.939,737.318 744.731,736.693 C 744.523,736.068 745.848,733.596 747.676,731.201 C 749.504,728.806 751,726.267 751,725.558 C 751,724.849 751.904,723.121 753.009,721.716 C 754.114,720.311 755.283,717.888 755.606,716.331 C 755.954,714.655 757.476,712.679 759.336,711.487 C 761.064,710.380 762.636,708.651 762.830,707.646 C 763.024,706.641 764.041,704.959 765.091,703.909 C 766.216,702.784 767,700.613 767,698.622 C 767,696.764 767.640,694.714 768.423,694.064 C 769.234,693.391 769.654,691.822 769.400,690.419 C 769.111,688.828 769.489,687.750 770.466,687.375 C 772.167,686.722 774.421,679.540 773.598,677.395 C 773.304,676.628 773.458,676 773.942,676 C 775.176,676 780,666.050 780,663.504 C 780,662.347 780.487,660.913 781.082,660.318 C 781.677,659.723 782.281,656.952 782.424,654.161 C 782.567,651.370 783.311,648.329 784.079,647.404 C 784.847,646.479 785.340,644.688 785.174,643.423 C 785.008,642.158 785.601,640.012 786.491,638.654 C 787.785,636.679 787.849,636.025 786.814,635.385 C 785.898,634.819 786.246,634.414 788.005,633.999 C 791.331,633.214 791.700,630.373 788.867,627.358 C 786.914,625.279 786.782,624.752 788.026,623.981 C 788.837,623.478 789.505,622.392 789.511,621.568 C 789.517,620.744 790.417,619.401 791.511,618.584 C 793.415,617.162 793.428,616.970 791.809,614.072 C 790.814,612.290 790.513,610.801 791.076,610.453 C 791.602,610.128 791.761,609.423 791.430,608.887 C 791.099,608.351 791.377,607.251 792.048,606.442 C 792.832,605.497 793.052,603.396 792.663,600.560 C 792.246,597.515 792.437,596.021 793.279,595.740 C 794.182,595.439 794.513,590.276 794.551,575.917 C 794.581,564.322 795.038,555.493 795.684,554 C 796.279,552.625 796.545,551.127 796.275,550.671 C 796.005,550.215 796.347,547.833 797.034,545.379 C 797.998,541.936 798.016,540.330 797.112,538.347 C 796.264,536.487 796.242,535.414 797.030,534.464 C 797.691,533.668 797.843,531.683 797.418,529.416 C 796.854,526.407 797.079,525.416 798.576,524.321 C 800.383,523 800.383,522.867 798.593,519.543 C 797.456,517.432 796.987,515.189 797.366,513.677 C 797.751,512.143 797.456,510.793 796.575,510.062 C 795.567,509.226 795.402,508.083 795.993,506.023 C 796.446,504.443 796.561,502.894 796.248,502.581 C 795.935,502.268 796.495,501.109 797.494,500.006 C 799.151,498.175 799.163,498 797.624,498 C 795.072,498 794.523,495.185 796.622,492.865 C 797.671,491.706 798.346,489.732 798.165,488.350 C 797.988,487 798.380,485.247 799.036,484.456 C 799.699,483.657 800.005,481.570 799.724,479.759 C 799.382,477.552 799.863,475.438 801.214,473.213 C 802.700,470.764 803.040,469.023 802.545,466.387 C 802.133,464.190 802.329,462.308 803.063,461.424 C 803.973,460.327 803.968,459.666 803.040,458.548 C 802.294,457.649 802.131,456.221 802.613,454.798 C 803.041,453.534 803.284,451.938 803.152,451.250 C 803.020,450.562 803.448,450 804.103,450 C 805.567,450 804.710,431.561 803.159,429.692 C 802.479,428.873 802.791,427.127 804.142,424.179 C 806.387,419.283 806.225,416.435 803.712,416.639 C 801.178,416.845 801.439,412.380 804,411.710 C 806.631,411.022 806.547,408.497 803.830,406.594 C 801.545,404.993 801.684,404.593 805.911,400.618 C 806.873,399.713 807.032,398.750 806.411,397.590 C 805.715,396.291 805.956,395.798 807.425,395.507 C 809.029,395.189 809.138,394.871 808.083,393.600 C 807.053,392.358 807.113,391.479 808.408,388.883 C 810.321,385.049 810.418,382.642 808.765,379.995 C 807.701,378.292 807.901,377.644 810.207,375.338 C 812.590,372.955 813.084,372.817 814.684,374.080 C 816.334,375.383 816.474,375.252 816.383,372.500 C 816.297,369.904 816.467,369.702 817.644,371 C 818.392,371.825 819.003,374.323 819.002,376.550 C 819.001,378.778 819.521,381.121 820.158,381.758 C 821.035,382.635 821.001,383.294 820.020,384.476 C 818.947,385.769 819.004,386.346 820.350,387.834 C 822.591,390.311 823.536,395.649 822.050,397.440 C 821.138,398.539 821.109,400.638 821.928,406.193 C 824.468,423.415 825.028,427.584 824.992,429 C 824.971,429.825 824.831,433.875 824.681,438 C 824.531,442.125 824.796,447.525 825.272,450 C 826.284,455.265 826.676,466.097 827.408,509 C 827.704,526.325 828.168,543.875 828.440,548 C 828.712,552.125 829.188,564.500 829.496,575.500 C 829.804,586.500 830.484,597.975 831.006,601 C 831.528,604.025 831.929,608.300 831.898,610.500 C 831.867,612.700 832.119,617.200 832.460,620.500 C 832.801,623.800 833.208,628.552 833.364,631.060 C 833.520,633.568 833.973,636.146 834.370,636.789 C 834.767,637.432 834.621,638.839 834.046,639.914 C 832.817,642.210 832.628,652 833.813,652 C 834.260,652 834.620,654.588 834.615,657.750 C 834.610,660.912 835.009,668.225 835.502,674 C 836.716,688.218 836.590,706.581 835.267,708.196 C 834.679,708.913 833.928,713.550 833.596,718.500 C 832.078,741.156 831.949,741.649 823.509,757.194 C 819.237,765.062 812.684,775.550 808.946,780.500 C 798.819,793.912 780.794,811.787 773.148,816 C 769.654,817.925 764.142,821.412 760.898,823.750 C 758.932,825.167 756.966,826.583 755,828 Z"/><path id="493" d="M 364,643 C 366.964,637.047 373.032,632.343 379.472,631.006 C 383.620,630.145 419.249,629.785 512.320,629.665 C 634.720,629.507 639.683,629.570 644.385,631.384 C 647.653,632.645 649.970,634.369 651.385,636.592 C 652.548,638.420 653.162,639.935 652.750,639.958 C 652.500,639.972 652.250,639.986 652,640 C 647.892,636.881 644.967,635.756 642.850,635.488 C 641.567,635.325 640.283,635.163 639,635 C 580.333,634.667 521.667,634.333 463,634 C 393.249,634.472 379.680,634.916 377.848,635.717 C 368.342,639.870 365.761,651.626 372.526,659.955 C 373.351,660.970 374.175,661.985 375,663 C 365.949,659.400 364,656.748 364,648.032 C 364,646.355 364,644.677 364,643 Z"/><path id="493" d="M 451,380 C 454.863,382.891 455.061,389.030 451.409,392.682 C 448.954,395.137 448.414,395.245 441.159,394.734 C 436.174,394.383 430.533,393.103 425,391.067 C 412.967,386.639 400.198,384.727 383,384.777 C 372.653,384.807 365.636,385.392 358.500,386.818 C 344.682,389.579 326.841,396.707 315.700,403.916 C 306.087,410.137 301.460,412.362 299.916,411.507 C 299.611,411.338 299.305,411.169 299,411 C 299,410.667 299,410.333 299,410 C 303.191,408.368 306.646,406.287 309.380,404.322 C 316.574,399.153 330.605,392.411 342.320,388.492 C 368.743,379.653 395.615,379.852 424.798,389.102 C 438.355,393.399 440.960,393.715 444.561,391.500 C 445.374,391 446.187,390.500 447,390 C 448.586,389.111 449.486,386.861 450.023,384.426 C 450.349,382.951 450.674,381.475 451,380 Z"/><path id="493" d="M 742,401 C 750.474,410.236 750.158,411.677 739.750,411.266 C 737.500,411.177 735.250,411.089 733,411 C 737.476,407.859 739.501,405.608 740.388,403.973 C 740.925,402.982 741.463,401.991 742,401 Z"/></g><g id="orange-3" fill="#d09f76" stroke="none" data-color-group="#d09f76"><path id="496" d="M 633,392 C 631.717,385.758 670.499,387.819 684,394.711 C 685.375,395.413 686.987,395.991 687.582,395.994 C 690.654,396.011 702.004,400.455 705.500,403.009 C 716.669,411.168 720.826,413.810 724.256,414.931 C 728.409,416.289 740,426.934 740,429.391 C 740,430.237 740.857,431.388 741.903,431.948 C 742.949,432.508 744.806,435.033 746.029,437.559 C 747.826,441.272 748.044,442.609 747.164,444.540 C 746.559,445.868 746.466,447.170 746.956,447.473 C 748.232,448.262 747.972,459.248 746.639,460.898 C 745.993,461.697 745.651,464.755 745.840,468.036 C 746.022,471.193 745.730,474.049 745.191,474.382 C 744.557,474.774 744.546,476.483 745.160,479.217 C 745.880,482.420 745.794,483.695 744.805,484.473 C 744.087,485.038 743.500,487.075 743.500,489 C 743.500,491 743,492.500 742.333,492.500 C 739.967,492.500 739.778,493.999 741.924,495.737 C 743.899,497.336 744.003,497.838 742.915,500.512 C 741.289,504.508 740.746,522.990 742.204,524.746 C 742.973,525.673 742.995,526.405 742.275,527.125 C 741.555,527.845 741.674,529.045 742.662,531.025 C 743.811,533.328 743.849,534.269 742.855,535.861 C 741.871,537.436 741.879,538.150 742.896,539.375 C 743.630,540.259 743.827,541.462 743.361,542.206 C 742.915,542.918 742.680,544.287 742.838,545.250 C 743.048,546.527 742.450,547 740.622,547 C 737.527,547 736.146,548.942 738.360,550.181 C 740.530,551.395 740.597,557.833 738.448,558.658 C 737.235,559.123 736.998,560.372 737.361,564.377 C 737.616,567.195 738.139,570.292 738.524,571.261 C 738.908,572.230 738.475,575.308 737.562,578.100 C 736.279,582.021 736.168,583.498 737.073,584.588 C 737.972,585.671 737.953,586.351 736.992,587.510 C 736.216,588.445 735.942,590.537 736.274,593.009 C 736.568,595.204 736.456,597.218 736.024,597.485 C 734.784,598.251 734.166,602.985 735.221,603.637 C 735.745,603.961 735.864,605.188 735.486,606.363 C 735.107,607.538 734.625,609.850 734.414,611.500 C 732.550,626.056 731.888,629 730.483,629 C 729.667,629 729,629.810 729,630.800 C 729,631.790 728.479,633.121 727.842,633.758 C 726.965,634.635 726.986,635.279 727.928,636.414 C 729.458,638.258 728.522,640 726,640 C 723.287,640 723.109,641.185 725.443,643.707 C 727.071,645.466 727.233,646.167 726.243,647.157 C 725.559,647.841 725,649.219 725,650.220 C 725,651.221 723.875,653.822 722.500,656 C 721.125,658.178 720,661.016 720,662.306 C 720,663.596 718.846,665.736 717.435,667.061 C 716.024,668.386 714.152,671.052 713.273,672.985 C 712.394,674.918 710.726,677.850 709.567,679.500 C 708.408,681.150 706.807,683.850 706.010,685.500 C 705.213,687.150 703.210,690.525 701.559,693 C 699.908,695.475 697.539,699.525 696.294,702 C 694.943,704.686 691.566,708.515 687.918,711.500 C 684.557,714.250 680.969,718.132 679.946,720.126 C 677.750,724.405 671.645,728.357 668.235,727.705 C 666.468,727.367 665.642,727.811 665.026,729.431 C 664.026,732.060 657.790,737 655.471,737 C 654.557,737 652.505,737.928 650.911,739.063 C 649.317,740.198 647.592,740.866 647.078,740.548 C 646.564,740.230 645.998,740.973 645.821,742.198 C 645.586,743.828 644.585,744.612 642.092,745.119 C 640.218,745.500 638.300,746.498 637.831,747.337 C 636.596,749.543 626.318,751.719 624.717,750.113 C 623.761,749.154 624.035,748.480 626,746.968 C 627.745,745.625 628.032,745.038 626.949,745.022 C 624.307,744.984 620.344,747.307 619.389,749.453 C 618.682,751.042 617.698,751.439 614.989,751.227 C 613.070,751.077 610.973,750.252 610.328,749.393 C 609.303,748.027 608.936,748.167 607.402,750.509 C 606.817,751.401 606.233,752.293 605.648,753.185 C 605.068,752.416 604.488,751.647 603.908,750.878 C 603.328,750.109 602.748,749.341 602.168,748.572 C 601.864,749.727 601.561,750.881 601.257,752.036 C 600.449,755.106 600.013,755.465 597.423,755.186 C 592.758,754.684 587.908,754.784 582,755.503 C 578.975,755.871 575,756.177 573.166,756.183 C 570.171,756.192 569.891,756.431 570.419,758.535 C 571.163,761.500 569.848,762.355 567.397,760.500 C 566.353,759.710 564.699,759.050 563.719,759.032 C 562.739,759.014 561.679,758.325 561.362,757.500 C 560.474,755.187 556.615,755.680 555.487,758.250 C 554.547,760.392 553.876,760.515 541.500,760.815 C 520.004,761.336 518.530,761.453 517.736,762.686 C 517.204,763.512 514.667,763.708 509.387,763.332 C 503.213,762.892 501.168,763.133 498.390,764.629 C 495.756,766.047 494.574,766.215 493.208,765.362 C 491.929,764.563 489.987,764.554 486.200,765.330 C 482.526,766.083 479.791,766.090 477.040,765.356 C 474.883,764.780 472.529,764.682 471.809,765.139 C 469.899,766.350 465.581,766.181 464.242,764.842 C 463.444,764.044 462.683,764.002 461.792,764.706 C 460.125,766.023 459.788,766.061 445,766.568 C 438.125,766.804 430.147,767.419 427.270,767.935 C 424.009,768.520 421.821,768.520 421.459,767.934 C 421.098,767.350 420.207,767.354 419.101,767.946 C 418.123,768.469 416.348,768.643 415.156,768.331 C 413.964,768.019 412.367,768.281 411.606,768.912 C 410.745,769.627 408.681,769.812 406.134,769.405 C 403.267,768.947 401.002,769.246 398.561,770.404 C 395.683,771.770 394.023,771.887 388.995,771.077 C 385.649,770.538 382.369,770.280 381.706,770.504 C 381.043,770.728 377.350,771.104 373.500,771.339 C 366.510,771.766 361.700,773.058 360.625,774.797 C 360.312,775.303 356.786,775.800 352.788,775.901 C 348.516,776.009 344.634,776.665 343.370,777.493 C 342.004,778.388 339.355,778.775 336.105,778.554 C 333.292,778.363 330.741,778.610 330.436,779.103 C 329.718,780.264 322.287,780.273 321.570,779.113 C 321.267,778.622 319.276,778.828 317.111,779.574 C 314.445,780.493 308.313,780.895 297.850,780.840 C 289.407,780.796 279.016,781.294 274.758,781.947 C 268.780,782.864 264.337,782.863 255.258,781.945 C 248.791,781.291 241.581,780.815 239.235,780.887 C 236.889,780.959 231.756,780.287 227.827,779.393 C 225.446,778.851 223.065,778.310 220.684,777.768 C 220.096,778.548 219.506,779.328 218.918,780.108 C 217.161,782.437 217.142,782.439 214.994,780.495 C 212.127,777.901 201,761.097 201,759.363 C 201,758.909 201,758.454 201,758 C 202.907,755.698 205.616,756.217 214.266,760.542 C 215.787,761.303 217.654,761.686 218.415,761.394 C 219.176,761.102 220.084,761.328 220.434,761.894 C 220.843,762.555 221.924,762.599 223.454,762.017 C 225.022,761.421 226.717,761.520 228.411,762.306 C 230.650,763.345 230.985,763.272 230.992,761.750 C 231.002,759.433 232.599,759.540 235.818,762.072 C 237.772,763.609 238.544,763.803 238.806,762.822 C 239.001,762.095 240.518,760.825 242.179,760 C 245.147,758.526 245.187,758.540 244.504,760.838 C 243.823,763.131 243.943,763.176 250.765,763.176 C 257.205,763.176 257.769,763.003 258.367,760.838 C 258.582,760.059 258.798,759.279 259.013,758.500 C 259.610,759.269 260.206,760.037 260.803,760.806 C 262.467,762.950 263.115,763.072 270.046,762.560 C 283.687,761.551 292.039,759.795 293.161,757.699 C 293.866,756.381 294.508,756.108 295.220,756.820 C 295.922,757.522 297.096,757.530 298.877,756.847 C 300.320,756.293 303.161,756.103 305.190,756.423 C 307.243,756.747 309.154,756.560 309.499,756.002 C 309.840,755.451 311.415,755 313,755 C 314.585,755 316.160,754.550 316.500,754 C 316.840,753.450 318.351,753 319.859,753 C 321.367,753 323.028,752.583 323.550,752.073 C 324.073,751.563 326.975,750.900 330,750.601 C 340.372,749.574 346.504,748.369 350.078,746.653 C 352.046,745.708 355.241,744.793 357.178,744.619 C 359.115,744.445 361.250,743.963 361.922,743.548 C 362.594,743.133 365.476,742.689 368.326,742.563 C 371.176,742.437 374.467,741.820 375.639,741.193 C 376.811,740.566 379.567,739.827 381.762,739.551 C 384.778,739.172 385.892,738.523 386.318,736.893 C 386.768,735.174 387.350,734.878 389.191,735.440 C 393.144,736.646 398.890,735.507 400.605,733.177 C 401.224,732.336 402.419,731.947 403.323,732.294 C 404.210,732.634 405.203,732.481 405.529,731.953 C 405.855,731.425 407.220,731.268 408.561,731.605 C 410.047,731.978 411,731.784 411,731.108 C 411,730.498 411.675,730 412.500,730 C 413.325,730 414,730.485 414,731.079 C 414,731.746 415.091,731.920 416.856,731.532 C 418.427,731.187 422.069,730.728 424.950,730.514 C 428.480,730.251 430.647,729.533 431.595,728.312 C 432.933,726.588 433.104,726.621 435.130,729 C 436.535,730.650 437.589,731.160 438.230,730.500 C 438.859,729.852 438.773,729.091 437.987,728.337 C 437.320,727.697 437.119,726.617 437.540,725.936 C 438.108,725.017 438.664,725.188 439.696,726.599 C 440.944,728.305 442.496,728.503 454.794,728.526 C 463.668,728.543 469.708,728.094 471.927,727.253 C 474.519,726.271 475.530,726.239 476.076,727.123 C 476.574,727.929 477.598,727.493 479.372,725.719 C 481.659,723.432 482.335,723.254 485.458,724.116 C 488.047,724.831 490.299,724.692 494.019,723.587 C 496.795,722.763 499.726,722.341 500.533,722.651 C 501.340,722.961 502,722.668 502,722 C 502,721.290 502.675,721.045 503.627,721.410 C 504.522,721.753 505.832,721.555 506.538,720.969 C 507.450,720.212 508.019,720.221 508.500,721 C 508.929,721.694 509.604,721.755 510.339,721.164 C 512.576,719.366 517.710,718.800 518.281,720.289 C 518.624,721.183 520.457,721.705 523.407,721.750 C 527.841,721.817 528,721.718 528,718.872 C 528,716.259 527.690,715.957 525.271,716.212 C 521.418,716.618 521.834,714.766 525.855,713.613 C 528.210,712.938 529.772,713.001 531.092,713.825 C 532.127,714.471 534.044,715 535.352,715 C 536.660,715 538.930,715.943 540.395,717.096 C 543.181,719.287 546,719.065 546,716.654 C 546,714.162 548.564,712.770 549.990,714.488 C 551.394,716.180 557.542,716.549 558.500,715 C 558.840,714.450 560.441,714 562.059,714 C 563.677,714 565,713.480 565,712.845 C 565,712.171 565.792,712.407 566.904,713.413 C 568.535,714.889 569.126,714.947 571.024,713.818 C 572.835,712.741 573.060,712.105 572.256,710.339 C 571.715,709.150 571.548,707.758 571.886,707.246 C 572.794,705.869 578.826,704.910 579.520,706.033 C 580.852,708.188 586.212,706.960 590.380,703.545 C 593.883,700.675 595.350,700.111 599.048,700.216 C 601.496,700.286 604.062,700.771 604.750,701.294 C 605.643,701.974 606.002,701.710 606.008,700.372 C 606.015,698.687 606.290,698.627 608.758,699.779 C 609.672,700.205 610.586,700.633 611.500,701.059 C 612.333,700.633 613.167,700.205 614,699.779 C 615.375,699.075 617.033,697.825 617.683,697 C 618.565,695.881 619.158,695.788 620.015,696.632 C 621.334,697.931 626.011,696.055 629.664,692.763 C 631.816,690.823 631.836,690.824 633.018,693.033 C 633.963,694.798 633.929,695.475 632.853,696.326 C 631.829,697.136 632.292,697.332 634.750,697.134 C 636.786,696.970 638,696.336 638,695.436 C 638,694.638 638.945,694 640.125,694 C 641.729,694 642.250,693.383 642.250,691.482 C 642.250,688.291 642.982,687.872 649.080,687.574 C 653.414,687.362 654.502,686.843 657.521,683.547 C 660.033,680.804 661.549,679.910 663.033,680.298 C 664.596,680.707 665.635,679.955 667.429,677.113 C 668.721,675.066 669.940,672.564 670.139,671.553 C 670.338,670.542 671.368,669.216 672.429,668.607 C 675.230,666.999 678.931,662.730 678.968,661.066 C 678.985,660.277 679.912,657.748 681.026,655.447 C 682.140,653.146 683.099,649.517 683.156,647.382 C 683.213,645.247 684.083,642.127 685.089,640.449 C 686.157,638.667 686.677,636.481 686.340,635.194 C 686.023,633.982 686.321,632.317 687.003,631.496 C 687.685,630.675 688.437,627.415 688.675,624.252 C 689.324,615.625 689.357,615.495 691.371,613.484 C 692.897,611.960 693.024,611.269 692.063,609.730 C 691.310,608.523 691.226,607.421 691.830,606.672 C 693.038,605.174 694.089,598.016 694.110,591.140 C 694.123,586.772 694.468,585.690 695.978,585.295 C 698.469,584.644 699.377,580.534 697.645,577.746 C 696.873,576.504 696.370,573.617 696.519,571.285 C 696.697,568.491 696.283,566.650 695.290,565.826 C 694.466,565.142 693.400,563.552 692.922,562.294 C 692.311,560.688 690.666,559.636 687.402,558.763 C 684.845,558.079 682.535,556.953 682.269,556.260 C 682.003,555.567 681.229,555 680.548,555 C 679.867,555 678.495,554.100 677.500,553 C 676.505,551.900 675.197,550.985 674.595,550.966 C 673.993,550.947 671.700,550.063 669.500,549 C 667.300,547.937 664.739,547.053 663.809,547.034 C 662.879,547.015 661.839,546.548 661.498,545.996 C 661.157,545.444 659.776,545.269 658.431,545.607 C 656.984,545.970 655.063,545.616 653.728,544.741 C 651.673,543.394 646.812,541.922 643,541.491 C 636.828,540.793 630.529,538.712 628,536.537 C 626.759,535.469 628.484,535.207 638,535.018 C 641.833,534.942 645.667,534.866 649.500,534.790 C 646.532,534.495 643.564,534.199 640.596,533.904 C 634.749,533.322 630.543,532.328 628.346,531.009 C 627.231,530.339 626.115,529.670 625,529 C 649.936,530.365 656.331,529.534 665.467,523.737 C 682.348,513.026 691.583,497.552 692.534,478.386 C 692.689,475.257 692.845,472.129 693,469 C 693.474,469 693.947,469 694.421,469 C 695.202,469 696.138,467.650 696.500,466 C 697.067,463.417 696.870,463 693,463 C 670.606,458.775 654.366,457.614 628.500,458.391 C 616.400,458.754 604.138,459.490 601.250,460.026 C 599.500,460.351 597.750,460.675 596,461 C 595.333,461 594.667,461 594,461 C 596.016,458.514 606.360,457.232 634.737,455.952 C 647.807,455.362 661.875,454.609 666,454.278 C 673.338,453.690 673.421,453.653 669.832,452.588 C 665.195,451.212 664.027,450.068 666.580,449.400 C 668.570,448.880 673.555,441.952 675.688,436.745 C 677.453,432.436 674.116,421.637 670,418.337 C 668.814,417.386 668.756,416.875 669.727,415.890 C 670.704,414.899 672.757,415.580 679.785,419.226 C 688.717,423.860 692.212,424.861 695.078,423.608 C 695.946,423.229 697.895,423.390 699.411,423.966 C 700.927,424.542 702.600,424.747 703.128,424.421 C 703.656,424.095 704.703,424.338 705.455,424.962 C 707.603,426.745 708.027,424.732 706.409,420.434 C 705.594,418.270 704.666,415.712 704.347,414.750 C 704.028,413.788 703.459,413 703.084,413 C 702.709,413 701.845,411.460 701.164,409.577 C 699.947,406.212 694.535,402 691.429,402 C 690.628,402 689.191,401.587 688.236,401.083 C 687.281,400.579 683.878,399.401 680.674,398.466 C 677.470,397.531 674.616,396.164 674.334,395.428 C 673.189,392.445 663.828,390.975 649.851,391.584 C 642.508,391.904 635.713,392.129 634.750,392.083 C 634.167,392.055 633.583,392.028 633,392 Z"/><path id="496" d="M 849,644 C 847.930,665.275 846.866,674.315 845.599,672.889 C 845.409,672.675 844.987,665.300 844.663,656.500 C 844.293,646.478 843.340,637.103 842.109,631.407 C 837.958,612.195 835.795,578.127 834.656,514 C 834.339,496.125 833.740,477.225 833.325,472 C 832.910,466.775 832.662,461.825 832.773,461 C 833.848,453.022 832.241,404.636 829.933,375.500 C 828.187,353.452 827.841,350.540 826.822,349.298 C 826.279,348.637 826.095,347.276 826.413,346.275 C 827.815,341.856 820.072,312.694 814.996,303.276 C 813.877,301.199 812.530,297.925 812.004,296 C 810.644,291.027 803.648,282.752 802.107,284.293 C 801.210,285.190 800.788,284.907 800.313,283.089 C 799.769,281.010 799.445,280.865 797.728,281.938 C 796.407,282.763 795.434,282.834 794.755,282.155 C 794.092,281.492 792.874,281.478 791.201,282.114 C 789.801,282.646 788.096,282.867 787.412,282.605 C 786.606,282.296 785.751,283.869 784.981,287.080 C 784.319,289.839 782.915,292.646 781.810,293.420 C 780.138,294.591 780.011,295.153 781,297 C 781.994,298.858 781.834,299.506 779.947,301.264 C 778.218,302.875 777.963,303.689 778.800,304.918 C 781.048,308.217 776.516,321.791 772.846,322.751 C 770.892,323.262 770.374,325.956 771.923,327.550 C 773.446,329.118 771.909,334.013 769.372,335.676 C 767.783,336.717 767,338.183 767,340.115 C 767,341.702 766.550,343 766,343 C 765.450,343 765,343.873 765,344.941 C 765,346.009 764.610,347.124 764.132,347.419 C 763.654,347.714 762.967,350.576 762.605,353.779 C 762.168,357.640 761.309,360.147 760.057,361.219 C 758.599,362.468 758.286,363.717 758.687,366.704 C 759.288,371.183 757.428,376.317 753.356,381.421 C 749.599,386.130 746.765,386.686 742.624,383.527 C 740.802,382.137 738.053,381 736.514,381 C 734.975,381 730.967,379.264 727.608,377.143 C 724.249,375.022 719.116,372.078 716.203,370.602 C 713.290,369.126 710.702,367.262 710.453,366.459 C 710.302,365.973 710.151,365.486 710,365 C 715.446,363.371 717.452,363.161 717.971,363.482 C 718.490,363.803 719.620,362.701 720.483,361.033 C 721.346,359.365 722.424,358 722.880,358 C 723.336,358 724.909,356.886 726.378,355.525 C 728.723,353.352 728.893,352.796 727.774,350.964 C 726.717,349.233 726.755,348.646 728,347.513 C 731.477,344.349 732.806,342.418 732.399,341.123 C 731.815,339.266 733.827,337 736.060,337 C 737.576,337 737.780,336.423 737.306,333.499 C 736.797,330.362 737.193,329.546 741.119,325.630 C 744.581,322.178 745.430,320.671 745.166,318.448 C 744.947,316.607 745.483,315.094 746.717,314.068 C 749.576,311.691 754,305.330 754,303.597 C 754,302.752 754.847,300.554 755.882,298.711 C 756.917,296.868 758.085,293.456 758.478,291.128 C 758.881,288.740 759.979,286.405 760.997,285.770 C 761.989,285.151 762.573,284.052 762.296,283.330 C 762.019,282.608 762.514,281.740 763.396,281.401 C 764.278,281.063 765.020,280.047 765.045,279.143 C 765.104,276.972 767.541,273.626 772.838,268.442 C 776.716,264.647 777.050,263.963 775.995,261.991 C 774.269,258.766 776.058,257.367 779.884,258.952 C 781.531,259.634 783.374,259.887 783.978,259.514 C 784.582,259.141 787.306,259.406 790.032,260.105 C 796.528,261.770 803.003,268.091 809.532,279.140 C 812.249,283.738 815.238,288.656 816.174,290.068 C 817.110,291.480 818.864,295.530 820.071,299.068 C 821.278,302.606 822.768,306.129 823.383,306.897 C 824.586,308.401 829.512,325.484 830.980,333.242 C 831.473,335.850 832.096,340.901 832.363,344.465 C 832.630,348.029 833.083,351.326 833.369,351.789 C 833.901,352.650 835.751,368.098 836.508,378 C 836.739,381.025 837.189,385.750 837.508,388.500 C 838.636,398.234 839.728,439.874 840.360,497.173 C 840.594,518.443 841.084,536.327 841.448,536.915 C 841.812,537.503 842.258,547.399 842.441,558.905 C 842.624,570.411 843.063,580.292 843.415,580.862 C 843.767,581.432 844.288,586.219 844.571,591.498 C 844.854,596.777 845.483,602.141 845.969,603.419 C 846.455,604.696 846.698,607.037 846.508,608.621 C 846.318,610.205 846.568,613.366 847.063,615.647 C 847.558,617.928 848.196,625.240 848.481,631.897 C 848.654,635.931 848.827,639.966 849,644 Z"/><path id="496" d="M 437.476,511.352 C 440.796,506.288 444.655,492.050 445.160,483 C 445.430,478.173 448.965,470.565 450.312,471.912 C 451.024,472.624 450.981,473.747 450.173,475.520 C 449.528,476.936 449,479.094 449,480.316 C 449,482.320 444.732,499.990 442.045,509.114 C 440.945,512.849 436.889,518 435.048,518 C 433.433,518 433.828,516.916 437.476,511.352 Z"/></g><g id="dark-orange" fill="#2f1e14" stroke="none" data-color-group="#2f1e14"><path id="489" d="M 652,640 C 657.248,650.323 655.430,659.578 647.368,663.580 C 643.623,665.439 639.413,665.508 514.500,665.763 C 401.768,665.993 384.838,665.836 380.250,664.513 C 378.500,664.009 376.750,663.504 375,663 C 374.175,661.985 373.351,660.970 372.526,659.955 C 365.761,651.626 368.342,639.870 377.848,635.717 C 379.680,634.916 393.249,634.472 463,634 C 521.667,634.333 580.333,634.667 639,635 C 640.283,635.163 641.567,635.325 642.850,635.488 C 644.967,635.756 647.892,636.881 652,640 ZM 644.761,644.612 C 642.823,643.370 623.718,643.107 511.348,642.773 C 439.214,642.559 379.242,642.737 378.076,643.168 C 375.552,644.102 374.327,646.727 375.752,648.152 C 376.442,648.842 377.797,648.639 379.963,647.519 C 383.124,645.884 383.153,645.891 382.828,648.184 C 382.621,649.642 381.305,651.056 379.274,652 C 377.499,652.825 376.177,653.922 376.336,654.438 C 376.874,656.183 382.201,657.356 384.125,656.154 C 385.113,655.537 386.541,655.271 387.300,655.562 C 388.059,655.853 389.306,655.336 390.072,654.413 C 391.350,652.873 391.512,652.931 392.027,655.117 C 392.542,657.299 393.132,657.514 399.045,657.670 C 402.595,657.764 407.363,657.494 409.641,657.070 C 411.919,656.646 414.394,656.630 415.141,657.036 C 415.888,657.441 419.425,657.331 423,656.792 C 426.575,656.253 429.950,655.869 430.500,655.939 C 431.050,656.009 438.025,656.509 446,657.051 C 456.741,657.780 461.070,657.735 462.700,656.876 C 464.390,655.985 465.606,656.008 467.950,656.979 C 470.249,657.931 471.677,657.970 473.750,657.136 C 477.032,655.815 484.746,655.559 503.205,656.161 C 514.204,656.520 517.277,656.941 518.769,658.291 C 520.007,659.411 520.961,659.639 521.626,658.974 C 522.175,658.425 526.084,657.902 530.312,657.814 C 534.540,657.726 538,657.282 538,656.827 C 538,655.617 542.506,655.818 545.449,657.159 C 547.572,658.126 548.327,658.014 550.020,656.482 C 551.574,655.075 552.322,654.922 553.224,655.824 C 554.685,657.285 559.654,657.369 560.532,655.948 C 560.951,655.270 563.590,655.134 567.960,655.565 C 572.596,656.022 574.959,655.874 575.439,655.098 C 575.926,654.310 577.046,654.609 579.105,656.075 C 581.118,657.508 582.460,657.877 583.285,657.222 C 583.953,656.691 587.817,656.352 591.871,656.468 C 597.547,656.631 599.454,657.061 600.170,658.340 C 601.210,660.199 606.622,660.632 607.199,658.902 C 607.400,658.298 610.687,657.613 614.503,657.381 C 618.319,657.149 621.882,656.518 622.421,655.979 C 623.967,654.433 626.510,654.827 629.337,657.051 C 632.556,659.583 638.579,658.900 639.533,655.895 C 640.116,654.058 641.135,653.584 643.763,653.928 C 645.065,654.098 645.410,653.434 646.428,648.781 C 646.891,646.664 646.522,645.740 644.761,644.612 Z"/><path id="489" d="M 625,529 C 616.862,525.925 612.138,523.450 609.250,521.516 C 607.500,520.344 605.750,519.172 604,518 C 597.882,510.693 594.157,505.004 592.972,501.156 C 592.648,500.104 592.324,499.052 592,498 C 600.326,510.731 606.456,517.020 610.462,516.938 C 611.475,516.917 612.487,516.896 613.500,516.875 C 612.833,516.077 612.167,515.278 611.500,514.480 C 610.400,513.163 607.925,511.696 606,511.220 C 602.853,510.441 602.498,510.008 602.488,506.927 C 602.482,505.042 602.060,502.844 601.551,502.042 C 601.042,501.240 600.485,499.553 600.313,498.292 C 600.209,497.528 600.104,496.764 600,496 C 601.223,494.500 603.136,493.964 605.039,493.842 C 608.620,493.613 610.882,492.056 621.244,482.691 C 628.874,475.796 632.236,470.923 631.825,467.357 C 631.468,464.257 630.730,463.916 620.305,462.052 C 613.104,460.764 599.108,461.609 594.128,463.631 C 592.273,464.384 589.798,464.985 588.628,464.968 C 586.580,464.937 586.570,464.883 588.366,463.523 C 589.392,462.746 591.530,461.860 593.116,461.555 C 594.077,461.370 595.039,461.185 596,461 C 597.750,460.675 599.500,460.351 601.250,460.026 C 604.138,459.490 616.400,458.754 628.500,458.391 C 654.366,457.614 670.606,458.775 693,463 C 693,465 693,467 693,469 C 692.845,472.129 692.689,475.257 692.534,478.386 C 691.583,497.552 682.348,513.026 665.467,523.737 C 656.331,529.534 649.936,530.365 625,529 ZM 688.250,465.726 C 685.617,463.343 653.663,459.119 652.500,461 C 651.653,462.370 656.899,464.243 659.650,463.552 C 660.875,463.244 662.116,463.380 662.409,463.853 C 662.702,464.326 665.668,465.293 669,466 C 672.332,466.707 675.302,467.680 675.600,468.162 C 676.543,469.688 673.987,475.770 672.207,476.237 C 671.268,476.483 669.846,477.993 669.046,479.592 C 668.246,481.191 666.849,483.400 665.942,484.500 C 663.611,487.327 660.789,496.759 661.553,499.167 C 662.003,500.585 661.380,502.037 659.467,504.034 C 657.791,505.783 656.976,507.494 657.351,508.472 C 658.133,510.510 654.078,512.153 648.241,512.161 C 645.071,512.166 643.718,512.656 642.955,514.083 C 642.370,515.176 640.871,516 639.465,516 C 636.600,516 636.420,516.727 638.537,519.750 C 639.927,521.734 640.719,521.898 646.787,521.464 C 653.062,521.015 653.748,520.723 657.308,516.969 C 659.402,514.761 661.507,513.195 661.986,513.491 C 662.465,513.787 664.947,512.618 667.502,510.894 C 670.057,509.170 673.577,507.691 675.324,507.607 C 677.924,507.483 679.078,506.595 681.683,502.715 C 688.491,492.577 689.750,486.315 687.405,474.250 C 686.903,471.665 687.103,471 688.386,471 C 690.535,471 690.451,467.718 688.250,465.726 Z"/><path id="489" d="M 387,531 C 383,530.333 379,529.667 375,529 C 366.862,525.407 361.466,522.224 357.758,519.610 C 347.972,512.710 344.371,507.834 341.302,497.323 C 340.443,494.382 339.585,491.441 338.726,488.500 C 339.855,490.664 340.984,492.828 342.113,494.992 C 343.976,498.562 345.421,500.606 345.326,499.533 C 344.945,495.249 346.625,494.227 356.204,492.918 C 363.367,491.939 365.938,491.153 367.685,489.406 C 368.923,488.168 370.827,486.873 371.916,486.527 C 373.005,486.181 375.608,484.065 377.699,481.825 C 379.790,479.585 382.669,476.566 384.099,475.116 C 386.371,472.811 386.623,471.915 386.099,467.990 C 385.899,466.493 385.700,464.997 385.500,463.500 C 383.667,463.241 381.833,462.981 380,462.722 C 362.613,460.261 349.775,461.034 341.981,465.010 C 338.830,466.618 337.980,466.706 336.449,465.586 C 334.715,464.318 334.721,464.219 336.612,463.207 C 337.697,462.626 341.154,461.668 344.293,461.076 C 346.195,460.717 348.098,460.359 350,460 C 355.083,459.629 360.167,459.258 365.250,458.887 C 382.704,457.613 409.367,458.314 425.346,460.466 C 441.801,462.682 440.318,461.148 439.741,475.355 C 438.990,493.860 434.734,504.188 423.338,515.156 C 413.238,524.876 406.396,527.860 387,531 ZM 399.457,515.345 C 398.608,515.019 397.640,515.027 397.306,515.361 C 396.972,515.695 396.126,515.188 395.427,514.234 C 394.231,512.602 393.993,512.621 391.391,514.561 C 389.870,515.694 388.448,517.156 388.230,517.810 C 387.627,519.618 390.952,520.456 394.065,519.281 C 395.903,518.587 397.171,518.571 397.831,519.231 C 398.378,519.778 399.315,519.924 399.913,519.554 C 401.511,518.566 401.236,516.028 399.457,515.345 ZM 427.184,484.518 C 426.091,483.425 424,484.069 424,485.500 C 424,486.325 423.555,487 423.011,487 C 420.645,487 418,490.584 418,493.788 C 418,498.717 419.640,501.243 422.311,500.430 C 426.882,499.039 428.061,497.006 427.876,490.840 C 427.780,487.647 427.469,484.803 427.184,484.518 Z"/><path id="489" d="M 594,391 C 593.134,389.450 591.810,389 590.500,389 C 589.190,389 587.877,388.610 587.583,388.134 C 587.289,387.658 585.800,387.499 584.274,387.780 C 583.349,387.950 582.425,388.121 581.500,388.291 C 582.166,387.542 582.832,386.792 583.498,386.043 C 585.833,383.416 590.184,381 592.582,381 C 593.507,381 595.892,379.993 597.882,378.762 C 602.066,376.174 609.210,373.640 618.773,371.351 C 623.961,370.109 630.166,369.777 645.888,369.897 C 657.102,369.983 666.755,370.349 667.341,370.711 C 668.944,371.702 681.936,373.887 686.576,373.947 C 689.673,373.987 691.215,373.400 693,371.500 C 694.292,370.125 696.069,369 696.948,369 C 697.827,369 703.732,371.621 710.069,374.824 C 729.333,384.561 739,392.152 739,397.542 C 739,400.885 733.406,407 730.347,407 C 727.408,407 723.151,404.926 716.739,400.370 C 705.996,392.737 682.314,383.442 667.068,380.874 C 657.382,379.243 629,379.150 629,380.750 C 629,381.438 629.900,382 631,382 C 631.667,382 632.333,382 633,382 C 629.917,382.473 626.833,382.946 623.750,383.419 C 618.662,384.200 609.888,386.225 594,391 Z"/></g><g id="dark-orange-2" fill="#2e1e14" stroke="none" data-color-group="#2e1e14"><path id="488" d="M 644.761,644.612 C 646.522,645.740 646.891,646.664 646.428,648.781 C 645.410,653.434 645.065,654.098 643.763,653.928 C 641.135,653.584 640.116,654.058 639.533,655.895 C 638.579,658.900 632.556,659.583 629.337,657.051 C 626.510,654.827 623.967,654.433 622.421,655.979 C 621.882,656.518 618.319,657.149 614.503,657.381 C 610.687,657.613 607.400,658.298 607.199,658.902 C 606.622,660.632 601.210,660.199 600.170,658.340 C 599.454,657.061 597.547,656.631 591.871,656.468 C 587.817,656.352 583.953,656.691 583.285,657.222 C 582.460,657.877 581.118,657.508 579.105,656.075 C 577.046,654.609 575.926,654.310 575.439,655.098 C 574.959,655.874 572.596,656.022 567.960,655.565 C 563.590,655.134 560.951,655.270 560.532,655.948 C 559.654,657.369 554.685,657.285 553.224,655.824 C 552.322,654.922 551.574,655.075 550.020,656.482 C 548.327,658.014 547.572,658.126 545.449,657.159 C 542.506,655.818 538,655.617 538,656.827 C 538,657.282 534.540,657.726 530.312,657.814 C 526.084,657.902 522.175,658.425 521.626,658.974 C 520.961,659.639 520.007,659.411 518.769,658.291 C 517.277,656.941 514.204,656.520 503.205,656.161 C 484.746,655.559 477.032,655.815 473.750,657.136 C 471.677,657.970 470.249,657.931 467.950,656.979 C 465.606,656.008 464.390,655.985 462.700,656.876 C 461.070,657.735 456.741,657.780 446,657.051 C 438.025,656.509 431.050,656.009 430.500,655.939 C 429.950,655.869 426.575,656.253 423,656.792 C 419.425,657.331 415.888,657.441 415.141,657.036 C 414.394,656.630 411.919,656.646 409.641,657.070 C 407.363,657.494 402.595,657.764 399.045,657.670 C 393.132,657.514 392.542,657.299 392.027,655.117 C 391.512,652.931 391.350,652.873 390.072,654.413 C 389.306,655.336 388.059,655.853 387.300,655.562 C 386.541,655.271 385.113,655.537 384.125,656.154 C 382.201,657.356 376.874,656.183 376.336,654.438 C 376.177,653.922 377.499,652.825 379.274,652 C 381.305,651.056 382.621,649.642 382.828,648.184 C 383.153,645.891 383.124,645.884 379.963,647.519 C 377.797,648.639 376.442,648.842 375.752,648.152 C 374.327,646.727 375.552,644.102 378.076,643.168 C 379.242,642.737 439.214,642.559 511.348,642.773 C 623.718,643.107 642.823,643.370 644.761,644.612 Z"/><path id="488" d="M 299,410 C 296.344,410 296.463,407.751 299.250,405.244 C 300,404.569 300.750,403.895 301.500,403.220 C 300.391,403.558 299.283,403.896 298.174,404.234 C 293.987,405.511 291.218,403.636 295.087,402.144 C 296.414,401.632 298.850,399.827 300.500,398.134 C 302.150,396.441 304.261,395.043 305.191,395.028 C 306.121,395.013 307.166,394.541 307.512,393.981 C 307.858,393.421 310.472,391.794 313.321,390.367 C 316.170,388.940 319.182,387.174 320.016,386.443 C 322.894,383.919 345.918,376.136 357,373.941 C 365.594,372.239 390.694,371.702 399.618,373.029 C 403.953,373.674 408.625,374.359 410,374.552 C 415.177,375.278 422.099,376.982 423.997,377.998 C 425.080,378.577 428.673,379.153 431.981,379.276 C 436.397,379.441 437.997,379.877 437.998,380.917 C 437.999,381.811 439.063,382.333 440.880,382.333 C 442.977,382.333 443.951,381.730 444.465,380.112 C 444.853,378.890 445.673,378.058 446.289,378.263 C 447.826,378.775 448.111,386.100 446.677,388.250 C 446.035,389.212 445.845,390 446.255,390 C 446.503,390 446.752,390 447,390 C 446.187,390.500 445.374,391 444.561,391.500 C 440.960,393.715 438.355,393.399 424.798,389.102 C 395.615,379.852 368.743,379.653 342.320,388.492 C 330.605,392.411 316.574,399.153 309.380,404.322 C 306.646,406.287 303.191,408.368 299,410 Z"/><path id="488" d="M 631,356 C 648.772,356 658.956,356.700 665.097,357.557 C 686.135,360.491 709.455,369.165 727.596,380.802 C 738.474,387.780 741.135,390.746 741.614,396.424 C 741.743,397.949 741.871,399.475 742,401 C 741.463,401.991 740.925,402.982 740.388,403.973 C 739.501,405.608 737.476,407.859 733,411 C 727.016,410.246 721.822,407.758 716.535,404.438 C 704.480,396.869 698.198,393.794 686.407,389.690 C 674.081,385.400 663.285,383.198 651.250,382.521 C 648.167,382.347 645.083,382.174 642,382 C 639,382 636,382 633,382 C 632.333,382 631.667,382 631,382 C 629.900,382 629,381.438 629,380.750 C 629,379.150 657.382,379.243 667.068,380.874 C 682.314,383.442 705.996,392.737 716.739,400.370 C 723.151,404.926 727.408,407 730.347,407 C 733.406,407 739,400.885 739,397.542 C 739,392.152 729.333,384.561 710.069,374.824 C 703.732,371.621 697.827,369 696.948,369 C 696.069,369 694.292,370.125 693,371.500 C 691.215,373.400 689.673,373.987 686.576,373.947 C 681.936,373.887 668.944,371.702 667.341,370.711 C 666.755,370.349 657.102,369.983 645.888,369.897 C 630.166,369.777 623.961,370.109 618.773,371.351 C 609.210,373.640 602.066,376.174 597.882,378.762 C 595.892,379.993 593.507,381 592.582,381 C 590.184,381 585.833,383.416 583.498,386.043 C 582.832,386.792 582.166,387.542 581.500,388.291 C 582.425,388.121 583.349,387.950 584.274,387.780 C 585.800,387.499 587.289,387.658 587.583,388.134 C 587.877,388.610 589.190,389 590.500,389 C 591.810,389 593.134,389.450 594,391 C 592.853,391 591.706,391 590.559,391 C 588.666,391 586.866,391.450 586,393 C 581.557,392.305 579.082,390.730 577.634,389.052 C 576.756,388.035 575.878,387.017 575,386 C 576.036,379.705 576.409,379.355 578.620,379.778 C 580.468,380.131 581.983,379.451 584.319,377.214 C 590.977,370.840 604.191,366.759 632.926,362.202 C 635.360,361.816 637.535,360.938 637.759,360.250 C 638.751,357.208 608.491,360.556 607.316,363.618 C 606.742,365.115 602,365.564 602,364.121 C 602,362.230 615.406,358.818 626.750,357.821 C 629.088,357.616 631,357.122 631,356.724 C 631,356.483 631,356.241 631,356 Z"/><path id="488" d="M 592,498 C 590.717,493.536 590.768,493.524 595.354,494.754 C 596.903,495.169 598.451,495.585 600,496 C 600.104,496.764 600.209,497.528 600.313,498.292 C 600.485,499.553 601.042,501.240 601.551,502.042 C 602.060,502.844 602.482,505.042 602.488,506.927 C 602.498,510.008 602.853,510.441 606,511.220 C 607.925,511.696 610.400,513.163 611.500,514.480 C 612.167,515.278 612.833,516.077 613.500,516.875 C 612.487,516.896 611.475,516.917 610.462,516.938 C 606.456,517.020 600.326,510.731 592,498 Z"/></g><g id="deep-orange" data-color-group="#4f3c2f"><path id="487" fill="#4f3c2f" stroke="none" d="M 299,411 C 290.060,409.589 286.657,407.779 284.561,403.320 C 284.041,402.213 283.520,401.107 283,400 C 283.857,393.142 285.250,391.024 286.290,395 C 287.035,397.850 288.905,397.498 294.548,393.439 C 299.756,389.694 312.391,382.280 320,378.506 C 329.544,373.772 350.154,367.648 363.500,365.580 C 380.276,362.981 383.195,362.869 391,364.528 C 408.131,368.169 414.892,367.904 405.854,363.947 C 402.966,362.683 396.953,361.658 388,360.904 C 377.585,360.027 374.532,359.452 374.639,358.384 C 374.749,357.293 377.234,357 386.389,357 C 390.259,357 394.130,357 398,357 C 430.098,361.221 448.582,368.360 450.429,377.250 C 450.619,378.167 450.810,379.083 451,380 C 450.674,381.475 450.349,382.951 450.023,384.426 C 449.486,386.861 448.586,389.111 447,390 C 446.752,390 446.503,390 446.255,390 C 445.845,390 446.035,389.212 446.677,388.250 C 448.111,386.100 447.826,378.775 446.289,378.263 C 445.673,378.058 444.853,378.890 444.465,380.112 C 443.951,381.730 442.977,382.333 440.880,382.333 C 439.063,382.333 437.999,381.811 437.998,380.917 C 437.997,379.877 436.397,379.441 431.981,379.276 C 428.673,379.153 425.080,378.577 423.997,377.998 C 422.099,376.982 415.177,375.278 410,374.552 C 408.625,374.359 403.953,373.674 399.618,373.029 C 390.694,371.702 365.594,372.239 357,373.941 C 345.918,376.136 322.894,383.919 320.016,386.443 C 319.182,387.174 316.170,388.940 313.321,390.367 C 310.472,391.794 307.858,393.421 307.512,393.981 C 307.166,394.541 306.121,395.013 305.191,395.028 C 304.261,395.043 302.150,396.441 300.500,398.134 C 298.850,399.827 296.414,401.632 295.087,402.144 C 291.218,403.636 293.987,405.511 298.174,404.234 C 299.283,403.896 300.391,403.558 301.500,403.220 C 300.750,403.895 300,404.569 299.250,405.244 C 296.463,407.751 296.344,410 299,410 C 299,410.333 299,410.667 299,411 Z"/></g><g id="deep-orange-2" fill="#4b3a30" stroke="none" data-color-group="#4b3a30"><path id="306" d="M 332,463 C 342.462,460.562 345.837,459.887 346.250,459.927 C 346.500,459.951 346.750,459.976 347,460 C 348,460 349,460 350,460 C 348.098,460.359 346.195,460.717 344.293,461.076 C 341.154,461.668 337.697,462.626 336.612,463.207 C 334.721,464.219 334.715,464.318 336.449,465.586 C 337.980,466.706 338.830,466.618 341.981,465.010 C 349.775,461.034 362.613,460.261 380,462.722 C 381.833,462.981 383.667,463.241 385.500,463.500 C 385.700,464.997 385.899,466.493 386.099,467.990 C 386.623,471.915 386.371,472.811 384.099,475.116 C 382.669,476.566 379.790,479.585 377.699,481.825 C 375.608,484.065 373.005,486.181 371.916,486.527 C 370.827,486.873 368.923,488.168 367.685,489.406 C 365.938,491.153 363.367,491.939 356.204,492.918 C 346.625,494.227 344.945,495.249 345.326,499.533 C 345.421,500.606 343.976,498.562 342.113,494.992 C 340.984,492.828 339.855,490.664 338.726,488.500 C 339.585,491.441 340.443,494.382 341.302,497.323 C 344.371,507.834 347.972,512.710 357.758,519.610 C 361.466,522.224 366.862,525.407 375,529 C 363.728,526.092 355.843,521.789 348.427,514.500 C 337.814,504.068 332,489.129 332,472.290 C 332,469.193 332,466.097 332,463 Z"/><path id="306" d="M 604,518 C 589.174,502.650 583.338,488.600 584.269,470.500 C 584.406,467.833 584.544,465.167 584.681,462.500 C 585.984,462.227 587.287,461.955 588.590,461.682 C 590.740,461.232 592.838,460.894 593.250,460.932 C 593.500,460.955 593.750,460.977 594,461 C 594.667,461 595.333,461 596,461 C 595.039,461.185 594.077,461.370 593.116,461.555 C 591.530,461.860 589.392,462.746 588.366,463.523 C 586.570,464.883 586.580,464.937 588.628,464.968 C 589.798,464.985 592.273,464.384 594.128,463.631 C 599.108,461.609 613.104,460.764 620.305,462.052 C 630.730,463.916 631.468,464.257 631.825,467.357 C 632.236,470.923 628.874,475.796 621.244,482.691 C 610.882,492.056 608.620,493.613 605.039,493.842 C 603.136,493.964 601.223,494.500 600,496 C 598.451,495.585 596.903,495.169 595.354,494.754 C 590.768,493.524 590.717,493.536 592,498 C 592.324,499.052 592.648,500.104 592.972,501.156 C 594.157,505.004 597.882,510.693 604,518 Z"/></g><g id="orange-4" fill="#c18e6a" stroke="none" data-color-group="#c18e6a"><path id="492" d="M 347,460 C 348.771,457.773 368.299,456.337 404.250,455.789 C 419.964,455.550 429,455.044 429,454.404 C 429,453.850 427.378,453.350 425.396,453.294 C 420.607,453.158 419.069,451.567 422.143,449.929 C 423.440,449.238 425.059,447.960 425.742,447.087 C 427.164,445.269 431.590,436.395 432.430,433.676 C 433.667,429.674 436.512,432.695 442.156,444.006 C 447.261,454.236 447.898,456.192 447.946,461.790 C 447.984,466.136 447.399,469.259 446.054,471.895 C 444.984,473.993 443.812,478.138 443.450,481.105 C 442.666,487.539 439.371,501.175 437.544,505.548 C 436.827,507.265 433.498,511.856 430.146,515.751 C 425.589,521.046 422.111,523.903 416.359,527.078 C 409.348,530.948 407.779,531.399 398.643,532.172 C 392.077,532.727 388.340,532.671 387.810,532.010 C 387.540,531.673 387.270,531.337 387,531 C 406.396,527.860 413.238,524.876 423.338,515.156 C 434.734,504.188 438.990,493.860 439.741,475.355 C 440.318,461.148 441.801,462.682 425.346,460.466 C 409.367,458.314 382.704,457.613 365.250,458.887 C 360.167,459.258 355.083,459.629 350,460 C 349,460 348,460 347,460 Z"/><path id="492" d="M 426.500,524 C 426.775,524 427,524.225 427,524.500 C 427,524.775 426.775,525 426.500,525 C 426.225,525 426,524.775 426,524.500 C 426,524.225 426.225,524 426.500,524 Z"/></g><g id="dark-orange-3" fill="#241810" stroke="none" data-color-group="#241810"><path id="485" d="M 688.250,465.726 C 690.451,467.718 690.535,471 688.386,471 C 687.103,471 686.903,471.665 687.405,474.250 C 689.750,486.315 688.491,492.577 681.683,502.715 C 679.078,506.595 677.924,507.483 675.324,507.607 C 673.577,507.691 670.057,509.170 667.502,510.894 C 664.947,512.618 662.465,513.787 661.986,513.491 C 661.507,513.195 659.402,514.761 657.308,516.969 C 653.748,520.723 653.062,521.015 646.787,521.464 C 640.719,521.898 639.927,521.734 638.537,519.750 C 636.420,516.727 636.600,516 639.465,516 C 640.871,516 642.370,515.176 642.955,514.083 C 643.718,512.656 645.071,512.166 648.241,512.161 C 654.078,512.153 658.133,510.510 657.351,508.472 C 656.976,507.494 657.791,505.783 659.467,504.034 C 661.380,502.037 662.003,500.585 661.553,499.167 C 660.789,496.759 663.611,487.327 665.942,484.500 C 666.849,483.400 668.246,481.191 669.046,479.592 C 669.846,477.993 671.268,476.483 672.207,476.237 C 673.987,475.770 676.543,469.688 675.600,468.162 C 675.302,467.680 672.332,466.707 669,466 C 665.668,465.293 662.702,464.326 662.409,463.853 C 662.116,463.380 660.875,463.244 659.650,463.552 C 656.899,464.243 651.653,462.370 652.500,461 C 653.663,459.119 685.617,463.343 688.250,465.726 Z"/><path id="485" d="M 427.184,484.518 C 427.469,484.803 427.780,487.647 427.876,490.840 C 428.061,497.006 426.882,499.039 422.311,500.430 C 419.640,501.243 418,498.717 418,493.788 C 418,490.584 420.645,487 423.011,487 C 423.555,487 424,486.325 424,485.500 C 424,484.069 426.091,483.425 427.184,484.518 Z"/><path id="485" d="M 399.457,515.345 C 401.236,516.028 401.511,518.566 399.913,519.554 C 399.315,519.924 398.378,519.778 397.831,519.231 C 397.171,518.571 395.903,518.587 394.065,519.281 C 390.952,520.456 387.627,519.618 388.230,517.810 C 388.448,517.156 389.870,515.694 391.391,514.561 C 393.993,512.621 394.231,512.602 395.427,514.234 C 396.126,515.188 396.972,515.695 397.306,515.361 C 397.640,515.027 398.608,515.019 399.457,515.345 Z"/></g><g id="muted-orange" data-color-group="#7c6a5f"><path id="241" fill="#7c6a5f" stroke="none" d="M 282,395 C 288.013,382.623 321.148,365.084 351,358.477 C 356.695,357.217 363.253,356.840 378.250,356.909 C 384.833,356.939 391.417,356.970 398,357 C 394.130,357 390.259,357 386.389,357 C 377.234,357 374.749,357.293 374.639,358.384 C 374.532,359.452 377.585,360.027 388,360.904 C 396.953,361.658 402.966,362.683 405.854,363.947 C 414.892,367.904 408.131,368.169 391,364.528 C 383.195,362.869 380.276,362.981 363.500,365.580 C 350.154,367.648 329.544,373.772 320,378.506 C 312.391,382.280 299.756,389.694 294.548,393.439 C 288.905,397.498 287.035,397.850 286.290,395 C 285.250,391.024 283.857,393.142 283,400 C 282.667,398.333 282.333,396.667 282,395 Z"/></g><g id="muted-orange-2" data-color-group="#6f5348"><path id="304" fill="#6f5348" stroke="none" d="M 575,386 C 574.667,385.667 574.333,385.333 574,385 C 574,374.318 575.637,371.263 583.305,367.636 C 591.526,363.747 607.786,359.273 619.921,357.562 C 623.614,357.041 627.307,356.521 631,356 C 631,356.241 631,356.483 631,356.724 C 631,357.122 629.088,357.616 626.750,357.821 C 615.406,358.818 602,362.230 602,364.121 C 602,365.564 606.742,365.115 607.316,363.618 C 608.491,360.556 638.751,357.208 637.759,360.250 C 637.535,360.938 635.360,361.816 632.926,362.202 C 604.191,366.759 590.977,370.840 584.319,377.214 C 581.983,379.451 580.468,380.131 578.620,379.778 C 576.409,379.355 576.036,379.705 575,386 Z"/></g><g id="orange-5" data-color-group="#8d5435"><path id="495" fill="#8d5435" stroke="none" d="M 642,382 C 642,383.550 640.647,384 638.993,384 C 631.919,384 615.009,387.295 605.147,390.596 C 596.905,393.354 593.540,394.029 590.250,393.580 C 588.833,393.387 587.417,393.193 586,393 C 586.866,391.450 588.666,391 590.559,391 C 591.706,391 592.853,391 594,391 C 609.888,386.225 618.662,384.200 623.750,383.419 C 626.833,382.946 629.917,382.473 633,382 C 636,382 639,382 642,382 Z"/></g><g id="orange-6" data-color-group="#905a3c"><path id="497" fill="#905a3c" stroke="none" d="M 693,469 C 693,467 693,465 693,463 C 696.870,463 697.067,463.417 696.500,466 C 696.138,467.650 695.202,469 694.421,469 C 693.947,469 693.474,469 693,469 Z"/></g></svg>