<svg xmlns="http://www.w3.org/2000/svg" viewBox="0 0 1024 1024"><g id="light-orange" data-color-group="#dcb792"><path id="812" fill="#dcb792" stroke="none" d="M 806,761 C 805.668,759.838 806.568,757.362 807.786,754.750 C 808.524,753.167 809.262,751.583 810,750 C 810.769,748.750 811.539,747.500 812.308,746.250 C 813.578,744.188 815.227,740.925 815.973,739 C 816.719,737.075 817.914,734.806 818.630,733.959 C 820.503,731.741 822.312,722.359 821.478,719.195 C 820.340,714.878 820.225,709.979 821.248,709.347 C 821.771,709.024 821.905,706.848 821.548,704.470 C 821.156,701.858 821.314,699.924 821.952,699.530 C 823.550,698.542 823.201,694.411 821.392,692.910 C 820.044,691.791 819.596,691.812 818.622,693.038 C 817.027,695.046 814.043,696.612 810.209,697.454 C 808.435,697.844 806.541,698.988 806.001,699.998 C 804.999,701.871 797.763,704.196 792.750,704.255 C 790.736,704.279 790,704.790 790,706.168 C 790,708.244 787.649,709.378 781.310,710.357 C 778.622,710.772 776.871,710.601 776.424,709.878 C 775.953,709.116 777.093,708.715 779.950,708.640 C 784.974,708.508 786.108,707.372 782.560,706.023 C 781.152,705.488 780,704.364 780,703.525 C 780,701.324 777.258,701.650 776,704 C 774.716,706.400 771.459,706.637 770.598,704.394 C 770.168,703.274 769.259,702.969 767.595,703.387 C 765.931,703.805 765.022,703.499 764.592,702.379 C 764.202,701.362 763.246,700.964 761.989,701.293 C 760.896,701.579 759.744,701.393 759.427,700.881 C 759.110,700.369 757.118,701.322 755,703 C 751.138,706.059 749.595,705.802 749.526,702.086 C 749.484,699.825 746.919,699.590 746.343,701.795 C 746.041,702.949 744.718,704.012 743.228,704.297 C 740.983,704.726 740.494,704.334 739.568,701.362 C 738.713,698.616 737.916,697.868 735.575,697.610 C 733.647,697.398 732.372,696.534 731.832,695.075 C 731.215,693.407 730.504,693.023 728.948,693.517 C 727.781,693.887 725.387,693.463 723.443,692.540 C 721.551,691.642 718.090,690.913 715.752,690.919 C 704.427,690.949 701.170,690.367 697.650,687.682 C 695.716,686.207 693.367,685 692.431,685 C 691.495,685 689.710,683.900 688.465,682.556 C 686.630,680.577 685.248,680.121 681.188,680.152 C 674.204,680.206 672.031,679.295 670.471,675.655 C 670.020,674.603 669.570,673.552 669.119,672.500 C 668.727,673.600 668.336,674.701 667.944,675.801 C 666.555,679.701 663.333,679.913 663.762,676.076 C 663.906,674.788 663.540,673.150 662.948,672.437 C 662.356,671.724 661.691,669.872 661.471,668.321 C 661.251,666.770 660.784,664.375 660.434,663 C 658.907,657.002 658.842,654.891 660.135,653.260 C 661.325,651.759 661.227,651.415 659.376,650.586 C 658.208,650.063 656.727,648.792 656.084,647.763 C 655.326,646.549 654.256,646.101 653.038,646.488 C 651.744,646.899 650.976,646.497 650.562,645.194 C 649.674,642.398 642.999,637.408 638.995,636.549 C 633.919,635.460 615.705,635.252 614.317,636.268 C 613.599,636.793 612.197,636.520 610.752,635.573 C 608.815,634.304 607.901,634.235 605.853,635.201 C 603.583,636.272 603.275,636.160 602.725,634.058 C 602.167,631.925 601.711,631.772 597.368,632.262 C 594.063,632.634 591.921,632.339 590.318,631.289 C 587.710,629.580 585,630.181 585,632.469 C 585,634.309 581.895,634.495 580.158,632.758 C 579.178,631.778 578.757,631.776 578.157,632.746 C 577.600,633.647 576.498,633.716 574.027,633.008 C 571.691,632.338 570.242,632.383 569.309,633.158 C 568.296,633.999 567.531,633.886 566.223,632.702 C 565.095,631.681 563.094,631.238 560.532,631.441 C 558.359,631.613 555.782,631.256 554.806,630.647 C 553.420,629.782 552.655,629.916 551.311,631.260 C 549.683,632.888 549.438,632.836 546.781,630.290 C 544.180,627.798 543.851,627.721 542.336,629.236 C 540.821,630.751 540.455,630.686 537.402,628.357 C 534.885,626.437 533.686,626.076 532.337,626.831 C 531.054,627.549 529.570,627.311 526.928,625.963 C 523.728,624.331 522.693,624.252 518.393,625.310 C 515.312,626.068 509.981,626.302 504,625.943 C 498.775,625.629 489.004,625.516 482.287,625.691 C 471.471,625.973 469.967,625.808 469.136,624.254 C 468.313,622.717 466.748,622.524 456.485,622.694 C 444.938,622.885 434.693,621.631 432.250,619.729 C 431.420,619.083 430.511,619.162 429.545,619.963 C 428.376,620.933 427.443,620.692 424.795,618.733 C 422.983,617.392 420.712,616.018 419.750,615.679 C 418.788,615.340 418,614.110 418,612.945 C 418,611.510 417.033,610.461 415,609.694 C 412.300,608.675 412,608.126 412,604.213 C 412,600.373 411.775,599.937 410.071,600.478 C 408.519,600.971 408.079,600.544 407.821,598.295 C 407.503,595.525 407.444,595.503 401.250,595.842 C 397.190,596.064 395,595.801 395,595.092 C 395,594.491 395.845,594 396.878,594 C 399.116,594 401.433,591.509 400.540,590.064 C 400.119,589.384 399.262,589.444 397.979,590.245 C 395.347,591.889 393.024,589.799 394.621,587.225 C 395.977,585.039 396.211,569.686 394.939,566.340 C 394.120,564.187 394.420,563.411 396.991,561.009 C 398.646,559.463 400,557.302 400,556.206 C 400,555.111 400.706,553.943 401.569,553.612 C 402.642,553.200 402.927,552.345 402.470,550.906 C 401.917,549.164 402.131,548.907 403.714,549.409 C 405.123,549.856 407.150,548.552 411.420,544.449 C 414.607,541.387 416.997,538.664 416.731,538.398 C 416.465,538.132 414.617,538.609 409,541 C 417.398,534.576 417.920,533.871 416,534.333 C 414.625,534.664 411.138,535.399 408.250,535.967 C 406.500,536.311 404.750,536.656 403,537 C 404.330,536.473 405.661,535.947 406.991,535.420 C 412.197,533.358 412.732,532.283 409.306,530.766 C 407.762,530.083 405.922,528.843 405.214,528.012 C 404.506,527.181 403.556,526.081 403.104,525.569 C 402.652,525.057 402.463,523.932 402.684,523.069 C 403.485,519.941 399.582,518.873 393.314,520.506 C 387.065,522.134 376.436,522.515 375.587,521.141 C 375.295,520.669 378.744,520.029 383.252,519.720 C 387.821,519.407 391.569,518.681 392,517 C 400.555,514.586 405.823,511.980 409.227,509.651 C 416.879,504.415 423.400,495.312 425.511,486.920 C 426.007,484.947 426.504,482.973 427,481 C 427.333,475 427.667,469 428,463 C 443.112,465.343 449.627,466.778 452.227,467.701 C 457.244,469.482 459.100,469.029 457.026,466.531 C 455.238,464.377 437.791,459.198 424.652,456.922 C 411.663,454.672 388.109,452.443 369.250,451.681 C 361.962,451.387 356,450.888 356,450.573 C 356,450.382 356,450.191 356,450 C 356.178,449.563 356.357,449.125 356.535,448.688 C 356.847,447.923 355.908,446.795 354.285,445.985 C 349.903,443.798 346,439.821 346,437.541 C 346,436.394 344.591,433.746 342.869,431.657 C 340.034,428.218 339.793,427.396 340.317,422.968 C 340.637,420.265 342.328,415.506 344.096,412.328 C 347.198,406.752 347.245,406.492 345.647,403.708 C 343.593,400.128 343.524,397 345.500,397 C 346.325,397 347,396.325 347,395.500 C 347,394.675 346.495,394 345.878,394 C 345.102,394 345.140,393.536 346,392.500 C 346.685,391.675 348.076,391 349.092,391 C 350.108,391 352.498,390.124 354.404,389.054 C 356.379,387.945 358.014,387.541 358.205,388.114 C 358.407,388.719 359.727,388.501 361.520,387.566 C 363.159,386.711 365.400,386.007 366.500,386 C 367.600,385.993 369.820,385.299 371.433,384.458 C 375.865,382.147 394.385,381.965 399.019,384.187 C 400.954,385.115 403.879,385.713 405.519,385.517 C 407.159,385.321 410.300,385.548 412.500,386.023 C 418.958,387.416 425,387.875 425,386.972 C 425,386.091 421.878,384.868 418.500,384.425 C 417.400,384.281 414.491,383.437 412.035,382.550 C 404.008,379.650 393.713,377.886 381.500,377.317 C 367.878,376.683 362.697,377.316 335,383 C 336.583,382.475 338.167,381.950 339.750,381.425 C 342.362,380.559 349.675,378.728 356,377.356 C 366.235,375.136 369.095,374.918 382,375.375 C 394.071,375.803 398.929,376.483 411,379.437 C 430.035,384.096 437.169,384.194 445.500,379.912 C 448.800,378.216 452.454,375.785 453.621,374.509 C 457.835,369.899 457.492,360.437 452.898,354.597 C 449.975,350.880 442.879,347.522 430.771,344.122 C 407.745,337.657 388.680,336.172 365,339 C 361.917,339.486 358.833,339.973 355.750,340.459 C 335.414,343.666 320.696,349.313 297,363 C 293.667,365 290.333,367 287,369 C 287.917,368.045 288.833,367.090 289.750,366.135 C 292.954,362.797 298.788,358.853 308.250,353.629 C 315.548,349.600 317.015,347.541 311.750,348.719 C 308.003,349.557 302.002,347.763 301.995,345.802 C 301.992,345.086 300.481,342.856 298.636,340.848 C 296.142,338.132 295.146,335.991 294.752,332.494 C 294.460,329.908 293.272,326.506 292.111,324.936 C 290.950,323.366 290,321.457 290,320.694 C 290,319.931 289.284,317.871 288.408,316.115 C 287.532,314.359 287.074,312.248 287.391,311.422 C 287.708,310.596 287.580,309.151 287.106,308.210 C 284.775,303.584 283,298.738 283,297.001 C 283,295.939 282.100,294.589 281,294 C 279.757,293.335 279,291.906 279,290.224 C 279,287.727 279.161,287.620 281.097,288.829 C 283.970,290.623 285.056,289.155 282.250,287.269 C 281.013,286.437 280,285.152 280,284.413 C 280,283.674 278.987,282.519 277.750,281.846 C 277,281.438 276.250,281.031 275.500,280.623 C 276.333,280.406 277.167,280.190 278,279.973 C 279.502,279.583 280.341,278.759 280.101,277.911 C 279.881,277.135 279.493,275.267 279.239,273.760 C 278.984,272.253 278.426,271.236 277.999,271.500 C 277.572,271.764 276.089,270.494 274.703,268.677 C 272.418,265.681 272.338,265.274 273.842,264.291 C 275.158,263.431 275.247,262.942 274.274,261.927 C 273.281,260.890 272.695,260.966 271.195,262.324 C 268.656,264.622 266.672,264.425 265.424,261.750 C 264.597,259.978 264.095,259.750 263.059,260.678 C 262.111,261.527 261.267,261.559 260.039,260.792 C 257.694,259.327 247.046,260.716 246.331,262.580 C 246.031,263.361 244.925,264 243.872,264 C 241.669,264 234,268.809 234,270.190 C 234,270.698 231.161,274.488 227.692,278.611 C 222.356,284.952 219.320,290.600 218.608,295.508 C 218.528,296.062 217.427,298.192 216.161,300.240 C 214.895,302.288 214.135,304.408 214.471,304.952 C 214.807,305.496 214.392,307.276 213.548,308.907 C 212.704,310.538 212.266,312.530 212.574,313.332 C 213.522,315.803 211.025,323.180 209.068,323.692 C 207.611,324.073 207.133,325.697 206.522,332.331 C 206.108,336.824 205.628,341.175 205.454,342 C 205.280,342.825 205.107,344.288 205,347 C 204.878,347.417 204.756,347.833 204.634,348.250 C 204.433,348.938 204.722,350.073 205.277,350.774 C 205.832,351.475 205.996,352.262 205,353 C 205,351.043 204.651,350.950 204.053,351.550 C 202.908,352.698 202.188,362.954 203.250,362.981 C 203.500,362.987 203.750,362.994 204,363 C 203.689,363.377 203.379,363.755 203.068,364.132 C 199.991,367.869 195.541,420.368 194.559,464.500 C 193.311,520.623 192.954,540.583 192,608 C 191.647,608.199 191.294,608.397 190.941,608.596 C 189.760,609.260 189.211,604.083 188.544,586 C 188.035,572.178 186.337,571.941 185.336,585.553 C 184.055,602.983 184.129,604.956 188,656 C 188,661.333 188,666.667 188,672 C 187.766,672 187.531,672 187.297,672 C 186.910,672 186.199,665.588 185.717,657.750 C 185.235,649.912 184.650,641.025 184.417,638 C 184.184,634.975 183.822,609.415 183.612,581.199 C 183.402,552.983 182.954,529.695 182,529 C 182,524.333 182,519.667 182,515 C 182.250,515.001 182.500,515.001 182.750,515.002 C 183.163,515.003 183.638,509.378 183.807,502.502 C 184.011,494.190 183.760,490 182,490 C 182.195,488.905 182.389,487.810 182.584,486.715 C 182.905,484.908 182.681,481.083 181,473 C 181.479,472.750 181.957,472.500 182.436,472.250 C 183.520,471.684 183.948,468.821 184.180,460.581 C 184.408,452.505 184.164,449.576 182,449 C 182,443.333 182,437.667 182,432 C 182.500,431.844 183,431.687 183.500,431.531 C 185.900,430.781 185.445,409.367 183,408 C 183,402.333 183,396.667 183,391 C 183.486,390.750 183.973,390.500 184.459,390.250 C 185.530,389.699 186.037,386.975 186.365,380 C 186.611,374.775 187.549,365.341 188.450,359.037 C 190.068,347.713 190.063,347.553 186,344 C 186.511,343.750 187.022,343.500 187.533,343.250 C 189.319,342.377 191.200,332.271 190,330 C 190.663,329.583 191.326,329.167 191.989,328.750 C 195.213,326.724 199.394,306.909 197,305 C 197.263,304.583 197.527,304.167 197.790,303.750 C 198.225,303.062 199.350,299.913 202,291 C 202.227,291 202.453,291 202.680,291 C 204.949,291 206.989,284.392 207,277 C 207.614,276.697 208.227,276.394 208.841,276.091 C 209.854,275.591 211.204,273.791 213,269 C 213.250,269.046 213.500,269.091 213.750,269.137 C 215.552,269.466 221.839,261.822 228.879,250.744 C 230.187,248.685 231.811,247 232.487,247 C 233.163,247 237.031,243.193 241.082,238.540 C 253.720,224.023 279.116,207.472 299.228,200.644 C 310.903,196.680 335.642,190.700 347.500,188.976 C 383.780,183.700 413.848,182.719 518.500,183.395 C 605.468,183.957 644.382,185.174 663.099,187.919 C 666.728,188.451 673.028,189.155 677.099,189.483 C 681.170,189.811 685.241,190.302 686.146,190.574 C 687.051,190.846 689.220,191.249 690.966,191.470 C 692.712,191.691 694.672,192.291 695.321,192.802 C 697.029,194.148 714.605,198.999 717.795,199.005 C 719.283,199.008 721.737,199.908 726,203 C 726,203.460 726,203.919 726,204.379 C 726,205.137 727.463,206.362 729.250,207.102 C 731.037,207.842 735.377,210.596 738.893,213.223 C 742.409,215.850 745.624,218 746.037,218 C 746.450,218 748.209,219.327 749.945,220.949 C 754.278,224.997 757.283,225.761 758,223 C 758.333,223.333 758.667,223.667 759,224 C 758.968,224.250 758.937,224.500 758.905,224.750 C 758.613,227.055 764.611,230.945 767,230 C 770.333,232.667 773.667,235.333 777,238 C 776.750,237.998 776.500,237.996 776.250,237.994 C 775.838,237.991 775.355,238.666 775.177,239.494 C 774.999,240.322 775.509,241 776.310,241 C 777.111,241 778.012,241.939 778.312,243.087 C 778.674,244.471 779.387,244.976 782,244 C 783.667,245.333 785.333,246.667 787,248 C 786.750,247.998 786.500,247.996 786.250,247.994 C 783.901,247.975 785.697,251.113 790.507,255.433 C 793.528,258.146 796,260.993 796,261.757 C 796,262.581 796.611,262.913 799,262 C 799.333,262.333 799.667,262.667 800,263 C 799.809,263.500 799.618,264 799.427,264.500 C 799.067,265.441 799.440,266 802,266 C 803.333,267 804.667,268 806,269 C 807.333,271.333 808.667,273.667 810,276 C 809.605,276.104 809.211,276.207 808.816,276.311 C 806.564,276.903 815.434,294.953 818,295 C 818.377,295.750 818.755,296.500 819.132,297.250 C 819.755,298.487 820.880,301.188 823,307 C 823.333,308 823.667,309 824,310 C 824.550,311.650 825.506,314.462 826.125,316.250 C 826.744,318.038 827.469,320.962 827.735,322.750 C 828.001,324.538 828.619,326 829.109,326 C 829.599,326 829.940,326.337 829.866,326.750 C 829.792,327.163 830.018,328.962 831,334 C 830.750,333.998 830.500,333.995 830.250,333.993 C 829.838,333.989 829.356,334.889 829.180,335.993 C 828.974,337.286 829.420,338 832,338 C 832.158,338.417 832.317,338.833 832.475,339.250 C 833.411,341.711 837.214,371.719 838.020,383 C 838.472,389.325 838.980,402.749 839.148,412.831 C 839.316,422.913 839.802,431.377 840.227,431.640 C 841.222,432.255 841.243,448.732 840.250,449.344 C 839.838,449.598 839.725,455.362 840,462.153 C 840.275,468.944 840.436,487.550 840.359,503.500 C 840.282,519.450 840.122,555.225 840.004,583 C 839.886,610.775 839.440,633.950 839.014,634.500 C 838.588,635.050 837.949,639.100 837.593,643.500 C 837.237,647.900 836.483,657.350 835.917,664.500 C 834.241,685.682 830.633,704.935 825.390,720.676 C 824.075,724.623 823,728.626 823,729.571 C 823,731.784 816.530,745.314 812.991,750.500 C 811.490,752.700 809.303,755.963 806,761 ZM 640,518 C 652.031,517.059 659.379,514.626 666.476,509.233 C 677.963,500.505 683.144,489.959 683.662,474.250 C 683.775,470.833 683.887,467.417 684,464 C 685.583,464.013 687.167,464.027 688.750,464.040 C 691.362,464.062 696.875,464.680 701,465.415 C 712.962,467.546 711.803,465.695 698.500,461.424 C 682.393,456.252 665.340,454.903 592,453 C 592.521,452.805 593.043,452.609 593.564,452.414 C 594.424,452.092 595.377,451.181 595.681,450.389 C 596.110,449.271 596.548,449.210 597.641,450.117 C 598.415,450.759 599.327,451.007 599.667,450.667 C 600.747,449.587 597.646,446.740 593.285,444.806 C 588.439,442.658 585.998,439.724 586.729,436.928 C 587.428,434.256 582.738,422 581.017,422 C 578.734,422 567.299,440.406 563,451 C 562.158,453.250 561.316,455.500 560.474,457.750 C 559.085,461.462 557.960,465.461 557.974,466.635 C 557.988,467.809 558.675,471.072 561,479 C 560.971,479.250 560.941,479.500 560.912,479.750 C 560.863,480.163 559.851,478.750 558.662,476.610 C 556.877,473.397 556.500,471.087 556.500,463.345 C 556.500,460.220 556.500,457.095 556.500,453.970 C 555.868,454.837 555.236,455.704 554.604,456.571 C 553.561,458.002 552.579,460.785 552.423,462.757 C 552.264,464.759 551.446,466.709 549,468 C 549.221,468.583 549.443,469.167 549.664,469.750 C 550.029,470.712 550.411,472.625 550.513,474 C 551.065,481.427 552.152,488.486 552.887,489.429 C 553.346,490.018 553.973,492.136 554.280,494.135 C 554.792,497.475 554.663,497.725 552.687,497.208 C 550.800,496.714 550.656,496.902 551.518,498.739 C 552.058,499.890 553.625,500.982 555,501.166 C 557.666,501.522 557.564,501.204 558.625,512.500 C 559.246,519.108 561.081,522 564.655,522 C 566.677,522 567,522.491 567,525.567 C 567,528.707 567.245,529.057 569.048,528.485 C 571.647,527.660 574,529.575 574,532.516 C 574,534.116 576.293,536.739 581.750,541.382 C 589.701,548.147 590.759,548.568 594.910,546.627 C 597.107,545.599 597.273,545.690 596.780,547.650 C 596.388,549.209 596.993,550.358 598.978,551.826 C 601.327,553.563 603.406,553.875 613.608,554.025 C 623.519,554.171 626.991,553.789 634.454,551.737 C 644.075,549.091 646.597,547.112 640.313,547.140 C 638.216,547.149 631.325,546.656 625,546.044 C 614.422,545.020 612.778,544.567 604.500,540.394 C 599.550,537.899 594.191,534.876 592.592,533.678 C 588.629,530.709 577.013,518.718 577.006,517.588 C 577.003,517.086 575.610,514.508 573.910,511.859 C 572.210,509.210 571.085,506.583 572,505 C 573.388,507.518 574.776,510.037 576.164,512.555 C 583.392,525.668 598.108,537.382 613.709,542.443 C 617.314,543.612 622.857,544.190 631.709,544.317 C 642.982,544.479 645.390,544.203 652,542.001 C 654.500,541.168 657,540.335 659.500,539.502 C 653.333,539.668 647.167,539.834 641,540 C 644.260,539.482 647.520,538.965 650.780,538.447 C 656.159,537.593 661.330,537.189 662.271,537.550 C 664.163,538.276 674,535.099 674,533.762 C 674,533.299 672.164,533.470 669.921,534.142 C 666.647,535.123 665.687,535.111 665.051,534.082 C 664.615,533.377 662.738,532.485 660.879,532.099 C 658.185,531.540 657.560,530.971 657.797,529.292 C 658.030,527.640 657.276,526.908 654.297,525.894 C 651.679,525.003 651.061,524.481 652.307,524.216 C 654.798,523.686 654.001,520.425 651.462,520.756 C 641.496,522.055 635.526,522.086 628.967,520.877 C 626.478,520.418 623.989,519.959 621.500,519.500 C 624.583,519.618 627.667,519.735 630.750,519.853 C 637.037,520.093 640,519.852 640,518 ZM 640,338 C 623.476,338 609.391,339.864 594.654,344.002 C 579.548,348.244 573.701,351.077 570.068,355.915 C 569.045,357.277 568.023,358.638 567,360 C 565.667,363 564.333,366 563,369 C 563.007,370.417 563.015,371.833 563.022,373.250 C 563.036,375.884 563.776,378.451 564.969,380 C 567.956,383.879 577.944,383.441 593.500,378.746 C 618.933,371.071 646.028,369.455 666.796,374.377 C 684.841,378.654 696.190,383.346 715.232,394.403 C 721.551,398.072 729.099,398.377 730,395 C 737.819,393.785 741,390.854 741,384.865 C 741,383.577 741,382.288 741,381 C 740.695,380.033 740.391,379.065 740.086,378.098 C 736.098,365.434 704.162,347.729 673.104,340.965 C 662.638,338.686 640.776,336.728 640,338 ZM 419.261,505.333 C 416.055,508.779 415.073,510.473 415.840,511.240 C 416.607,512.007 417.358,511.948 418.458,511.035 C 419.665,510.033 420.315,510.017 421.452,510.960 C 422.288,511.654 423.835,511.870 425.099,511.469 C 428.179,510.491 437.336,501.352 436.535,500.056 C 436.171,499.467 436.690,498.690 437.687,498.327 C 441.374,496.987 447.137,491.653 449.140,487.726 C 450.275,485.501 451.270,481.641 451.352,479.147 C 451.401,477.636 451.451,476.124 451.500,474.613 C 449.356,473.494 447.211,472.376 445.067,471.257 C 440.519,468.884 437.589,467.989 435.067,468.201 C 433.878,468.301 432.689,468.400 431.500,468.500 C 431.412,470.667 431.323,472.833 431.235,475 C 431.089,478.575 430.536,482.400 430.005,483.500 C 429.474,484.600 427.851,488.875 426.398,493 C 424.512,498.353 422.470,501.884 419.261,505.333 ZM 668.206,511.808 C 664.721,514.449 664.315,517.245 667.332,517.826 C 668.500,518.051 669.336,517.434 669.688,516.087 C 670.199,514.133 671.248,513.526 673.411,513.935 C 673.912,514.030 676.612,513.107 679.411,511.885 C 682.210,510.663 685.525,509.734 686.778,509.822 C 688.399,509.936 689.383,509.192 690.190,507.241 C 690.813,505.733 691.250,504.163 691.161,503.750 C 691.072,503.337 691.916,503 693.035,503 C 695.718,503 700,500.144 700,498.354 C 700,497.575 700.675,496.678 701.501,496.361 C 702.327,496.044 704.112,493.577 705.468,490.877 C 707.416,486.999 707.888,484.659 707.717,479.734 C 707.501,473.536 707.477,473.489 703.540,471.568 C 697.330,468.537 690.004,467.686 687.741,469.734 C 686.536,470.824 686.082,472.194 686.446,473.643 C 688.055,480.055 678.626,505.541 673.675,508.161 C 672.479,508.794 670.018,510.435 668.206,511.808 Z"/></g><g id="light-orange-2" fill="#d5a87e" stroke="none" data-color-group="#d5a87e"><path id="1761" d="M 810,750 C 800.346,764.030 799.652,764.722 795.204,764.753 C 793.167,764.767 789.475,765.537 787,766.462 C 773.758,771.413 751.839,775.381 726,777.506 C 711.036,778.737 668.513,778.089 656.500,776.448 C 654.300,776.147 650.700,775.696 648.500,775.443 C 646.300,775.190 643.150,774.805 641.500,774.586 C 626.857,772.646 618.518,771.717 613,771.411 C 609.425,771.213 602.909,770.581 598.520,770.007 C 594.131,769.433 589.975,769.179 589.286,769.444 C 588.597,769.709 582.963,769.465 576.766,768.903 C 570.570,768.341 563.250,767.730 560.500,767.545 C 555.446,767.205 546.010,766.198 540.500,765.410 C 538.850,765.174 532.100,764.765 525.500,764.502 C 518.900,764.239 512.600,763.821 511.500,763.573 C 510.400,763.325 504.100,762.907 497.500,762.645 C 490.900,762.383 483.700,761.958 481.500,761.701 C 479.300,761.444 472.100,760.715 465.500,760.080 C 458.900,759.445 452.825,758.678 452,758.375 C 451.175,758.072 447.125,757.615 443,757.358 C 438.875,757.102 432.350,756.059 428.500,755.041 C 424.650,754.023 419.475,752.913 417,752.575 C 412.641,751.980 403.586,749.620 399.500,748.014 C 396.237,746.732 389.775,745.139 385.607,744.591 C 383.466,744.309 380.675,743.104 379.407,741.913 C 378.088,740.674 376.434,740.003 375.542,740.345 C 373.322,741.197 369,739.334 369,737.525 C 369,736.470 367.994,736 365.732,736 C 362.456,736 355,731.806 355,729.964 C 355,729.434 354.121,729 353.047,729 C 351.971,729 349.651,727.204 347.880,725 C 345.509,722.049 343.930,721 341.863,721 C 339.908,721 338.389,720.092 336.842,718 C 335.622,716.350 333.799,715 332.790,715 C 330.304,715 322.348,707.522 321.580,704.464 C 321.173,702.841 320.258,702 318.899,702 C 316.222,702 307,692.830 307,690.167 C 307,689.040 306.585,687.862 306.077,687.548 C 305.569,687.234 304.855,685.617 304.490,683.955 C 304.125,682.293 302.707,680.199 301.339,679.303 C 299.719,678.242 299.019,677.033 299.332,675.837 C 299.615,674.755 299.282,674 298.521,674 C 295.905,674 289.669,662.702 290.219,658.958 C 290.490,657.111 290.039,655.881 288.807,655.111 C 287.365,654.210 287.222,653.617 288.107,652.200 C 289.034,650.715 288.786,650.224 286.609,649.232 C 284.381,648.217 284,647.409 284,643.709 C 284,641.326 283.114,637.542 282.031,635.301 C 280.948,633.060 280.067,629.938 280.071,628.363 C 280.088,622.243 278.990,615.432 276.989,609.239 C 275.611,604.973 274.971,600.628 275.106,596.451 C 275.250,591.989 274.827,589.385 273.669,587.618 C 272.582,585.959 272.234,584.080 272.638,582.059 C 272.982,580.339 272.758,578.414 272.125,577.651 C 271.295,576.651 271.293,575.457 272.117,573.094 C 273.038,570.452 272.959,569.682 271.663,568.696 C 270.453,567.775 269.943,564.628 269.440,555 C 268.585,538.637 268.671,536.712 270.441,532.732 C 270.890,531.723 270.688,529.660 269.970,527.926 C 269.025,525.645 268.997,524.603 269.856,523.744 C 270.485,523.115 271,521.401 271,519.935 C 271,518.469 271.845,516.194 272.879,514.880 C 273.913,513.566 274.929,511.594 275.138,510.496 C 275.600,508.064 280.369,507.235 282.720,509.178 C 283.600,509.905 285.485,510.500 286.910,510.500 C 288.998,510.500 289.503,510.982 289.519,512.990 C 289.532,514.681 290.174,515.590 291.519,515.824 C 292.608,516.013 293.950,516.730 294.500,517.417 C 295.050,518.104 296.702,519.303 298.172,520.083 C 299.642,520.863 304.134,523.750 308.154,526.500 C 312.174,529.250 317.722,532.676 320.482,534.112 C 323.242,535.549 328.134,538.136 331.352,539.862 C 334.570,541.588 338.256,543 339.543,543 C 340.830,543 342.136,543.409 342.445,543.910 C 343.553,545.704 357.764,547.303 372.500,547.293 C 391.269,547.280 393.813,546.879 406.657,541.907 C 407.438,541.605 408.219,541.302 409,541 C 414.617,538.609 416.465,538.132 416.731,538.398 C 416.997,538.664 414.607,541.387 411.420,544.449 C 407.150,548.552 405.123,549.856 403.714,549.409 C 402.131,548.907 401.917,549.164 402.470,550.906 C 402.927,552.345 402.642,553.200 401.569,553.612 C 400.706,553.943 400,555.111 400,556.206 C 400,557.302 398.646,559.463 396.991,561.009 C 394.420,563.411 394.120,564.187 394.939,566.340 C 396.211,569.686 395.977,585.039 394.621,587.225 C 393.024,589.799 395.347,591.889 397.979,590.245 C 399.262,589.444 400.119,589.384 400.540,590.064 C 401.433,591.509 399.116,594 396.878,594 C 395.845,594 395,594.491 395,595.092 C 395,595.801 397.190,596.064 401.250,595.842 C 407.444,595.503 407.503,595.525 407.821,598.295 C 408.079,600.544 408.519,600.971 410.071,600.478 C 411.775,599.937 412,600.373 412,604.213 C 412,608.126 412.300,608.675 415,609.694 C 417.033,610.461 418,611.510 418,612.945 C 418,614.110 418.788,615.340 419.750,615.679 C 420.712,616.018 422.983,617.392 424.795,618.733 C 427.443,620.692 428.376,620.933 429.545,619.963 C 430.511,619.162 431.420,619.083 432.250,619.729 C 434.693,621.631 444.938,622.885 456.485,622.694 C 466.748,622.524 468.313,622.717 469.136,624.254 C 469.967,625.808 471.471,625.973 482.287,625.691 C 489.004,625.516 498.775,625.629 504,625.943 C 509.981,626.302 515.312,626.068 518.393,625.310 C 522.693,624.252 523.728,624.331 526.928,625.963 C 529.570,627.311 531.054,627.549 532.337,626.831 C 533.686,626.076 534.885,626.437 537.402,628.357 C 540.455,630.686 540.821,630.751 542.336,629.236 C 543.851,627.721 544.180,627.798 546.781,630.290 C 549.438,632.836 549.683,632.888 551.311,631.260 C 552.655,629.916 553.420,629.782 554.806,630.647 C 555.782,631.256 558.359,631.613 560.532,631.441 C 563.094,631.238 565.095,631.681 566.223,632.702 C 567.531,633.886 568.296,633.999 569.309,633.158 C 570.242,632.383 571.691,632.338 574.027,633.008 C 576.498,633.716 577.600,633.647 578.157,632.746 C 578.757,631.776 579.178,631.778 580.158,632.758 C 581.895,634.495 585,634.309 585,632.469 C 585,630.181 587.710,629.580 590.318,631.289 C 591.921,632.339 594.063,632.634 597.368,632.262 C 601.711,631.772 602.167,631.925 602.725,634.058 C 603.275,636.160 603.583,636.272 605.853,635.201 C 607.901,634.235 608.815,634.304 610.752,635.573 C 612.197,636.520 613.599,636.793 614.317,636.268 C 615.705,635.252 633.919,635.460 638.995,636.549 C 642.999,637.408 649.674,642.398 650.562,645.194 C 650.976,646.497 651.744,646.899 653.038,646.488 C 654.256,646.101 655.326,646.549 656.084,647.763 C 656.727,648.792 658.208,650.063 659.376,650.586 C 661.227,651.415 661.325,651.759 660.135,653.260 C 658.842,654.891 658.907,657.002 660.434,663 C 660.784,664.375 661.251,666.770 661.471,668.321 C 661.691,669.872 662.356,671.724 662.948,672.437 C 663.540,673.150 663.906,674.788 663.762,676.076 C 663.333,679.913 666.555,679.701 667.944,675.801 C 668.336,674.701 668.727,673.600 669.119,672.500 C 669.570,673.552 670.020,674.603 670.471,675.655 C 672.031,679.295 674.204,680.206 681.188,680.152 C 685.248,680.121 686.630,680.577 688.465,682.556 C 689.710,683.900 691.495,685 692.431,685 C 693.367,685 695.716,686.207 697.650,687.682 C 701.170,690.367 704.427,690.949 715.752,690.919 C 718.090,690.913 721.551,691.642 723.443,692.540 C 725.387,693.463 727.781,693.887 728.948,693.517 C 730.504,693.023 731.215,693.407 731.832,695.075 C 732.372,696.534 733.647,697.398 735.575,697.610 C 737.916,697.868 738.713,698.616 739.568,701.362 C 740.494,704.334 740.983,704.726 743.228,704.297 C 744.718,704.012 746.041,702.949 746.343,701.795 C 746.919,699.590 749.484,699.825 749.526,702.086 C 749.595,705.802 751.138,706.059 755,703 C 757.118,701.322 759.110,700.369 759.427,700.881 C 759.744,701.393 760.896,701.579 761.989,701.293 C 763.246,700.964 764.202,701.362 764.592,702.379 C 765.022,703.499 765.931,703.805 767.595,703.387 C 769.259,702.969 770.168,703.274 770.598,704.394 C 771.459,706.637 774.716,706.400 776,704 C 777.258,701.650 780,701.324 780,703.525 C 780,704.364 781.152,705.488 782.560,706.023 C 786.108,707.372 784.974,708.508 779.950,708.640 C 777.093,708.715 775.953,709.116 776.424,709.878 C 776.871,710.601 778.622,710.772 781.310,710.357 C 787.649,709.378 790,708.244 790,706.168 C 790,704.790 790.736,704.279 792.750,704.255 C 797.763,704.196 804.999,701.871 806.001,699.998 C 806.541,698.988 808.435,697.844 810.209,697.454 C 814.043,696.612 817.027,695.046 818.622,693.038 C 819.596,691.812 820.044,691.791 821.392,692.910 C 823.201,694.411 823.550,698.542 821.952,699.530 C 821.314,699.924 821.156,701.858 821.548,704.470 C 821.905,706.848 821.771,709.024 821.248,709.347 C 820.225,709.979 820.340,714.878 821.478,719.195 C 822.312,722.359 820.503,731.741 818.630,733.959 C 817.914,734.806 816.719,737.075 815.973,739 C 815.227,740.925 813.578,744.188 812.308,746.250 C 811.539,747.500 810.769,748.750 810,750 ZM 409,651 C 394.996,652.686 393.147,653.313 391.670,655.183 C 390.663,656.457 389.876,657.838 389.920,658.250 C 389.947,658.500 389.973,658.750 390,659 C 389.667,659 389.333,659 389,659 C 389,662.952 389.641,665.339 390.425,666.855 C 393.498,672.797 387.062,672.500 512.750,672.500 C 576.138,672.500 628,672.162 628,671.750 C 628,671.500 628,671.250 628,671 C 633.425,667.971 635,666.846 635,666.546 C 635,666.364 635,666.182 635,666 C 638.198,657.358 635.312,652.729 625.607,650.935 C 621.633,650.200 587.091,650.045 514.421,650.435 C 479.281,650.623 444.140,650.812 409,651 Z"/><path id="1761" d="M 205,347 C 205.107,344.288 205.280,342.825 205.454,342 C 205.628,341.175 206.108,336.824 206.522,332.331 C 207.133,325.697 207.611,324.073 209.068,323.692 C 211.025,323.180 213.522,315.803 212.574,313.332 C 212.266,312.530 212.704,310.538 213.548,308.907 C 214.392,307.276 214.807,305.496 214.471,304.952 C 214.135,304.408 214.895,302.288 216.161,300.240 C 217.427,298.192 218.528,296.062 218.608,295.508 C 219.320,290.600 222.356,284.952 227.692,278.611 C 231.161,274.488 234,270.698 234,270.190 C 234,268.809 241.669,264 243.872,264 C 244.925,264 246.031,263.361 246.331,262.580 C 247.046,260.716 257.694,259.327 260.039,260.792 C 261.267,261.559 262.111,261.527 263.059,260.678 C 264.095,259.750 264.597,259.978 265.424,261.750 C 266.672,264.425 268.656,264.622 271.195,262.324 C 272.695,260.966 273.281,260.890 274.274,261.927 C 275.247,262.942 275.158,263.431 273.842,264.291 C 272.338,265.274 272.418,265.681 274.703,268.677 C 276.089,270.494 277.572,271.764 277.999,271.500 C 278.426,271.236 278.984,272.253 279.239,273.760 C 279.493,275.267 279.881,277.135 280.101,277.911 C 280.341,278.759 279.502,279.583 278,279.973 C 277.167,280.190 276.333,280.406 275.500,280.623 C 276.250,281.031 277,281.438 277.750,281.846 C 278.987,282.519 280,283.674 280,284.413 C 280,285.152 281.013,286.437 282.250,287.269 C 285.056,289.155 283.970,290.623 281.097,288.829 C 279.161,287.620 279,287.727 279,290.224 C 279,291.906 279.757,293.335 281,294 C 282.100,294.589 283,295.939 283,297.001 C 283,298.738 284.775,303.584 287.106,308.210 C 287.580,309.151 287.708,310.596 287.391,311.422 C 287.074,312.248 287.532,314.359 288.408,316.115 C 289.284,317.871 290,319.931 290,320.694 C 290,321.457 290.950,323.366 292.111,324.936 C 293.272,326.506 294.460,329.908 294.752,332.494 C 295.146,335.991 296.142,338.132 298.636,340.848 C 300.481,342.856 301.992,345.086 301.995,345.802 C 302.002,347.763 308.003,349.557 311.750,348.719 C 317.015,347.541 315.548,349.600 308.250,353.629 C 298.788,358.853 292.954,362.797 289.750,366.135 C 288.833,367.090 287.917,368.045 287,369 C 272.272,383.725 267.357,388 266.575,388 C 265.793,388 263.821,389.122 262.192,390.492 C 259.612,392.663 259.072,392.792 257.993,391.492 C 257.312,390.672 256.205,390 255.531,390 C 252.514,390 249.787,386.049 249.348,381.042 C 249.038,377.502 248.473,376 247.453,376 C 246.512,376 246,374.965 246,373.065 C 246,371.451 245.497,368.863 244.882,367.315 C 244.267,365.767 243.588,362.250 243.375,359.500 C 243.162,356.750 242.694,353.375 242.335,352 C 241.976,350.625 241.616,349.050 241.534,348.500 C 241.452,347.950 241.122,346.825 240.798,346 C 239.228,341.995 236.987,332.952 236.396,328.228 C 236.033,325.328 235.346,322.714 234.868,322.419 C 234.390,322.124 233.985,320.896 233.967,319.691 C 233.932,317.358 230.830,313 229.206,313 C 228.671,313 227.985,312.052 227.682,310.892 C 227.025,308.379 225.566,308.952 220.562,313.686 C 217.214,316.854 214.328,323.315 208.901,339.789 C 207.580,343.798 206.163,347.060 205.750,347.039 C 205.500,347.026 205.250,347.013 205,347 Z"/><path id="1761" d="M 356,450 C 349.894,449.222 347.870,449.402 347.563,449.898 C 346.769,451.182 335.249,451.074 330.500,449.737 C 328.300,449.118 324.925,447.653 323,446.482 C 321.075,445.311 318.712,444.063 317.750,443.708 C 315.478,442.870 315.541,440.258 318,433.260 C 319.100,430.130 320,426.756 320,425.762 C 320,424.768 321.901,421.828 324.223,419.228 C 328.424,414.525 328.428,414.510 325.140,416.500 C 320.271,419.447 314.812,424.724 309.621,431.500 C 307.093,434.800 303.908,438.850 302.543,440.500 C 301.178,442.150 300.047,444.088 300.030,444.808 C 300.013,445.528 297.975,448.115 295.500,450.558 C 294,452.039 292.500,453.519 291,455 C 289.554,455 288.884,455.790 288.578,456.755 C 288.272,457.720 285.733,460.983 282.938,464.005 C 280.143,467.027 277.326,470.223 276.678,471.107 C 274.165,474.534 271.608,474.212 267.276,469.923 C 262.388,465.083 260.107,460.626 258.937,453.634 C 258.465,450.810 257.544,445.961 256.891,442.857 C 256.237,439.749 256.063,436.380 256.504,435.357 C 256.944,434.336 257.429,431.250 257.581,428.500 C 258.229,416.805 258.573,415.510 261.534,413.570 C 263.526,412.265 266.360,411.675 270.982,411.603 C 276.098,411.523 278.778,410.881 282.886,408.749 C 285.802,407.236 288.596,406.250 289.094,406.558 C 289.592,406.866 290,406.622 290,406.015 C 290,405.408 290.564,405.042 291.253,405.200 C 291.942,405.358 293.855,404.541 295.503,403.383 C 297.151,402.225 300.300,400.697 302.500,399.987 C 304.700,399.277 309.425,396.897 313,394.696 C 319.393,390.760 324.095,388.210 331.337,384.750 C 332.558,384.167 333.779,383.583 335,383 C 362.697,377.316 367.878,376.683 381.500,377.317 C 393.713,377.886 404.008,379.650 412.035,382.550 C 414.491,383.437 417.400,384.281 418.500,384.425 C 421.878,384.868 425,386.091 425,386.972 C 425,387.875 418.958,387.416 412.500,386.023 C 410.300,385.548 407.159,385.321 405.519,385.517 C 403.879,385.713 400.954,385.115 399.019,384.187 C 394.385,381.965 375.865,382.147 371.433,384.458 C 369.820,385.299 367.600,385.993 366.500,386 C 365.400,386.007 363.159,386.711 361.520,387.566 C 359.727,388.501 358.407,388.719 358.205,388.114 C 358.014,387.541 356.379,387.945 354.404,389.054 C 352.498,390.124 350.108,391 349.092,391 C 348.076,391 346.685,391.675 346,392.500 C 345.140,393.536 345.102,394 345.878,394 C 346.495,394 347,394.675 347,395.500 C 347,396.325 346.325,397 345.500,397 C 343.524,397 343.593,400.128 345.647,403.708 C 347.245,406.492 347.198,406.752 344.096,412.328 C 342.328,415.506 340.637,420.265 340.317,422.968 C 339.793,427.396 340.034,428.218 342.869,431.657 C 344.591,433.746 346,436.394 346,437.541 C 346,439.821 349.903,443.798 354.285,445.985 C 355.908,446.795 356.847,447.923 356.535,448.688 C 356.357,449.125 356.178,449.563 356,450 Z"/><path id="1761" d="M 549,468 C 551.446,466.709 552.264,464.759 552.423,462.757 C 552.579,460.785 553.561,458.002 554.604,456.571 C 555.236,455.704 555.868,454.837 556.500,453.970 C 556.500,457.095 556.500,460.220 556.500,463.345 C 556.500,471.087 556.877,473.397 558.662,476.610 C 559.851,478.750 560.863,480.163 560.912,479.750 C 560.941,479.500 560.971,479.250 561,479 C 565.730,485.632 568.135,491.313 569.527,496.243 C 570.351,499.162 571.176,502.081 572,505 C 571.085,506.583 572.210,509.210 573.910,511.859 C 575.610,514.508 577.003,517.086 577.006,517.588 C 577.013,518.718 588.629,530.709 592.592,533.678 C 594.191,534.876 599.550,537.899 604.500,540.394 C 612.778,544.567 614.422,545.020 625,546.044 C 631.325,546.656 638.216,547.149 640.313,547.140 C 646.597,547.112 644.075,549.091 634.454,551.737 C 626.991,553.789 623.519,554.171 613.608,554.025 C 603.406,553.875 601.327,553.563 598.978,551.826 C 596.993,550.358 596.388,549.209 596.780,547.650 C 597.273,545.690 597.107,545.599 594.910,546.627 C 590.759,548.568 589.701,548.147 581.750,541.382 C 576.293,536.739 574,534.116 574,532.516 C 574,529.575 571.647,527.660 569.048,528.485 C 567.245,529.057 567,528.707 567,525.567 C 567,522.491 566.677,522 564.655,522 C 561.081,522 559.246,519.108 558.625,512.500 C 557.564,501.204 557.666,501.522 555,501.166 C 553.625,500.982 552.058,499.890 551.518,498.739 C 550.656,496.902 550.800,496.714 552.687,497.208 C 554.663,497.725 554.792,497.475 554.280,494.135 C 553.973,492.136 553.346,490.018 552.887,489.429 C 552.152,488.486 551.065,481.427 550.513,474 C 550.411,472.625 550.029,470.712 549.664,469.750 C 549.443,469.167 549.221,468.583 549,468 Z"/><path id="1761" d="M 563,451 C 567.299,440.406 578.734,422 581.017,422 C 582.738,422 587.428,434.256 586.729,436.928 C 585.998,439.724 588.439,442.658 593.285,444.806 C 597.646,446.740 600.747,449.587 599.667,450.667 C 599.327,451.007 598.415,450.759 597.641,450.117 C 596.548,449.210 596.110,449.271 595.681,450.389 C 595.377,451.181 594.424,452.092 593.564,452.414 C 593.043,452.609 592.521,452.805 592,453 C 585.443,453.882 583.081,454.476 582.520,454.889 C 581.959,455.302 579.588,456.171 577.250,456.820 C 574.912,457.469 571.268,458.499 569.151,459.110 C 567.868,459.480 566.585,459.850 565.302,460.220 C 565.091,458.683 564.881,457.147 564.670,455.610 C 564.322,453.074 563.805,451 563.519,451 C 563.346,451 563.173,451 563,451 Z"/></g><g id="orange" data-color-group="#8b5b3b"><path id="1747" fill="#8b5b3b" stroke="none" d="M 204,363 C 204.333,359.667 204.667,356.333 205,353 C 205.996,352.262 205.832,351.475 205.277,350.774 C 204.722,350.073 204.433,348.938 204.634,348.250 C 204.756,347.833 204.878,347.417 205,347 C 205.250,347.013 205.500,347.026 205.750,347.039 C 206.163,347.060 207.580,343.798 208.901,339.789 C 214.328,323.315 217.214,316.854 220.562,313.686 C 225.566,308.952 227.025,308.379 227.682,310.892 C 227.985,312.052 228.671,313 229.206,313 C 230.830,313 233.932,317.358 233.967,319.691 C 233.985,320.896 234.390,322.124 234.868,322.419 C 235.346,322.714 236.033,325.328 236.396,328.228 C 236.987,332.952 239.228,341.995 240.798,346 C 241.122,346.825 241.452,347.950 241.534,348.500 C 241.616,349.050 241.976,350.625 242.335,352 C 242.694,353.375 243.162,356.750 243.375,359.500 C 243.588,362.250 244.267,365.767 244.882,367.315 C 245.497,368.863 246,371.451 246,373.065 C 246,374.965 246.512,376 247.453,376 C 248.473,376 249.038,377.502 249.348,381.042 C 249.787,386.049 252.514,390 255.531,390 C 256.205,390 257.312,390.672 257.993,391.492 C 259.072,392.792 259.612,392.663 262.192,390.492 C 263.821,389.122 265.793,388 266.575,388 C 267.357,388 272.272,383.725 287,369 C 290.333,367 293.667,365 297,363 C 285.561,375.128 283.460,378.275 282.408,384.851 C 281.829,388.472 282.088,389.242 284.802,391.956 C 290.187,397.341 295.561,396.276 313.176,386.334 C 324.413,379.992 337.968,374.913 353.500,371.227 C 363.584,368.834 366.175,368.626 384.605,368.733 C 404.426,368.848 404.905,368.901 418.605,372.538 C 437.491,377.551 440.870,378.166 445.410,377.416 C 451.109,376.474 454,373.152 454,367.545 C 454,363.443 453.771,363 451.655,363 C 450.365,363 448.453,362.053 447.406,360.896 C 444.156,357.305 437.171,353.797 425.358,349.822 C 421.572,348.548 417.786,347.274 414,346 C 413,345 412,344 411,343 C 414.100,343 415,343.450 415,344 C 415,344.550 416.688,344.987 418.750,344.970 C 422.041,344.943 422.260,344.800 420.538,343.801 C 415.910,341.117 405.789,339.846 385.750,339.430 C 378.833,339.287 371.917,339.143 365,339 C 388.680,336.172 407.745,337.657 430.771,344.122 C 442.879,347.522 449.975,350.880 452.898,354.597 C 457.492,360.437 457.835,369.899 453.621,374.509 C 452.454,375.785 448.800,378.216 445.500,379.912 C 437.169,384.194 430.035,384.096 411,379.437 C 398.929,376.483 394.071,375.803 382,375.375 C 369.095,374.918 366.235,375.136 356,377.356 C 349.675,378.728 342.362,380.559 339.750,381.425 C 338.167,381.950 336.583,382.475 335,383 C 333.779,383.583 332.558,384.167 331.337,384.750 C 324.095,388.210 319.393,390.760 313,394.696 C 309.425,396.897 304.700,399.277 302.500,399.987 C 300.300,400.697 297.151,402.225 295.503,403.383 C 293.855,404.541 291.942,405.358 291.253,405.200 C 290.564,405.042 290,405.408 290,406.015 C 290,406.622 289.592,406.866 289.094,406.558 C 288.596,406.250 285.802,407.236 282.886,408.749 C 278.778,410.881 276.098,411.523 270.982,411.603 C 266.360,411.675 263.526,412.265 261.534,413.570 C 258.573,415.510 258.229,416.805 257.581,428.500 C 257.429,431.250 256.944,434.336 256.504,435.357 C 256.063,436.380 256.237,439.749 256.891,442.857 C 257.544,445.961 258.465,450.810 258.937,453.634 C 260.107,460.626 262.388,465.083 267.276,469.923 C 271.608,474.212 274.165,474.534 276.678,471.107 C 277.326,470.223 280.143,467.027 282.938,464.005 C 285.733,460.983 288.272,457.720 288.578,456.755 C 288.884,455.790 289.554,455 291,455 C 287.231,462.980 285.757,465.568 285.293,465.899 C 283.766,466.986 278.530,474.524 277.038,477.782 C 275.892,480.284 275.838,481.238 276.788,482.188 C 278.646,484.046 278.294,488.955 276.250,489.706 C 275.288,490.060 274.140,490.946 273.700,491.675 C 272.438,493.767 269.760,493.333 270.453,491.148 C 270.853,489.888 269.895,488.050 267.457,485.398 C 265.486,483.254 263.204,479.925 262.384,478 C 261.564,476.075 260.107,472.906 259.145,470.959 C 258.183,469.012 257.283,465.248 257.146,462.595 C 257.009,459.942 256.184,456.686 255.315,455.359 C 254.273,453.769 253.643,450.143 253.465,444.723 C 253.317,440.200 252.908,435.790 252.557,434.922 C 252.206,434.054 252.342,432.231 252.859,430.871 C 253.882,428.180 252.695,419.020 250.847,415.345 C 249.648,412.960 250.544,410.611 252.384,411.317 C 254.334,412.065 257.860,408.476 258.191,405.404 C 258.460,402.907 257.958,402.270 254.346,400.517 C 250.361,398.582 245.907,392.760 247.326,391.341 C 247.682,390.985 247.028,389.164 245.873,387.294 C 244.718,385.424 244.040,383.627 244.367,383.300 C 244.694,382.973 244.126,381.083 243.104,379.102 C 241.374,375.748 237.959,358.672 237.528,351.219 C 237.424,349.414 236.812,347.412 236.169,346.769 C 235.526,346.126 235,344.395 235,342.922 C 235,341.449 234.325,339.685 233.500,339 C 232.675,338.315 232,336.479 232,334.919 C 232,329.841 228.910,325.278 224.250,323.477 C 220.733,322.118 220,322.075 220,323.229 C 220,323.996 219.100,326.487 218,328.764 C 216.900,331.041 216,333.799 216,334.893 C 216,335.987 215.550,337.160 215,337.500 C 214.450,337.840 214,339.007 214,340.094 C 214,341.181 213.312,343.121 212.471,344.404 C 211.630,345.687 210.502,350.283 209.964,354.618 C 209.426,358.953 208.525,364.525 207.962,367 C 205.645,377.186 203.690,404.690 205.216,405.633 C 205.647,405.900 206,407.351 206,408.859 C 206,410.367 206.510,412.110 207.133,412.733 C 207.756,413.356 207.976,414.621 207.621,415.545 C 207.098,416.909 206.696,416.993 205.488,415.990 C 204.241,414.955 204,415.142 204,417.137 C 204,418.459 204.917,420.091 206.060,420.805 C 209.070,422.684 208.447,428.534 205.250,428.421 C 204.005,428.377 203,428.935 203,429.671 C 203,430.402 203.933,431 205.073,431 C 206.508,431 207.044,431.538 206.812,432.750 C 206.565,434.041 207.136,434.500 208.989,434.500 C 210.869,434.500 211.500,435.025 211.500,436.588 C 211.500,437.737 212.019,439.312 212.653,440.088 C 213.287,440.864 213.778,443.844 213.745,446.708 C 213.712,449.572 214.237,452.581 214.912,453.394 C 215.800,454.464 215.849,455.414 215.090,456.831 C 214.310,458.288 214.389,459.078 215.396,459.914 C 218.012,462.085 219.744,472.172 220.475,489.500 C 220.637,493.350 221.297,498.439 221.940,500.809 C 222.877,504.262 225.181,529.880 224.743,531.969 C 224.682,532.261 225.156,534.975 225.797,538 C 227.288,545.035 228.902,561.659 228.313,563.913 C 228.065,564.863 228.575,566.232 229.447,566.956 C 230.658,567.961 230.892,569.363 230.439,572.886 C 230.105,575.479 230.583,582.098 231.530,588 C 232.457,593.775 233.777,602.827 234.465,608.115 C 235.153,613.403 236.043,618.261 236.444,618.910 C 237.206,620.142 237.712,623.122 238.584,631.500 C 238.870,634.250 239.516,637.400 240.018,638.500 C 240.520,639.600 241.365,642.750 241.896,645.500 C 242.965,651.035 246.507,661.666 247.858,663.392 C 248.335,664.001 249.528,667.200 250.509,670.500 C 251.490,673.800 253.756,679.650 255.544,683.500 C 257.332,687.350 259.520,692.075 260.407,694 C 261.294,695.925 262.676,698.400 263.479,699.500 C 264.282,700.600 266.415,703.698 268.219,706.384 C 273.396,714.091 278.306,720.334 280.750,722.318 C 281.987,723.323 283,724.765 283,725.524 C 283,726.283 284.629,728.486 286.620,730.419 C 288.886,732.620 290.019,734.507 289.651,735.467 C 289.274,736.450 289.636,737 290.661,737 C 291.540,737 294.193,738.912 296.558,741.250 C 304.204,748.809 310.390,753.601 315.500,755.924 C 318.250,757.174 321.400,759.023 322.500,760.032 C 323.600,761.041 325.625,762.369 327,762.984 C 328.375,763.599 331.525,765.200 334,766.541 C 336.475,767.882 339.486,768.984 340.691,768.990 C 341.896,768.996 343.124,769.391 343.419,769.869 C 343.942,770.715 349.892,772.071 355.064,772.523 C 358.891,772.858 362.291,774.054 364.213,775.740 C 365.155,776.567 366.603,776.983 367.431,776.665 C 368.259,776.347 372.438,777.152 376.718,778.454 C 380.998,779.756 387.200,781.362 390.500,782.025 C 393.800,782.688 397.850,783.589 399.500,784.027 C 401.150,784.465 405.650,785.112 409.500,785.464 C 413.350,785.816 417.497,786.755 418.716,787.552 C 420.374,788.636 423.178,788.895 429.852,788.580 C 434.759,788.349 440.512,788.578 442.637,789.090 C 447.365,790.229 468.140,791.883 485,792.462 C 491.875,792.698 502,793.207 507.500,793.592 C 523.134,794.687 533.683,795.113 559,795.671 C 571.925,795.956 584.300,796.367 586.500,796.585 C 621.204,800.030 649.158,800.929 694,800.039 C 708.306,799.755 716.494,799.241 735.500,797.435 C 747.911,796.256 763.049,794.064 766.750,792.911 C 773.431,790.829 772.235,793.609 763.915,799.500 C 760.031,802.250 756.437,805.513 755.927,806.750 C 755.618,807.500 755.309,808.250 755,809 C 752.083,810.631 749.167,812.261 746.250,813.892 C 736.570,819.304 714.353,827.849 703.500,830.334 C 683.764,834.853 659.760,838.275 634.500,840.170 C 615.452,841.599 437.404,842.062 407.500,840.760 C 375.047,839.347 352.687,836.845 329.094,831.987 C 312.178,828.504 311.721,828.375 299.500,823.669 C 279.913,816.126 267.517,809.553 256,800.601 C 234.142,783.612 219.705,766.707 209.519,746.174 C 197.415,721.773 195.703,715.870 188,672 C 188,666.667 188,661.333 188,656 C 188.195,656.709 188.391,657.419 188.586,658.128 C 189.126,660.087 189.301,660.127 190.787,658.641 C 192.172,657.256 192.402,653.999 192.404,635.763 C 192.405,624.068 192.054,613.150 191.623,611.500 C 191.012,609.161 191.089,608.831 191.973,610 C 192.942,611.281 193.027,611.244 192,608 C 192.954,540.583 193.311,520.623 194.559,464.500 C 195.541,420.368 199.991,367.869 203.068,364.132 C 203.379,363.755 203.689,363.377 204,363 Z"/></g><g id="orange-2" fill="#c48d66" stroke="none" data-color-group="#c48d66"><path id="94" d="M 810,750 C 809.262,751.583 808.524,753.167 807.786,754.750 C 806.568,757.362 805.668,759.838 806,761 C 803.431,764.250 800.863,767.500 798.294,770.750 C 785.263,787.237 772.952,798.113 755,809 C 755.309,808.250 755.618,807.500 755.927,806.750 C 756.437,805.513 760.031,802.250 763.915,799.500 C 772.235,793.609 773.431,790.829 766.750,792.911 C 763.049,794.064 747.911,796.256 735.500,797.435 C 716.494,799.241 708.306,799.755 694,800.039 C 649.158,800.929 621.204,800.030 586.500,796.585 C 584.300,796.367 571.925,795.956 559,795.671 C 533.683,795.113 523.134,794.687 507.500,793.592 C 502,793.207 491.875,792.698 485,792.462 C 468.140,791.883 447.365,790.229 442.637,789.090 C 440.512,788.578 434.759,788.349 429.852,788.580 C 423.178,788.895 420.374,788.636 418.716,787.552 C 417.497,786.755 413.350,785.816 409.500,785.464 C 405.650,785.112 401.150,784.465 399.500,784.027 C 397.850,783.589 393.800,782.688 390.500,782.025 C 387.200,781.362 380.998,779.756 376.718,778.454 C 372.438,777.152 368.259,776.347 367.431,776.665 C 366.603,776.983 365.155,776.567 364.213,775.740 C 362.291,774.054 358.891,772.858 355.064,772.523 C 349.892,772.071 343.942,770.715 343.419,769.869 C 343.124,769.391 341.896,768.996 340.691,768.990 C 339.486,768.984 336.475,767.882 334,766.541 C 331.525,765.200 328.375,763.599 327,762.984 C 325.625,762.369 323.600,761.041 322.500,760.032 C 321.400,759.023 318.250,757.174 315.500,755.924 C 310.390,753.601 304.204,748.809 296.558,741.250 C 294.193,738.912 291.540,737 290.661,737 C 289.636,737 289.274,736.450 289.651,735.467 C 290.019,734.507 288.886,732.620 286.620,730.419 C 284.629,728.486 283,726.283 283,725.524 C 283,724.765 281.987,723.323 280.750,722.318 C 278.306,720.334 273.396,714.091 268.219,706.384 C 266.415,703.698 264.282,700.600 263.479,699.500 C 262.676,698.400 261.294,695.925 260.407,694 C 259.520,692.075 257.332,687.350 255.544,683.500 C 253.756,679.650 251.490,673.800 250.509,670.500 C 249.528,667.200 248.335,664.001 247.858,663.392 C 246.507,661.666 242.965,651.035 241.896,645.500 C 241.365,642.750 240.520,639.600 240.018,638.500 C 239.516,637.400 238.870,634.250 238.584,631.500 C 237.712,623.122 237.206,620.142 236.444,618.910 C 236.043,618.261 235.153,613.403 234.465,608.115 C 233.777,602.827 232.457,593.775 231.530,588 C 230.583,582.098 230.105,575.479 230.439,572.886 C 230.892,569.363 230.658,567.961 229.447,566.956 C 228.575,566.232 228.065,564.863 228.313,563.913 C 228.902,561.659 227.288,545.035 225.797,538 C 225.156,534.975 224.682,532.261 224.743,531.969 C 225.181,529.880 222.877,504.262 221.940,500.809 C 221.297,498.439 220.637,493.350 220.475,489.500 C 219.744,472.172 218.012,462.085 215.396,459.914 C 214.389,459.078 214.310,458.288 215.090,456.831 C 215.849,455.414 215.800,454.464 214.912,453.394 C 214.237,452.581 213.712,449.572 213.745,446.708 C 213.778,443.844 213.287,440.864 212.653,440.088 C 212.019,439.312 211.500,437.737 211.500,436.588 C 211.500,435.025 210.869,434.500 208.989,434.500 C 207.136,434.500 206.565,434.041 206.812,432.750 C 207.044,431.538 206.508,431 205.073,431 C 203.933,431 203,430.402 203,429.671 C 203,428.935 204.005,428.377 205.250,428.421 C 208.447,428.534 209.070,422.684 206.060,420.805 C 204.917,420.091 204,418.459 204,417.137 C 204,415.142 204.241,414.955 205.488,415.990 C 206.696,416.993 207.098,416.909 207.621,415.545 C 207.976,414.621 207.756,413.356 207.133,412.733 C 206.510,412.110 206,410.367 206,408.859 C 206,407.351 205.647,405.900 205.216,405.633 C 203.690,404.690 205.645,377.186 207.962,367 C 208.525,364.525 209.426,358.953 209.964,354.618 C 210.502,350.283 211.630,345.687 212.471,344.404 C 213.312,343.121 214,341.181 214,340.094 C 214,339.007 214.450,337.840 215,337.500 C 215.550,337.160 216,335.987 216,334.893 C 216,333.799 216.900,331.041 218,328.764 C 219.100,326.487 220,323.996 220,323.229 C 220,322.075 220.733,322.118 224.250,323.477 C 228.910,325.278 232,329.841 232,334.919 C 232,336.479 232.675,338.315 233.500,339 C 234.325,339.685 235,341.449 235,342.922 C 235,344.395 235.526,346.126 236.169,346.769 C 236.812,347.412 237.424,349.414 237.528,351.219 C 237.959,358.672 241.374,375.748 243.104,379.102 C 244.126,381.083 244.694,382.973 244.367,383.300 C 244.040,383.627 244.718,385.424 245.873,387.294 C 247.028,389.164 247.682,390.985 247.326,391.341 C 245.907,392.760 250.361,398.582 254.346,400.517 C 257.958,402.270 258.460,402.907 258.191,405.404 C 257.860,408.476 254.334,412.065 252.384,411.317 C 250.544,410.611 249.648,412.960 250.847,415.345 C 252.695,419.020 253.882,428.180 252.859,430.871 C 252.342,432.231 252.206,434.054 252.557,434.922 C 252.908,435.790 253.317,440.200 253.465,444.723 C 253.643,450.143 254.273,453.769 255.315,455.359 C 256.184,456.686 257.009,459.942 257.146,462.595 C 257.283,465.248 258.183,469.012 259.145,470.959 C 260.107,472.906 261.564,476.075 262.384,478 C 263.204,479.925 265.486,483.254 267.457,485.398 C 269.895,488.050 270.853,489.888 270.453,491.148 C 269.760,493.333 272.438,493.767 273.700,491.675 C 274.140,490.946 275.288,490.060 276.250,489.706 C 278.294,488.955 278.646,484.046 276.788,482.188 C 275.838,481.238 275.892,480.284 277.038,477.782 C 278.530,474.524 283.766,466.986 285.293,465.899 C 285.757,465.568 287.231,462.980 291,455 C 292.500,453.519 294,452.039 295.500,450.558 C 297.975,448.115 300.013,445.528 300.030,444.808 C 300.047,444.088 301.178,442.150 302.543,440.500 C 303.908,438.850 307.093,434.800 309.621,431.500 C 314.812,424.724 320.271,419.447 325.140,416.500 C 328.428,414.510 328.424,414.525 324.223,419.228 C 321.901,421.828 320,424.768 320,425.762 C 320,426.756 319.100,430.130 318,433.260 C 315.541,440.258 315.478,442.870 317.750,443.708 C 318.712,444.063 321.075,445.311 323,446.482 C 324.925,447.653 328.300,449.118 330.500,449.737 C 335.249,451.074 346.769,451.182 347.563,449.898 C 347.870,449.402 349.894,449.222 356,450 C 356,450.191 356,450.382 356,450.573 C 356,450.888 361.962,451.387 369.250,451.681 C 388.109,452.443 411.663,454.672 424.652,456.922 C 437.791,459.198 455.238,464.377 457.026,466.531 C 459.100,469.029 457.244,469.482 452.227,467.701 C 449.627,466.778 443.112,465.343 428,463 C 427.212,462.503 426.423,462.007 425.635,461.510 C 424.334,460.691 421.634,460.015 416,460 C 413.417,459.680 410.833,459.361 408.250,459.041 C 403.987,458.514 396.337,458.063 382,458 C 381.896,457.603 381.791,457.207 381.687,456.810 C 381.445,455.890 376.850,455.892 361.437,456.818 C 350.472,457.477 337.900,458.036 333.500,458.061 C 329.100,458.086 322.089,458.665 317.921,459.349 C 311.760,460.360 310.116,460.350 309.132,459.296 C 307.465,457.511 306.232,457.674 305.689,459.750 C 305.401,460.851 305.189,460.502 305.116,458.809 C 304.711,449.415 299.568,461.245 299.528,471.663 C 299.506,477.483 299.909,479.379 301.682,481.780 C 303.099,483.699 303.523,485.077 302.890,485.710 C 302.257,486.343 302.457,487.134 303.458,487.965 C 304.754,489.040 305.005,488.945 305.035,487.372 C 305.055,486.342 307.259,490.737 309.933,497.137 C 312.607,503.537 316.308,511.022 318.159,513.770 C 323.839,522.204 337.016,532.686 346.656,536.437 C 352.665,538.775 365.171,542 368.230,542 C 372.274,542 371.615,540.337 367.250,539.525 C 355.949,537.422 338.541,526.792 332,518 C 333.583,519.345 335.167,520.691 336.750,522.036 C 342.567,526.978 357.229,534.234 366,536.512 C 376.561,539.254 394.665,539.493 403,537 C 404.750,536.656 406.500,536.311 408.250,535.967 C 411.138,535.399 414.625,534.664 416,534.333 C 417.920,533.871 417.398,534.576 409,541 C 408.219,541.302 407.438,541.605 406.657,541.907 C 393.813,546.879 391.269,547.280 372.500,547.293 C 357.764,547.303 343.553,545.704 342.445,543.910 C 342.136,543.409 340.830,543 339.543,543 C 338.256,543 334.570,541.588 331.352,539.862 C 328.134,538.136 323.242,535.549 320.482,534.112 C 317.722,532.676 312.174,529.250 308.154,526.500 C 304.134,523.750 299.642,520.863 298.172,520.083 C 296.702,519.303 295.050,518.104 294.500,517.417 C 293.950,516.730 292.608,516.013 291.519,515.824 C 290.174,515.590 289.532,514.681 289.519,512.990 C 289.503,510.982 288.998,510.500 286.910,510.500 C 285.485,510.500 283.600,509.905 282.720,509.178 C 280.369,507.235 275.600,508.064 275.138,510.496 C 274.929,511.594 273.913,513.566 272.879,514.880 C 271.845,516.194 271,518.469 271,519.935 C 271,521.401 270.485,523.115 269.856,523.744 C 268.997,524.603 269.025,525.645 269.970,527.926 C 270.688,529.660 270.890,531.723 270.441,532.732 C 268.671,536.712 268.585,538.637 269.440,555 C 269.943,564.628 270.453,567.775 271.663,568.696 C 272.959,569.682 273.038,570.452 272.117,573.094 C 271.293,575.457 271.295,576.651 272.125,577.651 C 272.758,578.414 272.982,580.339 272.638,582.059 C 272.234,584.080 272.582,585.959 273.669,587.618 C 274.827,589.385 275.250,591.989 275.106,596.451 C 274.971,600.628 275.611,604.973 276.989,609.239 C 278.990,615.432 280.088,622.243 280.071,628.363 C 280.067,629.938 280.948,633.060 282.031,635.301 C 283.114,637.542 284,641.326 284,643.709 C 284,647.409 284.381,648.217 286.609,649.232 C 288.786,650.224 289.034,650.715 288.107,652.200 C 287.222,653.617 287.365,654.210 288.807,655.111 C 290.039,655.881 290.490,657.111 290.219,658.958 C 289.669,662.702 295.905,674 298.521,674 C 299.282,674 299.615,674.755 299.332,675.837 C 299.019,677.033 299.719,678.242 301.339,679.303 C 302.707,680.199 304.125,682.293 304.490,683.955 C 304.855,685.617 305.569,687.234 306.077,687.548 C 306.585,687.862 307,689.040 307,690.167 C 307,692.830 316.222,702 318.899,702 C 320.258,702 321.173,702.841 321.580,704.464 C 322.348,707.522 330.304,715 332.790,715 C 333.799,715 335.622,716.350 336.842,718 C 338.389,720.092 339.908,721 341.863,721 C 343.930,721 345.509,722.049 347.880,725 C 349.651,727.204 351.971,729 353.047,729 C 354.121,729 355,729.434 355,729.964 C 355,731.806 362.456,736 365.732,736 C 367.994,736 369,736.470 369,737.525 C 369,739.334 373.322,741.197 375.542,740.345 C 376.434,740.003 378.088,740.674 379.407,741.913 C 380.675,743.104 383.466,744.309 385.607,744.591 C 389.775,745.139 396.237,746.732 399.500,748.014 C 403.586,749.620 412.641,751.980 417,752.575 C 419.475,752.913 424.650,754.023 428.500,755.041 C 432.350,756.059 438.875,757.102 443,757.358 C 447.125,757.615 451.175,758.072 452,758.375 C 452.825,758.678 458.900,759.445 465.500,760.080 C 472.100,760.715 479.300,761.444 481.500,761.701 C 483.700,761.958 490.900,762.383 497.500,762.645 C 504.100,762.907 510.400,763.325 511.500,763.573 C 512.600,763.821 518.900,764.239 525.500,764.502 C 532.100,764.765 538.850,765.174 540.500,765.410 C 546.010,766.198 555.446,767.205 560.500,767.545 C 563.250,767.730 570.570,768.341 576.766,768.903 C 582.963,769.465 588.597,769.709 589.286,769.444 C 589.975,769.179 594.131,769.433 598.520,770.007 C 602.909,770.581 609.425,771.213 613,771.411 C 618.518,771.717 626.857,772.646 641.500,774.586 C 643.150,774.805 646.300,775.190 648.500,775.443 C 650.700,775.696 654.300,776.147 656.500,776.448 C 668.513,778.089 711.036,778.737 726,777.506 C 751.839,775.381 773.758,771.413 787,766.462 C 789.475,765.537 793.167,764.767 795.204,764.753 C 799.652,764.722 800.346,764.030 810,750 Z"/><path id="94" d="M 204,363 C 203.750,362.994 203.500,362.987 203.250,362.981 C 202.188,362.954 202.908,352.698 204.053,351.550 C 204.651,350.950 205,351.043 205,353 C 204.667,356.333 204.333,359.667 204,363 Z"/></g><g id="dark-orange" fill="#402b1d" stroke="none" data-color-group="#402b1d"><path id="1742" d="M 411,343 C 401.318,340.674 381.501,339.381 380.494,341.010 C 379.118,343.236 382.003,344.375 388.737,344.262 C 392.456,344.200 399.663,344.565 404.750,345.074 C 407.833,345.383 410.917,345.691 414,346 C 417.786,347.274 421.572,348.548 425.358,349.822 C 437.171,353.797 444.156,357.305 447.406,360.896 C 448.453,362.053 450.365,363 451.655,363 C 453.771,363 454,363.443 454,367.545 C 454,373.152 451.109,376.474 445.410,377.416 C 440.870,378.166 437.491,377.551 418.605,372.538 C 404.905,368.901 404.426,368.848 384.605,368.733 C 366.175,368.626 363.584,368.834 353.500,371.227 C 337.968,374.913 324.413,379.992 313.176,386.334 C 295.561,396.276 290.187,397.341 284.802,391.956 C 282.088,389.242 281.829,388.472 282.408,384.851 C 283.460,378.275 285.561,375.128 297,363 C 320.696,349.313 335.414,343.666 355.750,340.459 C 358.833,339.973 361.917,339.486 365,339 C 371.917,339.143 378.833,339.287 385.750,339.430 C 405.789,339.846 415.910,341.117 420.538,343.801 C 422.260,344.800 422.041,344.943 418.750,344.970 C 416.688,344.987 415,344.550 415,344 C 415,343.450 414.100,343 411,343 ZM 438.750,369.212 C 428.044,364.259 416.950,361.247 406,360.321 C 402.425,360.019 398.970,359.345 398.323,358.824 C 396.885,357.667 360.698,358.653 356.087,359.975 C 354.326,360.480 352.281,360.661 351.543,360.378 C 350.805,360.095 347.793,360.579 344.850,361.455 C 341.907,362.331 336.803,363.313 333.507,363.639 C 329.255,364.059 326.690,364.923 324.680,366.615 C 321.844,369.002 320.730,369.411 318.086,369.037 C 317.309,368.927 315.612,369.404 314.316,370.098 C 312.506,371.067 311.686,371.086 310.780,370.180 C 310.131,369.531 308.806,369 307.835,369 C 306.864,369 305.589,368.100 305,367 C 304.411,365.900 303.456,365 302.878,365 C 301.050,365 289.213,377.031 287.510,380.620 C 286.612,382.512 286.018,385.509 286.189,387.280 C 286.476,390.253 286.807,390.525 290.500,390.829 C 295.863,391.270 300.928,389.634 308.447,385.032 C 316.826,379.904 326.142,375.942 340,371.612 C 355.807,366.673 368.668,364.892 383.935,365.526 C 390.709,365.807 396.756,365.650 397.375,365.176 C 398.591,364.245 402.584,364.289 405,365.260 C 406.750,365.964 413.608,367.021 416.500,367.032 C 417.600,367.036 421.200,367.879 424.500,368.905 C 427.800,369.931 432.300,371.079 434.500,371.454 C 436.700,371.829 439.513,372.380 440.750,372.677 C 444.566,373.593 443.235,371.287 438.750,369.212 Z"/><path id="1742" d="M 416,460 C 421.634,460.015 424.334,460.691 425.635,461.510 C 426.423,462.007 427.212,462.503 428,463 C 427.667,469 427.333,475 427,481 C 426.888,477.238 426.453,477.813 425.608,480.500 C 423.455,487.344 422.184,489 419.087,489 C 417.524,489 415.721,488.369 415.081,487.598 C 414.441,486.827 412.924,485.946 411.709,485.640 C 405.954,484.190 397.645,478.486 392.789,472.651 C 388.180,467.113 387.812,466.322 389.086,464.686 C 390.198,463.257 391.886,462.875 397,462.893 C 405.337,462.923 416.012,461.719 416.005,460.750 C 416.003,460.500 416.002,460.250 416,460 Z"/><path id="1742" d="M 641.250,464.571 C 641.938,464.369 646.898,463.422 652.274,462.466 C 667.859,459.695 679.819,461.763 682.043,467.613 C 683.495,471.432 683.204,473.134 681,473.710 C 678.637,474.328 678.541,474.813 680.368,476.921 C 681.529,478.261 681.492,479.255 680.118,483.491 C 678.396,488.801 676.466,490.012 672.619,488.198 C 666.529,485.326 660.915,483 660.076,483 C 656.419,483 646.816,476.805 643.292,472.172 C 639.826,467.615 639.172,465.181 641.250,464.571 Z"/><path id="1742" d="M 581.542,362.965 C 582.710,361.995 583.365,361.965 584.242,362.842 C 584.879,363.479 586.660,364 588.200,364 C 592.250,364 591.637,365.315 586.897,366.794 C 583.775,367.768 582.460,367.797 581.397,366.915 C 579.603,365.426 579.635,364.548 581.542,362.965 Z"/></g><g id="dark-orange-2" fill="#311d0f" stroke="none" data-color-group="#311d0f"><path id="177" d="M 596,465 C 596.324,464.372 596.649,463.744 596.973,463.116 C 598.460,460.238 614.468,458.500 639.500,458.500 C 666.010,458.500 681.630,460.431 684,464 C 683.887,467.417 683.775,470.833 683.662,474.250 C 683.144,489.959 677.963,500.505 666.476,509.233 C 659.379,514.626 652.031,517.059 640,518 C 638.917,517.996 637.833,517.992 636.750,517.988 C 624.283,517.942 609.476,508.864 602.292,496.860 C 597.518,488.884 596,481.193 596,465 ZM 600,465 C 596.271,468.729 598.137,482.969 603.691,493.174 C 607.236,499.687 616.712,508.521 623.475,511.617 C 630.346,514.763 640.271,516.262 646.508,515.097 C 653.332,513.822 654.003,512.552 649.159,510.081 C 646.915,508.936 644.604,508 644.024,508 C 643.444,508 640.614,506.456 637.735,504.569 C 633.952,502.090 631.401,501.147 628.540,501.169 C 624.231,501.203 621,498.481 621,494.819 C 621,491.654 615.345,484.316 612.010,483.153 C 608.082,481.784 607.220,479.233 608.122,471.659 C 608.554,468.030 608.472,465.363 607.922,465.165 C 607.408,464.981 607.242,464.418 607.553,463.915 C 608.689,462.077 601.956,463.044 600,465 ZM 641.250,464.571 C 639.172,465.181 639.826,467.615 643.292,472.172 C 646.816,476.805 656.419,483 660.076,483 C 660.915,483 666.529,485.326 672.619,488.198 C 676.466,490.012 678.396,488.801 680.118,483.491 C 681.492,479.255 681.529,478.261 680.368,476.921 C 678.541,474.813 678.637,474.328 681,473.710 C 683.204,473.134 683.495,471.432 682.043,467.613 C 679.819,461.763 667.859,459.695 652.274,462.466 C 646.898,463.422 641.938,464.369 641.250,464.571 Z"/><path id="177" d="M 382,458 C 396.337,458.063 403.987,458.514 408.250,459.041 C 410.833,459.361 413.417,459.680 416,460 C 416.002,460.250 416.003,460.500 416.005,460.750 C 416.012,461.719 405.337,462.923 397,462.893 C 391.886,462.875 390.198,463.257 389.086,464.686 C 387.812,466.322 388.180,467.113 392.789,472.651 C 397.645,478.486 405.954,484.190 411.709,485.640 C 412.924,485.946 414.441,486.827 415.081,487.598 C 415.721,488.369 417.524,489 419.087,489 C 422.184,489 423.455,487.344 425.608,480.500 C 426.453,477.813 426.888,477.238 427,481 C 426.504,482.973 426.007,484.947 425.511,486.920 C 423.400,495.312 416.879,504.415 409.227,509.651 C 405.823,511.980 400.555,514.586 392,517 C 390.159,517.209 388.319,517.417 386.478,517.626 C 383.388,517.976 378.227,517.715 374.761,517.033 C 362.104,514.543 353.587,508.166 344,494 C 344.929,494.583 345.857,495.167 346.786,495.750 C 348.318,496.712 352.481,500.419 356.036,503.987 C 362.968,510.944 367.621,513.245 378.227,514.957 C 384.318,515.940 391,515.344 391,513.818 C 391,512.145 383.538,506.010 381.500,506.007 C 379.493,506.004 378.746,505.416 375.463,501.250 C 374.488,500.013 372.860,499 371.845,499 C 370.830,499 370,498.587 370,498.082 C 370,497.577 368.471,496.219 366.603,495.064 C 361.885,492.148 359.862,488.631 359.760,483.168 C 359.712,480.600 359.257,477.957 358.750,477.294 C 358.243,476.631 358.130,475.598 358.500,475 C 358.870,474.402 358.649,473.282 358.009,472.511 C 356.015,470.109 357.174,466.521 360,466.346 C 362.194,466.210 362.331,465.996 361.123,464.596 C 359.940,463.225 359.975,463 361.373,463 C 362.268,463 363,462.545 363,461.990 C 363,461.336 359.743,461.460 353.750,462.344 C 348.663,463.094 343.983,463.518 343.351,463.286 C 341.373,462.558 341.201,464.198 342.128,474.995 C 342.729,481.999 342.691,485.575 341,486 C 340.635,483.917 340.271,481.833 339.906,479.750 C 339.304,476.312 339.080,471.812 340,466 C 340,465.316 340,464.631 340,463.947 C 340,462.080 341.020,461.768 351.250,460.507 C 357.438,459.744 366.888,458.868 382,458 Z"/></g><g id="deep-orange" fill="#604a3c" stroke="none" data-color-group="#604a3c"><path id="245" d="M 567,360 C 568.023,358.638 569.045,357.277 570.068,355.915 C 573.701,351.077 579.548,348.244 594.654,344.002 C 609.391,339.864 623.476,338 640,338 C 643.750,338.329 647.500,338.657 651.250,338.986 C 671.672,340.776 670.468,341.841 647.500,342.302 C 630.931,342.635 624.298,343.187 616.062,344.919 C 610.321,346.127 605.164,347.399 604.602,347.746 C 603.020,348.724 609.095,350.015 610.902,349.085 C 613.490,347.752 628.811,345.135 638.134,344.433 C 645.031,343.914 648.752,344.214 656.634,345.928 C 691.563,353.524 703.421,358.056 723.841,371.608 C 733.578,378.070 734.262,378.363 735.536,376.620 C 736.815,374.871 737.002,374.941 741,381 C 741,382.288 741,383.577 741,384.865 C 741,390.854 737.819,393.785 730,395 C 729.667,395 729.333,395 729,395 C 730.083,394.540 731.167,394.081 732.250,393.621 C 735.315,392.320 737.365,389 735.103,389 C 733.454,389 723.226,384.144 714.645,379.287 C 690.534,365.640 659.945,358.828 632.500,360.994 C 620.009,361.980 607.452,364.276 599,367.121 C 594.990,368.470 589.820,369.345 585.503,369.404 C 583.171,369.436 580.837,369.468 578.505,369.500 C 577.837,367.528 577.171,365.555 576.503,363.583 C 575.402,360.329 574.017,357.506 573.427,357.309 C 572.837,357.112 571.507,357.887 570.471,359.032 C 569.126,360.518 568.504,362.955 568,374 C 567.667,369.333 567.333,364.667 567,360 ZM 581.542,362.965 C 579.635,364.548 579.603,365.426 581.397,366.915 C 582.460,367.797 583.775,367.768 586.897,366.794 C 591.637,365.315 592.250,364 588.200,364 C 586.660,364 584.879,363.479 584.242,362.842 C 583.365,361.965 582.710,361.995 581.542,362.965 Z"/><path id="245" d="M 414,346 C 410.917,345.691 407.833,345.383 404.750,345.074 C 399.663,344.565 392.456,344.200 388.737,344.262 C 382.003,344.375 379.118,343.236 380.494,341.010 C 381.501,339.381 401.318,340.674 411,343 C 412,344 413,345 414,346 Z"/></g><g id="dark-orange-3" fill="#392417" stroke="none" data-color-group="#392417"><path id="1740" d="M 390,659 C 391.092,665.784 393.993,670.051 397.424,669.921 C 398.867,669.866 399.043,669.675 398,669.294 C 395.163,668.257 392,664.648 392,662.448 C 392,658.457 394.239,657.630 401.388,658.979 C 408.555,660.331 416.781,660.539 425,659.575 C 432.657,658.677 545.594,658.276 550.500,659.130 C 552.700,659.513 554.952,659.452 555.504,658.995 C 556.828,657.899 594.146,658.586 605,659.906 C 609.675,660.475 614.971,660.940 616.769,660.938 C 618.696,660.936 620.265,661.527 620.591,662.377 C 620.895,663.170 622.267,664.101 623.639,664.445 C 627.656,665.453 626.207,668.311 620.991,669.669 C 619.494,670.059 617.997,670.449 616.500,670.839 C 618.417,670.866 620.333,670.892 622.250,670.919 C 624.167,670.946 626.083,670.973 628,671 C 628,671.250 628,671.500 628,671.750 C 628,672.162 576.138,672.500 512.750,672.500 C 387.062,672.500 393.498,672.797 390.425,666.855 C 389.641,665.339 389,662.952 389,659 C 389.333,659 389.667,659 390,659 Z"/><path id="1740" d="M 438.750,369.212 C 443.235,371.287 444.566,373.593 440.750,372.677 C 439.513,372.380 436.700,371.829 434.500,371.454 C 432.300,371.079 427.800,369.931 424.500,368.905 C 421.200,367.879 417.600,367.036 416.500,367.032 C 413.608,367.021 406.750,365.964 405,365.260 C 402.584,364.289 398.591,364.245 397.375,365.176 C 396.756,365.650 390.709,365.807 383.935,365.526 C 368.668,364.892 355.807,366.673 340,371.612 C 326.142,375.942 316.826,379.904 308.447,385.032 C 300.928,389.634 295.863,391.270 290.500,390.829 C 286.807,390.525 286.476,390.253 286.189,387.280 C 286.018,385.509 286.612,382.512 287.510,380.620 C 289.213,377.031 301.050,365 302.878,365 C 303.456,365 304.411,365.900 305,367 C 305.589,368.100 306.864,369 307.835,369 C 308.806,369 310.131,369.531 310.780,370.180 C 311.686,371.086 312.506,371.067 314.316,370.098 C 315.612,369.404 317.309,368.927 318.086,369.037 C 320.730,369.411 321.844,369.002 324.680,366.615 C 326.690,364.923 329.255,364.059 333.507,363.639 C 336.803,363.313 341.907,362.331 344.850,361.455 C 347.793,360.579 350.805,360.095 351.543,360.378 C 352.281,360.661 354.326,360.480 356.087,359.975 C 360.698,358.653 396.885,357.667 398.323,358.824 C 398.970,359.345 402.425,360.019 406,360.321 C 416.950,361.247 428.044,364.259 438.750,369.212 Z"/></g><g id="muted-orange" data-color-group="#968c83"><path id="1750" fill="#968c83" stroke="none" d="M 403,537 C 394.665,539.493 376.561,539.254 366,536.512 C 357.229,534.234 342.567,526.978 336.750,522.036 C 335.167,520.691 333.583,519.345 332,518 C 319.105,502.922 313,489.502 313,476.239 C 313,471.152 313.155,470.833 316.268,469.532 C 322.883,466.768 337.106,463.849 338.589,464.951 C 339.059,465.301 339.530,465.650 340,466 C 339.080,471.812 339.304,476.312 339.906,479.750 C 340.271,481.833 340.635,483.917 341,486 C 342,488.667 343,491.333 344,494 C 353.587,508.166 362.104,514.543 374.761,517.033 C 378.227,517.715 383.388,517.976 386.478,517.626 C 388.319,517.417 390.159,517.209 392,517 C 391.569,518.681 387.821,519.407 383.252,519.720 C 378.744,520.029 375.295,520.669 375.587,521.141 C 376.436,522.515 387.065,522.134 393.314,520.506 C 399.582,518.873 403.485,519.941 402.684,523.069 C 402.463,523.932 402.652,525.057 403.104,525.569 C 403.556,526.081 404.506,527.181 405.214,528.012 C 405.922,528.843 407.762,530.083 409.306,530.766 C 412.732,532.283 412.197,533.358 406.991,535.420 C 405.661,535.947 404.330,536.473 403,537 Z"/></g><g id="light-orange-3" fill="#b3a69e" stroke="none" data-color-group="#b3a69e"><path id="1759" d="M 596,465 C 596,481.193 597.518,488.884 602.292,496.860 C 609.476,508.864 624.283,517.942 636.750,517.988 C 637.833,517.992 638.917,517.996 640,518 C 640,519.852 637.037,520.093 630.750,519.853 C 627.667,519.735 624.583,519.618 621.500,519.500 C 623.989,519.959 626.478,520.418 628.967,520.877 C 635.526,522.086 641.496,522.055 651.462,520.756 C 654.001,520.425 654.798,523.686 652.307,524.216 C 651.061,524.481 651.679,525.003 654.297,525.894 C 657.276,526.908 658.030,527.640 657.797,529.292 C 657.560,530.971 658.185,531.540 660.879,532.099 C 662.738,532.485 664.615,533.377 665.051,534.082 C 665.687,535.111 666.647,535.123 669.921,534.142 C 672.164,533.470 674,533.299 674,533.762 C 674,535.099 664.163,538.276 662.271,537.550 C 661.330,537.189 656.159,537.593 650.780,538.447 C 647.520,538.965 644.260,539.482 641,540 C 626.042,540 598.960,529.019 592.115,520.178 C 590.676,518.320 587.761,514.932 585.636,512.650 C 583.511,510.368 579.515,503.901 576.755,498.279 C 572.588,489.791 571.652,486.863 571.233,481.008 C 570.685,473.351 571.659,471.241 576.998,468.519 C 580.292,466.840 593.848,463.804 595.056,464.475 C 595.371,464.650 595.685,464.825 596,465 Z"/><path id="1759" d="M 188,656 C 184.129,604.956 184.055,602.983 185.336,585.553 C 186.337,571.941 188.035,572.178 188.544,586 C 189.211,604.083 189.760,609.260 190.941,608.596 C 191.294,608.397 191.647,608.199 192,608 C 193.027,611.244 192.942,611.281 191.973,610 C 191.089,608.831 191.012,609.161 191.623,611.500 C 192.054,613.150 192.405,624.068 192.404,635.763 C 192.402,653.999 192.172,657.256 190.787,658.641 C 189.301,660.127 189.126,660.087 188.586,658.128 C 188.391,657.419 188.195,656.709 188,656 Z"/></g><g id="dark-orange-4" fill="#482a19" stroke="none" data-color-group="#482a19"><path id="1741" d="M 568,374 C 568.504,362.955 569.126,360.518 570.471,359.032 C 571.507,357.887 572.837,357.112 573.427,357.309 C 574.017,357.506 575.402,360.329 576.503,363.583 C 577.171,365.555 577.837,367.528 578.505,369.500 C 580.837,369.468 583.171,369.436 585.503,369.404 C 589.820,369.345 594.990,368.470 599,367.121 C 607.452,364.276 620.009,361.980 632.500,360.994 C 659.945,358.828 690.534,365.640 714.645,379.287 C 723.226,384.144 733.454,389 735.103,389 C 737.365,389 735.315,392.320 732.250,393.621 C 731.167,394.081 730.083,394.540 729,395 C 727.688,394.808 726.375,394.615 725.063,394.423 C 722.898,394.105 718.510,392.262 715.313,390.327 C 677.827,367.639 637.399,362.510 594.500,374.997 C 580.788,378.988 576.182,379.521 571.676,377.638 C 569.654,376.793 568,375.629 568,374 Z"/><path id="1741" d="M 635,666 C 635,658.166 633.127,654.529 628.267,652.920 C 625.378,651.964 599.370,651.594 516.750,651.336 C 480.833,651.224 444.917,651.112 409,651 C 444.140,650.812 479.281,650.623 514.421,650.435 C 587.091,650.045 621.633,650.200 625.607,650.935 C 635.312,652.729 638.198,657.358 635,666 Z"/></g><g id="dark-red" data-color-group="#1d0a04"><path id="1193" fill="#1d0a04" stroke="none" d="M 390,659 C 389.973,658.750 389.947,658.500 389.920,658.250 C 389.876,657.838 390.663,656.457 391.670,655.183 C 393.147,653.313 394.996,652.686 409,651 C 444.917,651.112 480.833,651.224 516.750,651.336 C 599.370,651.594 625.378,651.964 628.267,652.920 C 633.127,654.529 635,658.166 635,666 C 635,666.182 635,666.364 635,666.546 C 635,666.846 633.425,667.971 628,671 C 626.083,670.973 624.167,670.946 622.250,670.919 C 620.333,670.892 618.417,670.866 616.500,670.839 C 617.997,670.449 619.494,670.059 620.991,669.669 C 626.207,668.311 627.656,665.453 623.639,664.445 C 622.267,664.101 620.895,663.170 620.591,662.377 C 620.265,661.527 618.696,660.936 616.769,660.938 C 614.971,660.940 609.675,660.475 605,659.906 C 594.146,658.586 556.828,657.899 555.504,658.995 C 554.952,659.452 552.700,659.513 550.500,659.130 C 545.594,658.276 432.657,658.677 425,659.575 C 416.781,660.539 408.555,660.331 401.388,658.979 C 394.239,657.630 392,658.457 392,662.448 C 392,664.648 395.163,668.257 398,669.294 C 399.043,669.675 398.867,669.866 397.424,669.921 C 393.993,670.051 391.092,665.784 390,659 Z"/></g><g id="orange-3" fill="#c5936c" stroke="none" data-color-group="#c5936c"><path id="1753" d="M 684,464 C 681.630,460.431 666.010,458.500 639.500,458.500 C 614.468,458.500 598.460,460.238 596.973,463.116 C 596.649,463.744 596.324,464.372 596,465 C 595.685,464.825 595.371,464.650 595.056,464.475 C 593.848,463.804 580.292,466.840 576.998,468.519 C 571.659,471.241 570.685,473.351 571.233,481.008 C 571.652,486.863 572.588,489.791 576.755,498.279 C 579.515,503.901 583.511,510.368 585.636,512.650 C 587.761,514.932 590.676,518.320 592.115,520.178 C 598.960,529.019 626.042,540 641,540 C 647.167,539.834 653.333,539.668 659.500,539.502 C 657,540.335 654.500,541.168 652,542.001 C 645.390,544.203 642.982,544.479 631.709,544.317 C 622.857,544.190 617.314,543.612 613.709,542.443 C 598.108,537.382 583.392,525.668 576.164,512.555 C 574.776,510.037 573.388,507.518 572,505 C 571.176,502.081 570.351,499.162 569.527,496.243 C 568.135,491.313 565.730,485.632 561,479 C 558.675,471.072 557.988,467.809 557.974,466.635 C 557.960,465.461 559.085,461.462 560.474,457.750 C 561.316,455.500 562.158,453.250 563,451 C 563.173,451 563.346,451 563.519,451 C 563.805,451 564.322,453.074 564.670,455.610 C 564.881,457.147 565.091,458.683 565.302,460.220 C 566.585,459.850 567.868,459.480 569.151,459.110 C 571.268,458.499 574.912,457.469 577.250,456.820 C 579.588,456.171 581.959,455.302 582.520,454.889 C 583.081,454.476 585.443,453.882 592,453 C 665.340,454.903 682.393,456.252 698.500,461.424 C 711.803,465.695 712.962,467.546 701,465.415 C 696.875,464.680 691.362,464.062 688.750,464.040 C 687.167,464.027 685.583,464.013 684,464 Z"/><path id="1753" d="M 729,395 C 729.333,395 729.667,395 730,395 C 729.099,398.377 721.551,398.072 715.232,394.403 C 696.190,383.346 684.841,378.654 666.796,374.377 C 646.028,369.455 618.933,371.071 593.500,378.746 C 577.944,383.441 567.956,383.879 564.969,380 C 563.776,378.451 563.036,375.884 563.022,373.250 C 563.015,371.833 563.007,370.417 563,369 C 564.333,366 565.667,363 567,360 C 567.333,364.667 567.667,369.333 568,374 C 568,375.629 569.654,376.793 571.676,377.638 C 576.182,379.521 580.788,378.988 594.500,374.997 C 637.399,362.510 677.827,367.639 715.313,390.327 C 718.510,392.262 722.898,394.105 725.063,394.423 C 726.375,394.615 727.688,394.808 729,395 Z"/></g><g id="orange-4" data-color-group="#8c5c3c"><path id="942" fill="#8c5c3c" stroke="none" d="M 332,518 C 338.541,526.792 355.949,537.422 367.250,539.525 C 371.615,540.337 372.274,542 368.230,542 C 365.171,542 352.665,538.775 346.656,536.437 C 337.016,532.686 323.839,522.204 318.159,513.770 C 316.308,511.022 312.607,503.537 309.933,497.137 C 307.259,490.737 305.055,486.342 305.035,487.372 C 305.005,488.945 304.754,489.040 303.458,487.965 C 302.457,487.134 302.257,486.343 302.890,485.710 C 303.523,485.077 303.099,483.699 301.682,481.780 C 299.909,479.379 299.506,477.483 299.528,471.663 C 299.568,461.245 304.711,449.415 305.116,458.809 C 305.189,460.502 305.401,460.851 305.689,459.750 C 306.232,457.674 307.465,457.511 309.132,459.296 C 310.116,460.350 311.760,460.360 317.921,459.349 C 322.089,458.665 329.100,458.086 333.500,458.061 C 337.900,458.036 350.472,457.477 361.437,456.818 C 376.850,455.892 381.445,455.890 381.687,456.810 C 381.791,457.207 381.896,457.603 382,458 C 366.888,458.868 357.438,459.744 351.250,460.507 C 341.020,461.768 340,462.080 340,463.947 C 340,464.631 340,465.316 340,466 C 339.530,465.650 339.059,465.301 338.589,464.951 C 337.106,463.849 322.883,466.768 316.268,469.532 C 313.155,470.833 313,471.152 313,476.239 C 313,489.502 319.105,502.922 332,518 Z"/></g><g id="dark-orange-5" fill="#291910" stroke="none" data-color-group="#291910"><path id="1183" d="M 341,486 C 342.691,485.575 342.729,481.999 342.128,474.995 C 341.201,464.198 341.373,462.558 343.351,463.286 C 343.983,463.518 348.663,463.094 353.750,462.344 C 359.743,461.460 363,461.336 363,461.990 C 363,462.545 362.268,463 361.373,463 C 359.975,463 359.940,463.225 361.123,464.596 C 362.331,465.996 362.194,466.210 360,466.346 C 357.174,466.521 356.015,470.109 358.009,472.511 C 358.649,473.282 358.870,474.402 358.500,475 C 358.130,475.598 358.243,476.631 358.750,477.294 C 359.257,477.957 359.712,480.600 359.760,483.168 C 359.862,488.631 361.885,492.148 366.603,495.064 C 368.471,496.219 370,497.577 370,498.082 C 370,498.587 370.830,499 371.845,499 C 372.860,499 374.488,500.013 375.463,501.250 C 378.746,505.416 379.493,506.004 381.500,506.007 C 383.538,506.010 391,512.145 391,513.818 C 391,515.344 384.318,515.940 378.227,514.957 C 367.621,513.245 362.968,510.944 356.036,503.987 C 352.481,500.419 348.318,496.712 346.786,495.750 C 345.857,495.167 344.929,494.583 344,494 C 343,491.333 342,488.667 341,486 Z"/><path id="1183" d="M 600,465 C 601.956,463.044 608.689,462.077 607.553,463.915 C 607.242,464.418 607.408,464.981 607.922,465.165 C 608.472,465.363 608.554,468.030 608.122,471.659 C 607.220,479.233 608.082,481.784 612.010,483.153 C 615.345,484.316 621,491.654 621,494.819 C 621,498.481 624.231,501.203 628.540,501.169 C 631.401,501.147 633.952,502.090 637.735,504.569 C 640.614,506.456 643.444,508 644.024,508 C 644.604,508 646.915,508.936 649.159,510.081 C 654.003,512.552 653.332,513.822 646.508,515.097 C 640.271,516.262 630.346,514.763 623.475,511.617 C 616.712,508.521 607.236,499.687 603.691,493.174 C 598.137,482.969 596.271,468.729 600,465 Z"/></g><g id="muted-orange-2" data-color-group="#79675a"><path id="1220" fill="#79675a" stroke="none" d="M 741,381 C 737.002,374.941 736.815,374.871 735.536,376.620 C 734.262,378.363 733.578,378.070 723.841,371.608 C 703.421,358.056 691.563,353.524 656.634,345.928 C 648.752,344.214 645.031,343.914 638.134,344.433 C 628.811,345.135 613.490,347.752 610.902,349.085 C 609.095,350.015 603.020,348.724 604.602,347.746 C 605.164,347.399 610.321,346.127 616.062,344.919 C 624.298,343.187 630.931,342.635 647.500,342.302 C 670.468,341.841 671.672,340.776 651.250,338.986 C 647.500,338.657 643.750,338.329 640,338 C 640.776,336.728 662.638,338.686 673.104,340.965 C 704.162,347.729 736.098,365.434 740.086,378.098 C 740.391,379.065 740.695,380.033 741,381 Z"/></g><g id="pale-orange" data-color-group="#f8efe3"><path id="1762" fill="#f8efe3" stroke="none" d="M 758,223 C 757.283,225.761 754.278,224.997 749.945,220.949 C 748.209,219.327 746.450,218 746.037,218 C 745.624,218 742.409,215.850 738.893,213.223 C 735.377,210.596 731.037,207.842 729.250,207.102 C 727.463,206.362 726,205.137 726,204.379 C 726,203.919 726,203.460 726,203 C 735.585,206.433 740.200,208.951 745.267,213.510 C 746.789,214.880 748.495,216 749.058,216 C 750.389,216 756.282,220.136 757.250,221.750 C 757.500,222.167 757.750,222.583 758,223 Z"/></g><g id="pale-orange-2" fill="#f9f0e3" stroke="none" data-color-group="#f9f0e3"><path id="1765" d="M 799,262 C 796.611,262.913 796,262.581 796,261.757 C 796,260.993 793.528,258.146 790.507,255.433 C 785.697,251.113 783.901,247.975 786.250,247.994 C 786.500,247.996 786.750,247.998 787,248 C 790.333,250.333 793.667,252.667 797,255 C 797.667,257.333 798.333,259.667 799,262 Z"/><path id="1763" d="M 767,230 C 764.611,230.945 758.613,227.055 758.905,224.750 C 758.937,224.500 758.968,224.250 759,224 C 763.530,224.712 765.331,225.613 765.923,226.460 C 766.282,226.973 766.641,227.487 767,228 C 767,228.667 767,229.333 767,230 Z"/><path id="1765" d="M 802,266 C 799.440,266 799.067,265.441 799.427,264.500 C 799.618,264 799.809,263.500 800,263 C 801.628,264.163 802.078,264.837 802.050,265.250 C 802.033,265.500 802.017,265.750 802,266 Z"/></g><g id="pale-orange-3" data-color-group="#faefe3"><path id="1766" fill="#faefe3" stroke="none" d="M 818,295 C 815.434,294.953 806.564,276.903 808.816,276.311 C 809.211,276.207 809.605,276.104 810,276 C 813.352,281.812 814.701,284.062 815.162,284.750 C 815.441,285.167 815.721,285.583 816,286 C 816.667,287.333 817.333,288.667 818,290 C 818,291.667 818,293.333 818,295 Z"/></g><g id="pale-orange-4" data-color-group="#f9efe3"><path id="1764" fill="#f9efe3" stroke="none" d="M 778,240 C 778.333,240.333 778.667,240.667 779,241 C 780,242 781,243 782,244 C 779.387,244.976 778.674,244.471 778.312,243.087 C 778.012,241.939 777.111,241 776.310,241 C 775.509,241 774.999,240.322 775.177,239.494 C 775.355,238.666 775.838,237.991 776.250,237.994 C 776.500,237.996 776.750,237.998 777,238 C 777.333,238.667 777.667,239.333 778,240 Z"/></g><g id="pale-orange-5" data-color-group="#f8eee4"><path id="1767" fill="#f8eee4" stroke="none" d="M 832,338 C 829.420,338 828.974,337.286 829.180,335.993 C 829.356,334.889 829.838,333.989 830.250,333.993 C 830.500,333.995 830.750,333.998 831,334 C 831.333,335.333 831.667,336.667 832,338 Z"/></g></svg>