<?xml version="1.0" encoding="UTF-8"?><svg xmlns="http://www.w3.org/2000/svg" width="1024" height="1024" viewBox="0 0 1024 1024">
  
  
  
  
  
  
  
  
  
  
  
  
  
  
  
  
  
  
  
  
  
  
  
  
  
  
  
  
  
  
  
  
  
  
  
  
  
  
  
  
  
  
  
  
  
<g data-color-group="#f8f8f8" id="white"><path id="1" d="M 732,0 C 732,0.865 732,1.729 732,2.594 C 732,4.347 732.648,5.357 734,5.710 C 735.373,6.069 735.991,7.059 735.969,8.867 C 735.938,11.500 735.937,11.500 733.416,9.663 C 730.109,7.254 728.210,8.113 727.818,12.193 C 727.560,14.884 727.034,15.548 725,15.757 C 722.555,16.008 722.541,15.970 724.352,14.076 C 725.371,13.011 725.933,11.700 725.601,11.163 C 724.414,9.243 720.800,11.343 719,15 C 719.609,15.750 720.218,16.500 720.827,17.250 C 721.832,18.487 722.980,20.383 723.378,21.463 C 723.958,23.038 724.436,23.210 725.800,22.329 C 726.735,21.725 727.950,21.589 728.500,22.026 C 730.473,23.594 736.739,24.231 737.535,22.944 C 737.955,22.264 738.208,18.511 738.097,14.604 C 737.953,9.538 738.332,6.926 739.416,5.500 C 740.252,4.400 740.951,2.713 741,0 C 835.333,0 929.667,0 1024,0 C 1024,341.333 1024,682.667 1024,1024 C 682.667,1024 341.333,1024 0,1024 C 0,682.667 0,341.333 0,0 C 244,0 488,0 732,0 ZM 633,166 C 630.186,166 627.373,166 624.559,166 C 619.559,166 615.844,166.443 615.446,167.087 C 614.639,168.392 587.043,167.286 585.550,165.889 C 584.212,164.636 567.262,164.767 566.478,166.036 C 566.042,166.741 534.934,167.031 469.169,166.942 C 410.994,166.863 365.930,167.231 356,167.865 C 340.323,168.866 316.093,171.665 302.672,174.026 C 286.341,176.899 262.463,184.678 248.927,191.536 C 241.507,195.295 227.109,205.074 220.983,210.515 C 205.662,224.122 193.884,241.486 185.700,262.532 C 176.828,285.347 173.788,298.987 169.439,335.500 C 166.620,359.169 165.873,409.328 166.266,548.500 C 166.638,680.195 166.734,686.203 168.766,703.660 C 171.470,726.899 172.356,731.799 176.602,747 C 182.481,768.046 187.806,779.743 198,794 C 199.548,796.083 201.096,798.167 202.644,800.250 C 212.734,813.829 229.746,827.906 245.712,835.886 C 266.985,846.519 293.674,852.978 329.500,856.165 C 351.025,858.080 673.680,858.111 695,856.200 C 723.259,853.667 748.971,848.311 766.482,841.309 C 797.650,828.846 820.785,807.543 835.777,777.500 C 844.174,760.672 848.626,744.183 854,710 C 854.186,709.667 854.372,709.335 854.558,709.002 C 854.865,708.453 855.806,696.640 856.650,682.752 C 857.945,661.429 858.087,639.221 857.564,540 C 856.764,388.327 855.567,354.262 849.854,320.590 C 848.137,310.472 848.033,308.308 849.158,306.205 C 851.151,302.480 848.188,288.097 844.711,284.620 C 842.577,282.486 842.199,281.208 842.247,276.300 C 842.307,270.133 838.357,259.735 835.544,258.655 C 834.775,258.360 833.259,256.114 832.175,253.664 C 831.091,251.214 827.801,245.462 824.864,240.883 C 821.927,236.304 819.660,231.754 819.826,230.772 C 819.998,229.759 819.344,228.706 818.314,228.339 C 817.316,227.983 812.112,223.261 797,208 C 797.035,207.750 797.069,207.500 797.104,207.250 C 797.381,205.245 793.021,202.959 789,203 C 787.750,202.038 786.500,201.076 785.250,200.114 C 783.188,198.527 778.463,195.602 768,190 C 767.583,189.515 767.167,189.029 766.750,188.544 C 765.394,186.965 750.370,181.114 745.500,180.269 C 743.850,179.983 742.050,179.418 741.500,179.015 C 739.467,177.524 722.307,173.735 716.500,173.495 C 713.200,173.359 707.688,172.967 698,172 C 697.333,172 696.667,172 696,172 C 694.667,171.667 693.333,171.333 692,171 C 691.667,171 691.333,171 691,171 C 690.734,170.668 690.469,170.335 690.203,170.003 C 688.990,168.485 667.950,166.669 667,168 C 662.474,168.019 657.949,168.039 653.423,168.058 C 645.341,168.093 639.270,167.688 637,166 C 635.667,166 634.333,166 633,166 ZM 54.352,591.419 C 53.364,591.798 52.976,593.069 53.186,595.243 C 53.483,598.324 53.716,598.500 57.500,598.500 C 61.405,598.500 61.500,598.417 61.500,595 C 61.500,591.900 61.177,591.463 58.666,591.175 C 57.107,590.996 55.166,591.107 54.352,591.419 ZM 53.667,745.667 C 52.685,746.649 52.826,747.150 54.655,749.171 C 57.639,752.468 63,750.945 63,746.800 C 63,745.344 62.173,745 58.667,745 C 56.284,745 54.034,745.300 53.667,745.667 ZM 55.663,539.863 C 55.203,540.063 55.291,540.691 55.859,541.259 C 56.427,541.827 56.619,543.652 56.287,545.314 C 55.771,547.895 55.936,548.238 57.423,547.668 C 58.380,547.301 60.068,547 61.175,547 C 62.349,547 63.406,546.163 63.713,544.989 C 64.002,543.883 65.330,542.705 66.663,542.370 C 71.120,541.251 68.528,539.500 62.414,539.500 C 59.161,539.500 56.123,539.663 55.663,539.863 ZM 105.706,798.250 C 104.812,802.889 105.066,803.907 107.618,805.914 C 112.018,809.375 113.345,806.463 110.487,799.622 C 108.785,795.549 106.360,794.853 105.706,798.250 ZM 131.674,670.250 C 130.044,672.587 129.418,678 130.778,678 C 131.206,678 132.326,677.100 133.268,676 C 135.296,673.631 137,673.403 137,675.500 C 137,677.055 138.565,677.565 139.303,676.250 C 139.534,675.838 139.991,674.375 140.317,673 C 140.797,670.979 140.402,670.260 138.256,669.250 C 134.553,667.506 133.474,667.670 131.674,670.250 ZM 183.439,872.385 C 180.320,873.582 183.285,880 186.956,880 C 188.940,880 193.981,877.755 193.992,876.867 C 193.996,876.519 193.212,875.945 192.250,875.592 C 191.288,875.239 189.235,874.248 187.689,873.391 C 186.143,872.534 184.231,872.081 183.439,872.385 ZM 233.530,872.975 C 230.703,875.321 231.645,878.556 235.500,879.739 C 239.167,880.865 243,880.411 243,878.852 C 243,878.349 242.325,877.679 241.500,877.362 C 240.675,877.045 240,876.150 240,875.372 C 240,873.136 235.393,871.429 233.530,872.975 ZM 755.334,877.353 C 753.284,878.500 754.922,880.023 758.493,880.290 C 760.832,880.465 761.442,880.005 762.117,877.560 C 763.090,874.036 761.599,871.771 758.588,872.202 C 757.189,872.402 756.559,873.161 756.680,874.500 C 756.779,875.599 756.174,876.883 755.334,877.353 ZM 952.250,668.516 C 950.742,669.024 950.640,671.921 952.002,675.504 C 952.742,677.451 953.590,678.055 955.252,677.819 C 957.241,677.537 957.500,676.923 957.500,672.500 C 957.500,667.326 956.972,666.925 952.250,668.516 ZM 966.509,671.992 C 964.627,673.554 965.021,675.375 967.336,675.824 C 969.364,676.217 970.692,673.292 969.175,671.775 C 968.388,670.988 967.647,671.048 966.509,671.992 Z" fill="#F8F8F8" stroke="none" style="display:none"/></g><g data-color-group="#ebb873" id="light-orange"><path id="38" d="M 198,794 C 187.806,779.743 182.481,768.046 176.602,747 C 172.356,731.799 171.470,726.899 168.766,703.660 C 166.734,686.203 166.638,680.195 166.266,548.500 C 165.873,409.328 166.620,359.169 169.439,335.500 C 173.788,298.987 176.828,285.347 185.700,262.532 C 193.884,241.486 205.662,224.122 220.983,210.515 C 227.109,205.074 241.507,195.295 248.927,191.536 C 262.463,184.678 286.341,176.899 302.672,174.026 C 316.093,171.665 340.323,168.866 356,167.865 C 365.930,167.231 410.994,166.863 469.169,166.942 C 534.934,167.031 566.042,166.741 566.478,166.036 C 567.262,164.767 584.212,164.636 585.550,165.889 C 587.043,167.286 614.639,168.392 615.446,167.087 C 615.844,166.443 619.559,166 624.559,166 C 627.373,166 630.186,166 633,166 C 633,166.500 633,167 633,167.500 C 633,168.333 633.889,169 635,169 C 636.111,169 637,168.333 637,166 C 639.270,167.688 645.341,168.093 653.423,168.058 C 657.949,168.039 662.474,168.019 667,168 C 667,168.450 667,168.901 667,169.351 C 667,171.592 690.407,173.201 691,171 C 691.333,171 691.667,171 692,171 C 692,171.500 692,172 692,172.500 C 692,173.333 692.889,174 694,174 C 695.100,174 696,173.550 696,172 C 696.667,172 697.333,172 698,172 C 698,172.458 698,172.915 698,173.373 C 698,174.750 698.771,174.938 725.500,180.064 C 731.550,181.224 739.200,183.198 742.500,184.451 C 745.800,185.704 752.751,187.988 757.946,189.527 C 764.484,191.464 767.485,191.968 768,190 C 778.463,195.602 783.188,198.527 785.250,200.114 C 786.500,201.076 787.750,202.038 789,203 C 789,203.491 789,203.983 789,204.474 C 789,206.693 794.871,209.281 797,208 C 812.112,223.261 817.316,227.983 818.314,228.339 C 819.344,228.706 819.998,229.759 819.826,230.772 C 819.660,231.754 821.927,236.304 824.864,240.883 C 827.801,245.462 831.091,251.214 832.175,253.664 C 833.259,256.114 834.775,258.360 835.544,258.655 C 838.357,259.735 842.307,270.133 842.247,276.300 C 842.199,281.208 842.577,282.486 844.711,284.620 C 848.188,288.097 851.151,302.480 849.158,306.205 C 848.033,308.308 848.137,310.472 849.854,320.590 C 855.567,354.262 856.764,388.327 857.564,540 C 858.087,639.221 857.945,661.429 856.650,682.752 C 855.806,696.640 854.865,708.453 854.558,709.002 C 854.372,709.335 854.186,709.667 854,710 C 853.500,705.833 853,701.667 852.500,697.500 C 852.235,700.331 851.971,703.163 851.706,705.994 C 851.269,710.666 850.553,714.847 850.114,715.286 C 849.675,715.725 848.997,706.953 848.606,695.792 C 847.246,656.922 846.994,652.423 845.489,640 C 843.879,626.708 842.985,616.947 842.559,608 C 842.415,604.975 842.022,599.125 841.685,595 C 840.828,584.502 839.974,570.256 839.498,558.500 C 839.275,553 838.638,537.700 838.081,524.500 C 837.524,511.300 836.802,492.175 836.477,482 C 836.152,471.825 835.692,460.575 835.456,457 C 835.220,453.425 834.802,444.200 834.528,436.500 C 833.724,413.918 832.989,398.854 832.430,393.500 C 832.143,390.750 831.701,386.250 831.448,383.500 C 831.195,380.750 830.587,375.669 830.098,372.209 C 829.609,368.749 829.421,365.104 829.682,364.107 C 830.513,360.928 828.211,354.568 825.841,353.499 C 823.870,352.610 823.773,352.268 824.957,350.404 C 826.153,348.522 826.055,348.248 824.007,347.712 C 821.970,347.179 821.793,346.694 822.356,343.175 C 822.815,340.302 822.581,338.897 821.493,337.994 C 820.672,337.312 820,335.659 820,334.319 C 820,332.897 819.570,332.148 818.967,332.521 C 818.337,332.910 817.989,337.721 818.076,344.830 C 818.249,358.992 818.189,359.660 816.354,363.762 C 815.552,365.556 814.647,369.606 814.343,372.762 C 814.039,375.918 813.338,379.057 812.784,379.737 C 812.230,380.417 812.048,382.055 812.379,383.375 C 812.710,384.695 812.529,387.963 811.976,390.637 C 811.423,393.311 810.494,398.425 809.912,402 C 809.330,405.575 808.466,409.233 807.993,410.130 C 807.520,411.027 806.861,416.857 806.528,423.086 C 806.195,429.315 805.731,434.603 805.497,434.837 C 805.263,435.071 805.465,436 805.947,436.901 C 806.468,437.875 806.323,441.976 805.589,447.019 C 804.718,453.003 804.665,456.009 805.406,457.229 C 806.184,458.511 806.038,459.675 804.839,461.729 C 803.845,463.433 802.989,468.022 802.618,473.648 C 802.286,478.679 801.743,483.508 801.409,484.378 C 800.655,486.342 800.070,492.567 799.426,505.500 C 798.834,517.380 798.690,518.654 795.477,540.500 C 795.315,541.600 794.658,544.750 794.015,547.500 C 793.372,550.250 792.602,555.650 792.303,559.500 C 791.952,564.023 791.095,567.439 789.880,569.154 C 788.789,570.694 788,573.502 788,575.845 C 788,578.065 787.590,580.135 787.089,580.445 C 786.588,580.755 785.882,584.944 785.519,589.754 C 785.150,594.654 783.791,601.692 782.430,605.759 C 781.094,609.751 780,614.144 780,615.522 C 780,616.900 779.583,618.809 779.072,619.764 C 775.899,625.699 773.734,631.663 773.092,636.242 C 772.686,639.134 771.375,643.394 770.177,645.710 C 768.979,648.026 768,650.558 768,651.338 C 768,652.118 767.399,653.254 766.665,653.863 C 765.931,654.472 764.712,656.891 763.958,659.236 C 763.204,661.581 762.004,663.860 761.293,664.300 C 760.582,664.740 760,665.908 760,666.896 C 760,667.884 758.425,670.315 756.500,672.297 C 754.374,674.486 753,676.893 753,678.427 C 753,680.042 752.065,681.567 750.409,682.652 C 748.984,683.586 747.403,685.440 746.897,686.772 C 746.391,688.104 745.136,689.414 744.110,689.682 C 743.084,689.950 741.748,691.257 741.143,692.585 C 740.538,693.913 739.411,695 738.640,695 C 737.189,695 732.842,700.174 731.708,703.250 C 731.353,704.213 730.411,705 729.616,705 C 728.820,705 726.388,707.025 724.209,709.500 C 722.030,711.975 719.587,714 718.779,714 C 716.884,714 713.530,717.702 713.513,719.813 C 713.505,720.752 712.226,721.833 710.500,722.357 C 705.491,723.877 703.213,725.163 700.046,728.259 C 698.353,729.915 696.384,730.978 695.582,730.670 C 694.793,730.367 693.609,730.767 692.951,731.559 C 692.293,732.351 691.166,733 690.445,733 C 689.724,733 688.849,733.900 688.500,735 C 688.151,736.100 687.081,737 686.122,737 C 685.164,737 682.981,738.367 681.271,740.039 C 678.919,742.338 677.577,742.932 675.757,742.475 C 674.195,742.083 672.896,742.420 672.053,743.436 C 671.339,744.296 669.695,745 668.398,745 C 664.453,745 657.414,748.221 658.692,749.442 C 659.301,750.024 659.446,750.877 659.013,751.337 C 658.580,751.797 657.922,751.683 657.552,751.084 C 656.633,749.597 653,751.574 653,753.560 C 653,754.379 651.826,755.496 650.391,756.041 C 648.188,756.878 647.981,757.272 649.056,758.567 C 650.123,759.853 649.991,760.190 648.234,760.649 C 646.992,760.974 646.351,761.751 646.660,762.557 C 646.985,763.405 646.242,764.152 644.685,764.543 C 643.312,764.888 641.962,766.036 641.685,767.095 C 641.408,768.154 639.904,769.584 638.341,770.272 C 636.778,770.960 633.527,772.868 631.116,774.512 C 628.705,776.156 625.555,778.285 624.116,779.245 C 622.518,780.311 619.587,780.992 616.579,780.995 C 613.594,780.998 610.999,781.595 609.984,782.514 C 608.088,784.230 598.305,787 594.142,787 C 592.624,787 590.509,787.661 589.441,788.468 C 588.373,789.275 586.147,789.950 584.493,789.968 C 582.839,789.986 579.923,790.449 578.012,790.997 C 576.101,791.545 571.378,792.229 567.518,792.517 C 561.060,792.999 555.914,793.868 541,796.992 C 534.938,798.262 533.843,798.398 516.500,800.025 C 509.900,800.644 503.084,801.791 501.354,802.573 C 499.624,803.355 497.149,803.987 495.854,803.977 C 491.738,803.945 474.838,804.722 465,805.395 C 459.775,805.752 449.425,806.243 442,806.487 C 427.461,806.964 412.400,807.759 402,808.597 C 398.425,808.885 390.775,809.339 385,809.605 C 379.225,809.871 370.900,810.502 366.500,811.007 C 362.100,811.512 351.300,812.148 342.500,812.419 C 333.700,812.690 320.200,813.438 312.500,814.080 C 293.483,815.666 298.258,815.873 253.831,811.532 C 238.511,810.035 225.112,806.419 213.255,800.582 C 210.370,799.162 207.141,798 206.078,798 C 205.015,798 202.763,796.322 201.073,794.272 C 198.933,791.676 198,791.069 198,792.272 C 198,792.848 198,793.424 198,794 ZM 380,698 C 387.675,702.309 390.009,701.630 405.600,690.560 C 412.145,685.913 421.006,680.019 425.292,677.462 C 446.745,664.664 473.331,657.042 501.750,655.541 C 505.167,655.361 508.583,655.180 512,655 C 533.312,656.522 544,657.897 549.500,659.039 C 570.454,663.389 591.087,672.013 607.799,683.408 C 612.310,686.484 619.629,691.475 624.064,694.500 C 630.692,699.021 632.878,700 636.341,700 C 642.604,700 645,697.886 645,692.357 C 645,689.798 644.130,686.124 643,683.913 C 642.333,682.609 641.667,681.304 641,680 C 630.096,664.932 617.535,652.181 605.213,643.671 C 602.476,641.780 599.737,639.891 597,638 C 588.088,631.914 581.900,628.573 577.500,626.650 C 566.512,621.847 547.713,616.282 536.138,614.404 C 526.203,612.792 495.003,611.917 495.001,613.250 C 495.001,613.500 495,613.750 495,614 C 482.666,614.996 460.416,619.972 448.979,624.292 C 445.415,625.638 439.462,628.598 435.750,630.870 C 433.500,632.247 431.250,633.623 429,635 C 429.002,634.750 429.004,634.500 429.006,634.250 C 429.009,633.838 428.293,633.346 427.415,633.159 C 426.313,632.924 426.001,633.311 427,636 C 411.789,645.304 405.567,650.282 400.250,655.658 C 397.500,658.439 394.750,661.219 392,664 C 391.500,663.809 391,663.618 390.500,663.427 C 389.559,663.067 389,663.440 389,664.427 C 389,665.292 389.450,666 391,666 C 390,667 389,668 388,669 C 387.499,668.809 386.998,668.617 386.497,668.426 C 385.604,668.085 384.719,668.568 384.317,669.616 C 383.922,670.645 384.132,671.509 386,672 C 381.348,676.836 379.322,680.436 378.498,683.120 C 377.999,684.747 377.499,686.373 377,688 C 376,688 375,688 374,688 C 374,689.167 374,690.333 374,691.500 C 374,693.944 374.452,695 377,695 C 378,696 379,697 380,698 ZM 437,353 C 429.673,345.673 429.200,345.502 423,345.541 C 420.833,345.555 418.667,345.567 416.500,345.581 C 413.768,347.974 411.037,350.367 408.305,352.760 C 389.570,369.171 377.290,377.169 360.469,383.912 C 343.616,390.668 317.410,396 301.056,396 C 288.891,396 283.742,397.436 279.644,401.972 C 277.742,404.078 275.918,406.521 275.592,407.401 C 275.394,407.934 275.198,408.467 275,409 C 275.333,411.667 275.667,414.333 276,417 C 280.573,427.738 284.385,430.211 297.314,430.829 C 319.561,431.893 358.818,424.974 379.313,416.377 C 388.112,412.686 406.525,402.466 413,397.678 C 421.881,391.112 435.607,378.045 437.889,373.984 C 440.400,369.516 440.670,361.164 438.461,356.250 C 437.974,355.167 437.487,354.083 437,353 ZM 634,368 C 617.338,353.298 610.733,348.073 608.574,346.904 C 599.283,341.875 587.573,347.663 584.602,358.753 C 584.401,359.502 584.201,360.251 584,361 C 585.525,368.935 587.152,370.977 597.067,380.623 C 603.355,386.741 611.425,393.992 615,396.736 C 623.998,403.642 642.391,414.507 651.810,418.479 C 664.880,423.991 696.481,433.010 709.500,434.943 C 724.852,437.223 746.151,437.130 750.380,434.764 C 754.800,432.291 757.101,428.156 756.368,424 C 755.368,418.328 749.563,406.629 745.537,402.173 C 741.092,397.253 737.325,396.014 726.801,396.006 C 702.176,395.988 667.825,387.410 648.250,376.392 C 646.833,375.595 645.417,374.797 644,374 C 640.667,372 637.333,370 634,368 ZM 431,460 C 404.263,465.423 390.875,467.909 384,469.023 C 377.125,470.137 365.875,472.123 359,473.438 C 352.125,474.752 339.975,477.031 332,478.501 C 316.014,481.448 311.412,482.640 310.565,484.056 C 310.377,484.371 310.188,484.685 310,485 C 310,488.604 311.063,492.775 312.362,496.594 C 318.996,516.099 331.679,531.341 347.704,539.067 C 373.699,551.600 403.315,546.857 423,527.010 C 431.466,518.474 435.933,511.513 439.793,500.835 C 442.121,494.397 442.449,491.972 442.473,481 C 442.502,467.630 441.293,462.491 437.892,461.533 C 437.261,461.355 436.631,461.178 436,461 C 436,460.500 436,460 436,459.500 C 436,458.567 435.056,458 433.500,458 C 432.125,458 431,458.450 431,460 ZM 579,487 C 584.108,504.756 590.019,515.857 599.500,525.499 C 612.396,538.615 626.379,544.975 644,545.742 C 667.769,546.776 688.665,536.307 701.566,516.901 C 706.214,509.909 710.939,498.540 710.979,494.250 C 710.986,493.500 710.993,492.750 711,492 C 711.083,490.426 711.167,488.853 711.250,487.279 C 711.423,484.015 712.195,481.809 713.750,480.133 C 714.987,478.799 716,476.904 716,475.921 C 716,474.285 712.613,472.304 710.697,472.819 C 710.255,472.938 706.205,473.296 701.697,473.615 C 697.189,473.934 693.348,474.340 693.162,474.519 C 692.976,474.698 694.101,475.557 695.662,476.429 C 698.116,477.800 696.672,477.745 685,476.021 C 677.575,474.925 667,473.168 661.500,472.119 C 656,471.070 648.463,469.939 638,469 C 624.769,466.072 591.696,460 588.980,460 C 587.987,460 586.993,460 586,460 C 586.002,459.750 586.005,459.500 586.007,459.250 C 586.011,458.837 585.139,458.360 584.070,458.189 C 580.814,457.668 578.702,462.588 579,470 C 579,470.667 579,471.333 579,472 C 578.333,472 577.667,472 577,472 C 577,474.500 577,477 577,479.500 C 577,483.833 577.422,487 579,487 Z" fill="#EBB873" stroke="none"/></g><g data-color-group="#c77f4b" id="orange"><path id="12" d="M 854,710 C 848.626,744.183 844.174,760.672 835.777,777.500 C 820.785,807.543 797.650,828.846 766.482,841.309 C 748.971,848.311 723.259,853.667 695,856.200 C 673.680,858.111 351.025,858.080 329.500,856.165 C 293.674,852.978 266.985,846.519 245.712,835.886 C 229.746,827.906 212.734,813.829 202.644,800.250 C 201.096,798.167 199.548,796.083 198,794 C 198,793.424 198,792.848 198,792.272 C 198,791.069 198.933,791.676 201.073,794.272 C 202.763,796.322 205.015,798 206.078,798 C 207.141,798 210.370,799.162 213.255,800.582 C 225.112,806.419 238.511,810.035 253.831,811.532 C 298.258,815.873 293.483,815.666 312.500,814.080 C 320.200,813.438 333.700,812.690 342.500,812.419 C 351.300,812.148 362.100,811.512 366.500,811.007 C 370.900,810.502 379.225,809.871 385,809.605 C 390.775,809.339 398.425,808.885 402,808.597 C 412.400,807.759 427.461,806.964 442,806.487 C 449.425,806.243 459.775,805.752 465,805.395 C 474.838,804.722 491.738,803.945 495.854,803.977 C 497.149,803.987 499.624,803.355 501.354,802.573 C 503.084,801.791 509.900,800.644 516.500,800.025 C 533.843,798.398 534.938,798.262 541,796.992 C 555.914,793.868 561.060,792.999 567.518,792.517 C 571.378,792.229 576.101,791.545 578.012,790.997 C 579.923,790.449 582.839,789.986 584.493,789.968 C 586.147,789.950 588.373,789.275 589.441,788.468 C 590.509,787.661 592.624,787 594.142,787 C 598.305,787 608.088,784.230 609.984,782.514 C 610.999,781.595 613.594,780.998 616.579,780.995 C 619.587,780.992 622.518,780.311 624.116,779.245 C 625.555,778.285 628.705,776.156 631.116,774.512 C 633.527,772.868 636.778,770.960 638.341,770.272 C 639.904,769.584 641.408,768.154 641.685,767.095 C 641.962,766.036 643.312,764.888 644.685,764.543 C 646.242,764.152 646.985,763.405 646.660,762.557 C 646.351,761.751 646.992,760.974 648.234,760.649 C 649.991,760.190 650.123,759.853 649.056,758.567 C 647.981,757.272 648.188,756.878 650.391,756.041 C 651.826,755.496 653,754.379 653,753.560 C 653,751.574 656.633,749.597 657.552,751.084 C 657.922,751.683 658.580,751.797 659.013,751.337 C 659.446,750.877 659.301,750.024 658.692,749.442 C 657.414,748.221 664.453,745 668.398,745 C 669.695,745 671.339,744.296 672.053,743.436 C 672.896,742.420 674.195,742.083 675.757,742.475 C 677.577,742.932 678.919,742.338 681.271,740.039 C 682.981,738.367 685.164,737 686.122,737 C 687.081,737 688.151,736.100 688.500,735 C 688.849,733.900 689.724,733 690.445,733 C 691.166,733 692.293,732.351 692.951,731.559 C 693.609,730.767 694.793,730.367 695.582,730.670 C 696.384,730.978 698.353,729.915 700.046,728.259 C 703.213,725.163 705.491,723.877 710.500,722.357 C 712.226,721.833 713.505,720.752 713.513,719.813 C 713.530,717.702 716.884,714 718.779,714 C 719.587,714 722.030,711.975 724.209,709.500 C 726.388,707.025 728.820,705 729.616,705 C 730.411,705 731.353,704.213 731.708,703.250 C 732.842,700.174 737.189,695 738.640,695 C 739.411,695 740.538,693.913 741.143,692.585 C 741.748,691.257 743.084,689.950 744.110,689.682 C 745.136,689.414 746.391,688.104 746.897,686.772 C 747.403,685.440 748.984,683.586 750.409,682.652 C 752.065,681.567 753,680.042 753,678.427 C 753,676.893 754.374,674.486 756.500,672.297 C 758.425,670.315 760,667.884 760,666.896 C 760,665.908 760.582,664.740 761.293,664.300 C 762.004,663.860 763.204,661.581 763.958,659.236 C 764.712,656.891 765.931,654.472 766.665,653.863 C 767.399,653.254 768,652.118 768,651.338 C 768,650.558 768.979,648.026 770.177,645.710 C 771.375,643.394 772.686,639.134 773.092,636.242 C 773.734,631.663 775.899,625.699 779.072,619.764 C 779.583,618.809 780,616.900 780,615.522 C 780,614.144 781.094,609.751 782.430,605.759 C 783.791,601.692 785.150,594.654 785.519,589.754 C 785.882,584.944 786.588,580.755 787.089,580.445 C 787.590,580.135 788,578.065 788,575.845 C 788,573.502 788.789,570.694 789.880,569.154 C 791.095,567.439 791.952,564.023 792.303,559.500 C 792.602,555.650 793.372,550.250 794.015,547.500 C 794.658,544.750 795.315,541.600 795.477,540.500 C 798.690,518.654 798.834,517.380 799.426,505.500 C 800.070,492.567 800.655,486.342 801.409,484.378 C 801.743,483.508 802.286,478.679 802.618,473.648 C 802.989,468.022 803.845,463.433 804.839,461.729 C 806.038,459.675 806.184,458.511 805.406,457.229 C 804.665,456.009 804.718,453.003 805.589,447.019 C 806.323,441.976 806.468,437.875 805.947,436.901 C 805.465,436 805.263,435.071 805.497,434.837 C 805.731,434.603 806.195,429.315 806.528,423.086 C 806.861,416.857 807.520,411.027 807.993,410.130 C 808.466,409.233 809.330,405.575 809.912,402 C 810.494,398.425 811.423,393.311 811.976,390.637 C 812.529,387.963 812.710,384.695 812.379,383.375 C 812.048,382.055 812.230,380.417 812.784,379.737 C 813.338,379.057 814.039,375.918 814.343,372.762 C 814.647,369.606 815.552,365.556 816.354,363.762 C 818.189,359.660 818.249,358.992 818.076,344.830 C 817.989,337.721 818.337,332.910 818.967,332.521 C 819.570,332.148 820,332.897 820,334.319 C 820,335.659 820.672,337.312 821.493,337.994 C 822.581,338.897 822.815,340.302 822.356,343.175 C 821.793,346.694 821.970,347.179 824.007,347.712 C 826.055,348.248 826.153,348.522 824.957,350.404 C 823.773,352.268 823.870,352.610 825.841,353.499 C 828.211,354.568 830.513,360.928 829.682,364.107 C 829.421,365.104 829.609,368.749 830.098,372.209 C 830.587,375.669 831.195,380.750 831.448,383.500 C 831.701,386.250 832.143,390.750 832.430,393.500 C 832.989,398.854 833.724,413.918 834.528,436.500 C 834.802,444.200 835.220,453.425 835.456,457 C 835.692,460.575 836.152,471.825 836.477,482 C 836.802,492.175 837.524,511.300 838.081,524.500 C 838.638,537.700 839.275,553 839.498,558.500 C 839.974,570.256 840.828,584.502 841.685,595 C 842.022,599.125 842.415,604.975 842.559,608 C 842.985,616.947 843.879,626.708 845.489,640 C 846.994,652.423 847.246,656.922 848.606,695.792 C 848.997,706.953 849.675,715.725 850.114,715.286 C 850.553,714.847 851.269,710.666 851.706,705.994 C 851.971,703.163 852.235,700.331 852.500,697.500 C 853,701.667 853.500,705.833 854,710 Z" fill="#C77F4B" stroke="none"/></g><g data-color-group="#3b1f14" id="dark-orange"><path id="32" d="M 579,487 C 579,482 579,477 579,472 C 579,471.333 579,470.667 579,470 C 579.250,470.002 579.500,470.005 579.750,470.007 C 580.162,470.011 580.647,468.830 580.828,467.383 C 581.009,465.936 582.246,463.683 586,460 C 586.993,460 587.987,460 588.980,460 C 591.696,460 624.769,466.072 638,469 C 640.583,469.505 643.167,470.010 645.750,470.515 C 650.013,471.348 658.450,472.953 664.500,474.082 C 696.158,479.989 705.666,482.125 708,483.850 C 709.592,485.027 710.591,486.842 711,492 C 710.993,492.750 710.986,493.500 710.979,494.250 C 710.939,498.540 706.214,509.909 701.566,516.901 C 688.665,536.307 667.769,546.776 644,545.742 C 626.379,544.975 612.396,538.615 599.500,525.499 C 590.019,515.857 584.108,504.756 579,487 ZM 707.319,486.319 C 705.390,484.390 695.513,481.959 668.965,476.879 C 657.855,474.753 657.331,474.737 654.724,476.445 C 651.305,478.685 651.908,479.652 657.255,480.497 C 659.590,480.866 663.630,482.255 666.232,483.584 C 668.834,484.913 671.577,486 672.327,486 C 673.077,486 674.518,486.915 675.529,488.032 C 676.540,489.149 678.073,489.978 678.934,489.875 C 681.097,489.615 686,491.736 686,492.931 C 686,494.871 691.199,501.493 692.509,501.223 C 693.246,501.071 694.135,501.408 694.484,501.973 C 695.534,503.671 697,503.132 697,501.047 C 697,498.369 698.994,494.217 700.569,493.612 C 702.134,493.012 703.448,498.013 702.506,500.982 C 701.985,502.625 702.257,502.949 703.945,502.691 C 707.255,502.186 708.133,500.631 708.712,494.243 C 709.169,489.200 708.949,487.949 707.319,486.319 ZM 628.612,477.093 C 627.849,476.460 624.586,475.441 621.362,474.829 C 618.138,474.217 612.269,472.430 608.320,470.858 C 604.371,469.286 600.233,468 599.126,468 C 594.267,468 592.810,475.631 595.382,487.611 C 596.104,490.972 596.476,495.208 596.210,497.024 C 595.602,501.169 597.797,503 603.376,503 C 613.958,503 623.914,497.515 628.047,489.409 C 630.322,484.947 630.606,478.748 628.612,477.093 ZM 590.333,463.667 C 588.807,462.141 585.957,463.182 584.629,465.751 C 582.664,469.551 581.634,478.914 582.457,485.500 C 583.269,491.998 584.991,492.838 585.020,486.750 C 585.059,478.449 586.823,469.816 588.941,467.562 C 591.170,465.189 591.351,464.685 590.333,463.667 Z" fill="#3B1F14" stroke="none"/><path id="32" d="M 310,485 C 310.188,484.685 310.377,484.371 310.565,484.056 C 311.412,482.640 316.014,481.448 332,478.501 C 339.975,477.031 352.125,474.752 359,473.438 C 365.875,472.123 377.125,470.137 384,469.023 C 390.875,467.909 404.263,465.423 431,460 C 432.667,460.333 434.333,460.667 436,461 C 436.631,461.178 437.261,461.355 437.892,461.533 C 441.293,462.491 442.502,467.630 442.473,481 C 442.449,491.972 442.121,494.397 439.793,500.835 C 435.933,511.513 431.466,518.474 423,527.010 C 403.315,546.857 373.699,551.600 347.704,539.067 C 331.679,531.341 318.996,516.099 312.362,496.594 C 311.063,492.775 310,488.604 310,485 ZM 439.311,466.691 C 436.729,461.781 434.700,461.545 419.902,464.436 C 412.531,465.876 405.719,467.492 404.764,468.027 C 403.809,468.562 401.761,469 400.214,469 C 396.058,469 394.774,470.726 396.721,473.697 C 398.149,475.877 398.985,476.117 404.906,476.048 C 408.533,476.006 416.376,476.091 422.335,476.236 C 425.947,476.324 429.558,476.412 433.170,476.500 C 433.611,477.549 434.053,478.598 434.494,479.647 C 435.222,481.378 435.730,485.540 435.624,488.897 C 435.518,492.254 435.785,495 436.216,495 C 436.647,495 437.007,494.212 437.015,493.250 C 437.028,491.782 437.181,491.737 437.961,492.971 C 439.248,495.005 440.075,493.862 440.703,489.181 C 441.152,485.837 440.896,485.015 439.118,484.063 C 437.597,483.249 437,481.970 437,479.524 C 437,477.651 436.570,475.852 436.044,475.527 C 434.713,474.704 435.911,472 437.607,472 C 438.373,472 439,472.900 439,474 C 439,475.100 439.450,476 440,476 C 441.469,476 441.020,469.942 439.311,466.691 ZM 326.786,489.787 C 325.401,490.964 325.125,492.657 325.349,498.602 C 325.501,502.649 325.904,506.238 326.244,506.578 C 326.584,506.918 326.622,507.823 326.327,508.591 C 326.027,509.373 326.606,510.320 327.645,510.744 C 328.665,511.160 329.500,512.175 329.500,513 C 329.500,513.825 330.175,514.500 331,514.500 C 331.879,514.500 332.511,513.571 332.528,512.257 C 332.577,508.344 335.267,506.824 343.652,505.964 C 347.969,505.522 352.400,504.855 353.500,504.483 C 358.682,502.731 371.950,495.730 371.492,494.988 C 371.208,494.529 372.282,493.224 373.877,492.088 C 377.550,489.473 378.553,485.773 376.457,482.574 C 375.013,480.371 374.371,480.201 369.187,480.654 C 363.372,481.162 351.657,483.197 344.500,484.942 C 342.300,485.478 337.800,486.461 334.500,487.124 C 331.200,487.787 327.728,488.986 326.786,489.787 Z" fill="#3B1F14" stroke="none"/><path id="32" d="M 512,655 C 511.569,654.310 507.407,654.044 502.472,653.963 C 490.651,653.770 464.657,658.176 451.152,662.663 C 445.461,664.554 440.288,665.929 439.657,665.719 C 438.216,665.239 444.328,659 446.239,659 C 447.005,659 449.027,657.425 450.731,655.500 C 453.634,652.221 454.215,652 459.928,652 C 463.282,652 466.910,652.551 467.989,653.225 C 469.640,654.256 470.192,654.137 471.475,652.475 C 472.948,650.567 473.049,650.562 474.422,652.334 C 475.776,654.081 476.014,654.087 479.428,652.467 C 482.197,651.153 483.332,651.032 484.417,651.932 C 485.406,652.753 486.019,652.779 486.487,652.021 C 486.853,651.429 486.110,650.099 484.835,649.067 C 482.581,647.242 482.568,647.136 484.344,645.173 C 485.741,643.629 487.970,643.001 493.835,642.500 C 502.875,641.728 507.692,641.290 518.500,640.261 C 532.332,638.944 545.471,639.424 548.413,641.351 C 552.044,643.730 566.856,644.443 574.025,642.584 C 577.513,641.679 580.068,641.501 581.163,642.087 C 582.101,642.589 583.968,643 585.312,643 C 586.656,643 588.315,643.675 589,644.500 C 589.685,645.325 591.817,646 593.738,646 C 596.488,646 597.950,646.786 600.615,649.695 C 602.477,651.727 604,654.005 604,654.756 C 604,655.635 606.148,656.520 610.028,657.242 C 613.344,657.859 616.549,658.957 617.151,659.682 C 617.753,660.407 619.042,661 620.016,661 C 621.892,661 634.932,674.833 638.778,680.904 C 640.729,683.983 641.052,684.176 641.028,682.250 C 641.019,681.500 641.009,680.750 641,680 C 641.667,681.304 642.333,682.609 643,683.913 C 644.130,686.124 645,689.798 645,692.357 C 645,697.886 642.604,700 636.341,700 C 632.878,700 630.692,699.021 624.064,694.500 C 619.629,691.475 612.310,686.484 607.799,683.408 C 591.087,672.013 570.454,663.389 549.500,659.039 C 544,657.897 533.312,656.522 512,655 Z" fill="#3B1F14" stroke="none"/><path id="32" d="M 432.491,362.992 C 434.340,364.527 434.340,364.443 432.499,368.003 C 431.673,369.600 428.861,372.372 426.249,374.163 C 423.637,375.954 418.556,380.363 414.958,383.960 C 405.636,393.280 398.446,397.149 396.450,393.919 C 395.450,392.300 400.522,387.478 409.585,381.430 C 418.533,375.459 420.545,373.722 426.741,366.608 C 430.304,362.518 431.223,361.940 432.491,362.992 Z" fill="#3B1F14" stroke="none"/></g><g data-color-group="#231005" id="dark-orange-2"><path id="4" d="M 495,616 C 501.750,616.132 508.500,616.263 515.250,616.395 C 546.383,617.002 562.333,621.218 597,638 C 599.737,639.891 602.476,641.780 605.213,643.671 C 617.535,652.181 630.096,664.932 641,680 C 641.009,680.750 641.019,681.500 641.028,682.250 C 641.052,684.176 640.729,683.983 638.778,680.904 C 634.932,674.833 621.892,661 620.016,661 C 619.042,661 617.753,660.407 617.151,659.682 C 616.549,658.957 613.344,657.859 610.028,657.242 C 606.148,656.520 604,655.635 604,654.756 C 604,654.005 602.477,651.727 600.615,649.695 C 597.950,646.786 596.488,646 593.738,646 C 591.817,646 589.685,645.325 589,644.500 C 588.315,643.675 586.656,643 585.312,643 C 583.968,643 582.101,642.589 581.163,642.087 C 580.068,641.501 577.513,641.679 574.025,642.584 C 566.856,644.443 552.044,643.730 548.413,641.351 C 545.471,639.424 532.332,638.944 518.500,640.261 C 507.692,641.290 502.875,641.728 493.835,642.500 C 487.970,643.001 485.741,643.629 484.344,645.173 C 482.568,647.136 482.581,647.242 484.835,649.067 C 486.110,650.099 486.853,651.429 486.487,652.021 C 486.019,652.779 485.406,652.753 484.417,651.932 C 483.332,651.032 482.197,651.153 479.428,652.467 C 476.014,654.087 475.776,654.081 474.422,652.334 C 473.049,650.562 472.948,650.567 471.475,652.475 C 470.192,654.137 469.640,654.256 467.989,653.225 C 466.910,652.551 463.282,652 459.928,652 C 454.215,652 453.634,652.221 450.731,655.500 C 449.027,657.425 447.005,659 446.239,659 C 444.328,659 438.216,665.239 439.657,665.719 C 440.288,665.929 445.461,664.554 451.152,662.663 C 464.657,658.176 490.651,653.770 502.472,653.963 C 507.407,654.044 511.569,654.310 512,655 C 508.583,655.180 505.167,655.361 501.750,655.541 C 473.331,657.042 446.745,664.664 425.292,677.462 C 421.006,680.019 412.145,685.913 405.600,690.560 C 390.009,701.630 387.675,702.309 380,698 C 379.789,696.664 379.578,695.328 379.367,693.992 C 378.053,685.671 385.214,674.669 403.236,657.316 C 413.270,647.655 421.482,641.883 436.726,633.781 C 453.220,625.015 466.085,621.089 495,616 ZM 384.080,682.750 C 382.523,685.423 382.801,687.511 384.976,689.479 C 386.063,690.463 386.691,691.691 386.370,692.210 C 386.042,692.740 387.010,693.011 388.578,692.827 C 390.706,692.578 391.555,691.795 392.157,689.527 C 392.812,687.058 392.495,686.083 390.286,683.777 C 387.211,680.567 385.515,680.287 384.080,682.750 Z" fill="#231005" stroke="none"/><path id="4" d="M 707.319,486.319 C 708.949,487.949 709.169,489.200 708.712,494.243 C 708.133,500.631 707.255,502.186 703.945,502.691 C 702.257,502.949 701.985,502.625 702.506,500.982 C 703.448,498.013 702.134,493.012 700.569,493.612 C 698.994,494.217 697,498.369 697,501.047 C 697,503.132 695.534,503.671 694.484,501.973 C 694.135,501.408 693.246,501.071 692.509,501.223 C 691.199,501.493 686,494.871 686,492.931 C 686,491.736 681.097,489.615 678.934,489.875 C 678.073,489.978 676.540,489.149 675.529,488.032 C 674.518,486.915 673.077,486 672.327,486 C 671.577,486 668.834,484.913 666.232,483.584 C 663.630,482.255 659.590,480.866 657.255,480.497 C 651.908,479.652 651.305,478.685 654.724,476.445 C 657.331,474.737 657.855,474.753 668.965,476.879 C 695.513,481.959 705.390,484.390 707.319,486.319 Z" fill="#231005" stroke="none"/><path id="4" d="M 439.311,466.691 C 441.020,469.942 441.469,476 440,476 C 439.450,476 439,475.100 439,474 C 439,472.900 438.373,472 437.607,472 C 435.911,472 434.713,474.704 436.044,475.527 C 436.570,475.852 437,477.651 437,479.524 C 437,481.970 437.597,483.249 439.118,484.063 C 440.896,485.015 441.152,485.837 440.703,489.181 C 440.075,493.862 439.248,495.005 437.961,492.971 C 437.181,491.737 437.028,491.782 437.015,493.250 C 437.007,494.212 436.647,495 436.216,495 C 435.785,495 435.518,492.254 435.624,488.897 C 435.730,485.540 435.222,481.378 434.494,479.647 C 434.053,478.598 433.611,477.549 433.170,476.500 C 429.558,476.412 425.947,476.324 422.335,476.236 C 416.376,476.091 408.533,476.006 404.906,476.048 C 398.985,476.117 398.149,475.877 396.721,473.697 C 394.774,470.726 396.058,469 400.214,469 C 401.761,469 403.809,468.562 404.764,468.027 C 405.719,467.492 412.531,465.876 419.902,464.436 C 434.700,461.545 436.729,461.781 439.311,466.691 Z" fill="#231005" stroke="none"/></g><g data-color-group="#4f2e1f" id="deep-orange"><path id="37" d="M 644,374 C 648.021,378.873 659.776,384.995 671.500,388.321 C 696.670,395.463 700.265,396.159 718.442,397.411 C 738.336,398.781 742.395,399.939 746.238,405.335 C 749.281,409.609 749.370,418.672 746.408,422.674 C 740.850,430.183 735.034,431.503 714.101,430.007 C 683.560,427.824 658.617,420.571 634.186,406.768 C 618.301,397.793 608.843,390.576 596.623,378.103 C 587.553,368.845 586.795,367.774 587.350,364.999 C 587.952,361.989 587.977,361.980 593.262,362.601 C 600.144,363.410 601.513,361.941 601.464,353.809 C 601.432,348.578 601.670,347.870 603.621,347.380 C 606.656,346.618 609.391,348.282 617.500,355.820 C 621.350,359.399 626.638,363.603 629.250,365.163 C 630.833,366.109 632.417,367.054 634,368 C 637.333,370 640.667,372 644,374 ZM 742.847,414.619 C 741.831,412.870 741.518,412.997 738.372,416.431 C 735.167,419.929 734.687,420.113 729.245,419.940 C 726.086,419.839 717.958,419.852 711.185,419.967 C 701.540,420.131 698.750,420.487 698.318,421.613 C 697.924,422.639 697.409,422.754 696.516,422.013 C 695.629,421.277 694.917,421.395 694.068,422.418 C 692.166,424.710 695.452,425.813 707.624,426.967 C 728.766,428.972 735.866,428.172 741.250,423.177 C 744.148,420.489 744.661,417.741 742.847,414.619 Z" fill="#4F2E1F" stroke="none"/><path id="37" d="M 276,417 C 276.024,413.513 276.461,411.825 276.987,411 C 277.800,409.724 278.177,409.831 279.501,411.710 C 280.357,412.926 282.518,414.194 284.303,414.529 C 288.387,415.295 319.865,412.580 330.437,410.549 C 354.345,405.957 378.802,395.238 398,380.936 C 418.405,365.735 425.907,357.506 425.978,350.250 C 426.007,347.306 428.053,347.379 433.021,350.500 C 434.347,351.333 435.674,352.167 437,353 C 437.487,354.083 437.974,355.167 438.461,356.250 C 440.670,361.164 440.400,369.516 437.889,373.984 C 435.607,378.045 421.881,391.112 413,397.678 C 406.525,402.466 388.112,412.686 379.313,416.377 C 358.818,424.974 319.561,431.893 297.314,430.829 C 284.385,430.211 280.573,427.738 276,417 ZM 432.491,362.992 C 431.223,361.940 430.304,362.518 426.741,366.608 C 420.545,373.722 418.533,375.459 409.585,381.430 C 400.522,387.478 395.450,392.300 396.450,393.919 C 398.446,397.149 405.636,393.280 414.958,383.960 C 418.556,380.363 423.637,375.954 426.249,374.163 C 428.861,372.372 431.673,369.600 432.499,368.003 C 434.340,364.443 434.340,364.527 432.491,362.992 Z" fill="#4F2E1F" stroke="none"/><path id="37" d="M 326.786,489.787 C 327.728,488.986 331.200,487.787 334.500,487.124 C 337.800,486.461 342.300,485.478 344.500,484.942 C 351.657,483.197 363.372,481.162 369.187,480.654 C 374.371,480.201 375.013,480.371 376.457,482.574 C 378.553,485.773 377.550,489.473 373.877,492.088 C 372.282,493.224 371.208,494.529 371.492,494.988 C 371.950,495.730 358.682,502.731 353.500,504.483 C 352.400,504.855 347.969,505.522 343.652,505.964 C 335.267,506.824 332.577,508.344 332.528,512.257 C 332.511,513.571 331.879,514.500 331,514.500 C 330.175,514.500 329.500,513.825 329.500,513 C 329.500,512.175 328.665,511.160 327.645,510.744 C 326.606,510.320 326.027,509.373 326.327,508.591 C 326.622,507.823 326.584,506.918 326.244,506.578 C 325.904,506.238 325.501,502.649 325.349,498.602 C 325.125,492.657 325.401,490.964 326.786,489.787 Z" fill="#4F2E1F" stroke="none"/></g><g data-color-group="#8c7062" id="muted-orange"><path id="15" d="M 275,409 C 275.198,408.467 275.394,407.934 275.592,407.401 C 275.918,406.521 277.742,404.078 279.644,401.972 C 283.742,397.436 288.891,396 301.056,396 C 317.410,396 343.616,390.668 360.469,383.912 C 377.290,377.169 389.570,369.171 408.305,352.760 C 411.037,350.367 413.768,347.974 416.500,345.581 C 418.667,345.567 420.833,345.555 423,345.541 C 429.200,345.502 429.673,345.673 437,353 C 435.674,352.167 434.347,351.333 433.021,350.500 C 428.053,347.379 426.007,347.306 425.978,350.250 C 425.907,357.506 418.405,365.735 398,380.936 C 378.802,395.238 354.345,405.957 330.437,410.549 C 319.865,412.580 288.387,415.295 284.303,414.529 C 282.518,414.194 280.357,412.926 279.501,411.710 C 278.177,409.831 277.800,409.724 276.987,411 C 276.461,411.825 276.024,413.513 276,417 C 275.667,414.333 275.333,411.667 275,409 Z" fill="#8C7062" stroke="none"/></g><g data-color-group="#945521" id="orange-2"><path id="22" d="M 584,361 C 584.201,360.251 584.401,359.502 584.602,358.753 C 587.573,347.663 599.283,341.875 608.574,346.904 C 610.733,348.073 617.338,353.298 634,368 C 632.417,367.054 630.833,366.109 629.250,365.163 C 626.638,363.603 621.350,359.399 617.500,355.820 C 609.391,348.282 606.656,346.618 603.621,347.380 C 601.670,347.870 601.432,348.578 601.464,353.809 C 601.513,361.941 600.144,363.410 593.262,362.601 C 587.977,361.980 587.952,361.989 587.350,364.999 C 586.795,367.774 587.553,368.845 596.623,378.103 C 608.843,390.576 618.301,397.793 634.186,406.768 C 658.617,420.571 683.560,427.824 714.101,430.007 C 735.034,431.503 740.850,430.183 746.408,422.674 C 749.370,418.672 749.281,409.609 746.238,405.335 C 742.395,399.939 738.336,398.781 718.442,397.411 C 700.265,396.159 696.670,395.463 671.500,388.321 C 659.776,384.995 648.021,378.873 644,374 C 645.417,374.797 646.833,375.595 648.250,376.392 C 667.825,387.410 702.176,395.988 726.801,396.006 C 737.325,396.014 741.092,397.253 745.537,402.173 C 749.563,406.629 755.368,418.328 756.368,424 C 757.101,428.156 754.800,432.291 750.380,434.764 C 746.151,437.130 724.852,437.223 709.500,434.943 C 696.481,433.010 664.880,423.991 651.810,418.479 C 642.391,414.507 623.998,403.642 615,396.736 C 611.425,393.992 603.355,386.741 597.067,380.623 C 587.152,370.977 585.525,368.935 584,361 Z" fill="#945521" stroke="none"/></g><g data-color-group="#482d22" id="deep-orange-2"><path id="24" d="M 628.612,477.093 C 630.606,478.748 630.322,484.947 628.047,489.409 C 623.914,497.515 613.958,503 603.376,503 C 597.797,503 595.602,501.169 596.210,497.024 C 596.476,495.208 596.104,490.972 595.382,487.611 C 592.810,475.631 594.267,468 599.126,468 C 600.233,468 604.371,469.286 608.320,470.858 C 612.269,472.430 618.138,474.217 621.362,474.829 C 624.586,475.441 627.849,476.460 628.612,477.093 Z" fill="#482D22" stroke="none"/></g><g data-color-group="#b15c30" id="orange-3"><path id="33" d="M 495,616 C 466.085,621.089 453.220,625.015 436.726,633.781 C 421.482,641.883 413.270,647.655 403.236,657.316 C 385.214,674.669 378.053,685.671 379.367,693.992 C 379.578,695.328 379.789,696.664 380,698 C 379,697 378,696 377,695 C 377,692.667 377,690.333 377,688 C 377.499,686.373 377.999,684.747 378.498,683.120 C 379.322,680.436 381.348,676.836 386,672 C 386.667,671 387.333,670 388,669 C 389,668 390,667 391,666 C 391.333,665.333 391.667,664.667 392,664 C 394.750,661.219 397.500,658.439 400.250,655.658 C 405.567,650.282 411.789,645.304 427,636 C 427.667,635.667 428.333,635.333 429,635 C 431.250,633.623 433.500,632.247 435.750,630.870 C 439.462,628.598 445.415,625.638 448.979,624.292 C 460.416,619.972 482.666,614.996 495,614 C 495,614.667 495,615.333 495,616 Z" fill="#B15C30" stroke="none"/></g><g data-color-group="#ac5c2e" id="orange-4"><path id="34" d="M 597,638 C 562.333,621.218 546.383,617.002 515.250,616.395 C 508.500,616.263 501.750,616.132 495,616 C 495,615.333 495,614.667 495,614 C 495,613.750 495.001,613.500 495.001,613.250 C 495.003,611.917 526.203,612.792 536.138,614.404 C 547.713,616.282 566.512,621.847 577.500,626.650 C 581.900,628.573 588.088,631.914 597,638 Z" fill="#AC5C2E" stroke="none"/></g><g data-color-group="#be7740" id="orange-5"><path id="39" d="M 711,492 C 710.591,486.842 709.592,485.027 708,483.850 C 705.666,482.125 696.158,479.989 664.500,474.082 C 658.450,472.953 650.013,471.348 645.750,470.515 C 643.167,470.010 640.583,469.505 638,469 C 648.463,469.939 656,471.070 661.500,472.119 C 667,473.168 677.575,474.925 685,476.021 C 696.672,477.745 698.116,477.800 695.662,476.429 C 694.101,475.557 692.976,474.698 693.162,474.519 C 693.348,474.340 697.189,473.934 701.697,473.615 C 706.205,473.296 710.255,472.938 710.697,472.819 C 712.613,472.304 716,474.285 716,475.921 C 716,476.904 714.987,478.799 713.750,480.133 C 712.195,481.809 711.423,484.015 711.250,487.279 C 711.167,488.853 711.083,490.426 711,492 Z" fill="#BE7740" stroke="none"/></g><g data-color-group="#f2e4d6" id="pale-orange"><path id="50" d="M 698,172 C 707.688,172.967 713.200,173.359 716.500,173.495 C 722.307,173.735 739.467,177.524 741.500,179.015 C 742.050,179.418 743.850,179.983 745.500,180.269 C 750.370,181.114 765.394,186.965 766.750,188.544 C 767.167,189.029 767.583,189.515 768,190 C 767.485,191.968 764.484,191.464 757.946,189.527 C 752.751,187.988 745.800,185.704 742.500,184.451 C 739.200,183.198 731.550,181.224 725.500,180.064 C 698.771,174.938 698,174.750 698,173.373 C 698,172.915 698,172.458 698,172 Z" fill="#F2E4D6" stroke="none"/></g><g data-color-group="#33190f" id="dark-orange-3"><path id="26" d="M 742.847,414.619 C 744.661,417.741 744.148,420.489 741.250,423.177 C 735.866,428.172 728.766,428.972 707.624,426.967 C 695.452,425.813 692.166,424.710 694.068,422.418 C 694.917,421.395 695.629,421.277 696.516,422.013 C 697.409,422.754 697.924,422.639 698.318,421.613 C 698.750,420.487 701.540,420.131 711.185,419.967 C 717.958,419.852 726.086,419.839 729.245,419.940 C 734.687,420.113 735.167,419.929 738.372,416.431 C 741.518,412.997 741.831,412.870 742.847,414.619 Z" fill="#33190F" stroke="none"/></g><g data-color-group="#f7faf9" id="pale-teal"><path id="13" d="M 719,15 C 720.800,11.343 724.414,9.243 725.601,11.163 C 725.933,11.700 725.371,13.011 724.352,14.076 C 722.541,15.970 722.555,16.008 725,15.757 C 727.034,15.548 727.560,14.884 727.818,12.193 C 728.210,8.113 730.109,7.254 733.416,9.663 C 735.937,11.500 735.938,11.500 735.969,8.867 C 735.991,7.059 735.373,6.069 734,5.710 C 732.648,5.357 732,4.347 732,2.594 C 732,1.729 732,0.865 732,0 C 735,0 738,0 741,0 C 740.951,2.713 740.252,4.400 739.416,5.500 C 738.332,6.926 737.953,9.538 738.097,14.604 C 738.208,18.511 737.955,22.264 737.535,22.944 C 736.739,24.231 730.473,23.594 728.500,22.026 C 727.950,21.589 726.735,21.725 725.800,22.329 C 724.436,23.210 723.958,23.038 723.378,21.463 C 722.980,20.383 721.832,18.487 720.827,17.250 C 720.218,16.500 719.609,15.750 719,15 Z" fill="#F7FAF9" stroke="none"/><path id="13" d="M 55.663,539.863 C 56.123,539.663 59.161,539.500 62.414,539.500 C 68.528,539.500 71.120,541.251 66.663,542.370 C 65.330,542.705 64.002,543.883 63.713,544.989 C 63.406,546.163 62.349,547 61.175,547 C 60.068,547 58.380,547.301 57.423,547.668 C 55.936,548.238 55.771,547.895 56.287,545.314 C 56.619,543.652 56.427,541.827 55.859,541.259 C 55.291,540.691 55.203,540.063 55.663,539.863 Z" fill="#F7FAF9" stroke="none"/><path id="13" d="M 131.674,670.250 C 133.474,667.670 134.553,667.506 138.256,669.250 C 140.402,670.260 140.797,670.979 140.317,673 C 139.991,674.375 139.534,675.838 139.303,676.250 C 138.565,677.565 137,677.055 137,675.500 C 137,673.403 135.296,673.631 133.268,676 C 132.326,677.100 131.206,678 130.778,678 C 129.418,678 130.044,672.587 131.674,670.250 Z" fill="#F7FAF9" stroke="none"/><path id="13" d="M 54.352,591.419 C 55.166,591.107 57.107,590.996 58.666,591.175 C 61.177,591.463 61.500,591.900 61.500,595 C 61.500,598.417 61.405,598.500 57.500,598.500 C 53.716,598.500 53.483,598.324 53.186,595.243 C 52.976,593.069 53.364,591.798 54.352,591.419 Z" fill="#F7FAF9" stroke="none"/><path id="13" d="M 183.439,872.385 C 184.231,872.081 186.143,872.534 187.689,873.391 C 189.235,874.248 191.288,875.239 192.250,875.592 C 193.212,875.945 193.996,876.519 193.992,876.867 C 193.981,877.755 188.940,880 186.956,880 C 183.285,880 180.320,873.582 183.439,872.385 Z" fill="#F7FAF9" stroke="none"/><path id="13" d="M 233.530,872.975 C 235.393,871.429 240,873.136 240,875.372 C 240,876.150 240.675,877.045 241.500,877.362 C 242.325,877.679 243,878.349 243,878.852 C 243,880.411 239.167,880.865 235.500,879.739 C 231.645,878.556 230.703,875.321 233.530,872.975 Z" fill="#F7FAF9" stroke="none"/><path id="13" d="M 952.250,668.516 C 956.972,666.925 957.500,667.326 957.500,672.500 C 957.500,676.923 957.241,677.537 955.252,677.819 C 953.590,678.055 952.742,677.451 952.002,675.504 C 950.640,671.921 950.742,669.024 952.250,668.516 Z" fill="#F7FAF9" stroke="none"/><path id="13" d="M 755.334,877.353 C 756.174,876.883 756.779,875.599 756.680,874.500 C 756.559,873.161 757.189,872.402 758.588,872.202 C 761.599,871.771 763.090,874.036 762.117,877.560 C 761.442,880.005 760.832,880.465 758.493,880.290 C 754.922,880.023 753.284,878.500 755.334,877.353 Z" fill="#F7FAF9" stroke="none"/><path id="13" d="M 53.667,745.667 C 54.034,745.300 56.284,745 58.667,745 C 62.173,745 63,745.344 63,746.800 C 63,750.945 57.639,752.468 54.655,749.171 C 52.826,747.150 52.685,746.649 53.667,745.667 Z" fill="#F7FAF9" stroke="none"/><path id="13" d="M 105.706,798.250 C 106.360,794.853 108.785,795.549 110.487,799.622 C 113.345,806.463 112.018,809.375 107.618,805.914 C 105.066,803.907 104.812,802.889 105.706,798.250 Z" fill="#F7FAF9" stroke="none"/><path id="13" d="M 966.509,671.992 C 967.647,671.048 968.388,670.988 969.175,671.775 C 970.692,673.292 969.364,676.217 967.336,675.824 C 965.021,675.375 964.627,673.554 966.509,671.992 Z" fill="#F7FAF9" stroke="none"/></g><g data-color-group="#1b0a04" id="dark-orange-4"><path id="30" d="M 590.333,463.667 C 591.351,464.685 591.170,465.189 588.941,467.562 C 586.823,469.816 585.059,478.449 585.020,486.750 C 584.991,492.838 583.269,491.998 582.457,485.500 C 581.634,478.914 582.664,469.551 584.629,465.751 C 585.957,463.182 588.807,462.141 590.333,463.667 Z" fill="#1B0A04" stroke="none"/><path id="30" d="M 384.080,682.750 C 385.515,680.287 387.211,680.567 390.286,683.777 C 392.495,686.083 392.812,687.058 392.157,689.527 C 391.555,691.795 390.706,692.578 388.578,692.827 C 387.010,693.011 386.042,692.740 386.370,692.210 C 386.691,691.691 386.063,690.463 384.976,689.479 C 382.801,687.511 382.523,685.423 384.080,682.750 Z" fill="#1B0A04" stroke="none"/></g><g data-color-group="#f0e3d5" id="pale-orange-2"><path id="48" d="M 667,168 C 667.950,166.669 688.990,168.485 690.203,170.003 C 690.469,170.335 690.734,170.668 691,171 C 690.407,173.201 667,171.592 667,169.351 C 667,168.901 667,168.450 667,168 Z" fill="#F0E3D5" stroke="none"/></g><g data-color-group="#a36335" id="orange-6"><path id="45" d="M 579,472 C 579,477 579,482 579,487 C 577.422,487 577,483.833 577,479.500 C 577,477 577,474.500 577,472 C 577.667,472 578.333,472 579,472 Z" fill="#A36335" stroke="none"/></g><g data-color-group="#a86130" id="orange-7"><path id="46" d="M 586,460 C 582.246,463.683 581.009,465.936 580.828,467.383 C 580.647,468.830 580.162,470.011 579.750,470.007 C 579.500,470.005 579.250,470.002 579,470 C 578.702,462.588 580.814,457.668 584.070,458.189 C 585.139,458.360 586.011,458.837 586.007,459.250 C 586.005,459.500 586.002,459.750 586,460 Z" fill="#A86130" stroke="none"/></g><g data-color-group="#be6630" id="orange-8"><path id="40" d="M 377,688 C 377,690.333 377,692.667 377,695 C 374.452,695 374,693.944 374,691.500 C 374,690.333 374,689.167 374,688 C 375,688 376,688 377,688 Z" fill="#BE6630" stroke="none"/></g><g data-color-group="#f0e1d6" id="pale-orange-3"><path id="51" d="M 789,203 C 793.021,202.959 797.381,205.245 797.104,207.250 C 797.069,207.500 797.035,207.750 797,208 C 794.871,209.281 789,206.693 789,204.474 C 789,203.983 789,203.491 789,203 Z" fill="#F0E1D6" stroke="none"/></g><g data-color-group="#b06537" id="orange-9"><path id="44" d="M 436,461 C 434.333,460.667 432.667,460.333 431,460 C 431,458.450 432.125,458 433.500,458 C 435.056,458 436,458.567 436,459.500 C 436,460 436,460.500 436,461 Z" fill="#B06537" stroke="none"/></g><g data-color-group="#eee2d4" id="pale-orange-4"><path id="47" d="M 633,166 C 634.333,166 635.667,166 637,166 C 637,168.333 636.111,169 635,169 C 633.889,169 633,168.333 633,167.500 C 633,167 633,166.500 633,166 Z" fill="#EEE2D4" stroke="none"/></g><g data-color-group="#f3e3d2" id="pale-orange-5"><path id="49" d="M 692,171 C 693.333,171.333 694.667,171.667 696,172 C 696,173.550 695.100,174 694,174 C 692.889,174 692,173.333 692,172.500 C 692,172 692,171.500 692,171 Z" fill="#F3E3D2" stroke="none"/></g><g data-color-group="#c0672f" id="orange-10"><path id="41" d="M 388,669 C 387.333,670 386.667,671 386,672 C 384.132,671.509 383.922,670.645 384.317,669.616 C 384.719,668.568 385.604,668.085 386.497,668.426 C 386.998,668.617 387.499,668.809 388,669 Z" fill="#C0672F" stroke="none"/></g><g data-color-group="#c0672e" id="orange-11"><path id="42" d="M 392,664 C 391.667,664.667 391.333,665.333 391,666 C 389.450,666 389,665.292 389,664.427 C 389,663.440 389.559,663.067 390.500,663.427 C 391,663.618 391.500,663.809 392,664 Z" fill="#C0672E" stroke="none"/></g><g data-color-group="#bf6830" id="orange-12"><path id="43" d="M 429,635 C 428.333,635.333 427.667,635.667 427,636 C 426.001,633.311 426.313,632.924 427.415,633.159 C 428.293,633.346 429.009,633.838 429.006,634.250 C 429.004,634.500 429.002,634.750 429,635 Z" fill="#BF6830" stroke="none"/></g></svg>